<svg width="19" height="22" viewBox="0 0 19 22" fill="none" xmlns="http://www.w3.org/2000/svg">
<path d="M12.7895 17.8064C12.781 17.8064 12.7726 17.8064 12.7642 17.806C12.3204 17.7923 11.972 17.4214 11.9852 16.9776L12.281 7.33136C12.2947 6.88764 12.6552 6.53515 13.1094 6.55243C13.5531 6.56609 13.9016 6.93707 13.8884 7.3808L13.5925 17.0271C13.5793 17.4628 13.222 17.8064 12.7895 17.8064Z" fill="#66788A"/>
<path d="M6.68495 17.8064C6.25248 17.8064 5.89516 17.4628 5.8819 17.0275L5.58608 7.38123C5.57242 6.9375 5.92089 6.56652 6.36502 6.55286C6.81035 6.53557 7.17973 6.88766 7.19339 7.33179L7.48921 16.9781C7.50288 17.4218 7.1544 17.7928 6.71027 17.8064C6.70183 17.8064 6.69339 17.8064 6.68495 17.8064Z" fill="#66788A"/>
<path d="M9.93813 17.8064C9.4944 17.8064 9.13428 17.4463 9.13428 17.0026V7.35628C9.13428 6.91256 9.4944 6.55243 9.93813 6.55243C10.3819 6.55243 10.742 6.91256 10.742 7.35628V17.0026C10.742 17.4467 10.3823 17.8064 9.93813 17.8064Z" fill="#66788A"/>
<path d="M14.7616 21.0218H4.31069C3.86696 21.0218 3.50684 20.6617 3.50684 20.218C3.50684 19.7743 3.86696 19.4141 4.31069 19.4141H14.7616C15.2053 19.4141 15.5655 19.7743 15.5655 20.218C15.5655 20.6617 15.2058 21.0218 14.7616 21.0218Z" fill="#66788A"/>
<path d="M15.5652 20.2582C15.5516 20.2582 15.5383 20.2578 15.5243 20.2574C15.0809 20.2353 14.7393 19.8579 14.7618 19.4141L15.5275 4.10069C15.55 3.65736 15.9262 3.32175 16.3707 3.33823C16.814 3.36033 17.1557 3.73774 17.1332 4.18147L16.3675 19.4949C16.3462 19.9242 15.9913 20.2582 15.5652 20.2582Z" fill="#66788A"/>
<path d="M14.7616 21.0219C14.3179 21.0219 13.9578 20.6617 13.9578 20.218C13.9578 19.7743 14.3179 19.4141 14.7616 19.4141H14.7624C14.7849 18.9704 15.1599 18.6235 15.6053 18.6517C16.0486 18.6738 16.3898 19.0512 16.3673 19.4949C16.3247 20.351 15.6193 21.0219 14.7616 21.0219Z" fill="#66788A"/>
<path d="M3.50741 20.2582C3.08177 20.2582 2.72687 19.9242 2.70517 19.4945L1.93949 4.18104C1.91739 3.73731 2.25862 3.3603 2.70195 3.33779C3.1493 3.3173 3.52269 3.65733 3.54519 4.10025L4.31087 19.4141C4.33297 19.8578 3.99174 20.2348 3.54841 20.2574C3.53434 20.2578 3.52068 20.2582 3.50741 20.2582Z" fill="#66788A"/>
<path d="M4.31082 21.0218C3.45311 21.0218 2.74772 20.351 2.70512 19.4945C2.68301 19.0508 3.02425 18.6738 3.46758 18.6512C3.91452 18.6303 4.28831 18.9704 4.31082 19.4137V19.4145C4.75455 19.4145 5.11468 19.7742 5.11468 20.218C5.11468 20.6617 4.75455 21.0218 4.31082 21.0218Z" fill="#66788A"/>
<path d="M12.7514 4.94469C12.3076 4.94469 11.9475 4.58457 11.9475 4.14084V1.72927C11.9475 1.28554 12.3076 0.925415 12.7514 0.925415C13.1951 0.925415 13.5552 1.28554 13.5552 1.72927V4.14084C13.5552 4.58497 13.1951 4.94469 12.7514 4.94469Z" fill="#66788A"/>
<path d="M6.32046 4.94469C5.87673 4.94469 5.5166 4.58457 5.5166 4.14084V1.72927C5.5166 1.28554 5.87673 0.925415 6.32046 0.925415C6.76419 0.925415 7.12431 1.28554 7.12431 1.72927V4.14084C7.12431 4.58497 6.76419 4.94469 6.32046 4.94469Z" fill="#66788A"/>
<path d="M17.5752 4.94475H1.49648C1.05275 4.94475 0.692627 4.58462 0.692627 4.14089C0.692627 3.69716 1.05275 3.33704 1.49648 3.33704H17.5756C18.0193 3.33704 18.3795 3.69716 18.3795 4.14089C18.3795 4.58462 18.0193 4.94475 17.5752 4.94475Z" fill="#66788A"/>
<path d="M6.32006 2.53315C5.87633 2.53315 5.5166 2.17302 5.5166 1.72929C5.5166 0.842641 6.23766 0.121582 7.12431 0.121582C7.56804 0.121582 7.92817 0.481709 7.92817 0.925438C7.92817 1.36917 7.56804 1.72929 7.12431 1.72929H7.12351C7.12351 2.17342 6.76419 2.53315 6.32006 2.53315Z" fill="#66788A"/>
<path d="M11.9473 1.72929H7.12417C6.68044 1.72929 6.32031 1.36917 6.32031 0.925438C6.32031 0.481709 6.68044 0.121582 7.12417 0.121582H11.9473C12.391 0.121582 12.7512 0.481709 12.7512 0.925438C12.7512 1.36917 12.391 1.72929 11.9473 1.72929Z" fill="#66788A"/>
<path d="M12.7513 2.53315C12.3075 2.53315 11.9474 2.17302 11.9474 1.72929V1.72849C11.5037 1.72849 11.1436 1.36917 11.1436 0.925036C11.1436 0.481307 11.5037 0.121582 11.9474 0.121582C12.8341 0.121582 13.5551 0.842641 13.5551 1.72929C13.5551 2.17342 13.195 2.53315 12.7513 2.53315Z" fill="#66788A"/>
</svg>
