<svg width="21" height="21" viewBox="0 0 21 21" fill="none" xmlns="http://www.w3.org/2000/svg">
<path d="M10.1167 20.6409C6.3134 20.6413 2.80632 18.462 1.12663 15.0318C-0.573061 11.5598 -0.0584226 7.22956 2.40784 4.25673C4.87142 1.28698 8.8766 -0.00884706 12.6106 0.955427C13.0218 1.06159 13.2691 1.48122 13.1633 1.89278C13.0572 2.30433 12.6371 2.55127 12.226 2.44549C9.06737 1.62969 5.67722 2.72589 3.59213 5.23947C1.50588 7.75458 1.07047 11.4182 2.50862 14.356C3.94137 17.2823 7.1019 19.1886 10.3459 19.1001C13.5895 19.0116 16.5331 17.0388 17.8451 14.0745C18.6155 12.3336 18.7786 10.3624 18.3036 8.52346C18.1974 8.11229 18.4447 7.69265 18.8563 7.58611C19.2667 7.47957 19.6871 7.72727 19.7936 8.13883C20.3544 10.3116 20.1625 12.641 19.2524 14.6972C17.7016 18.2012 14.2218 20.5332 10.3882 20.6379C10.2974 20.6398 10.2067 20.6409 10.1167 20.6409Z" fill="#47B881"/>
<path d="M10.1105 13.0394C9.91355 13.0394 9.71661 12.9644 9.56661 12.814C9.26621 12.5136 9.26621 12.0267 9.56661 11.7263L18.7978 2.49507C19.0978 2.19468 19.5855 2.19468 19.8855 2.49507C20.1859 2.79547 20.1859 3.28242 19.8855 3.58282L10.6543 12.814C10.5043 12.964 10.3074 13.0394 10.1105 13.0394Z" fill="#47B881"/>
<path d="M10.1104 13.0394C9.91348 13.0394 9.71655 12.9644 9.56654 12.814L6.30294 9.55041C6.00254 9.25001 6.00254 8.76306 6.30294 8.46266C6.60295 8.16227 7.09066 8.16227 7.39068 8.46266L10.6543 11.7263C10.9547 12.0267 10.9547 12.5136 10.6543 12.814C10.5043 12.964 10.3073 13.0394 10.1104 13.0394Z" fill="#47B881"/>
</svg>
