    <svg width="26" height="23" viewBox="0 0 26 23" fill="none" xmlns="http://www.w3.org/2000/svg">
<path fill-rule="evenodd" clip-rule="evenodd" d="M23.8333 0.000976562C24.4352 0.000976562 24.9468 0.207574 25.3681 0.620768C25.7894 1.03396 26 1.5357 26 2.12598V14.876C26 15.4663 25.7894 15.968 25.3681 16.3812C24.9468 16.7944 24.4352 17.001 23.8333 17.001H2.16667C1.56482 17.001 1.05324 16.7944 0.631944 16.3812C0.210648 15.968 0 15.4663 0 14.876V2.12598C0 1.5357 0.210648 1.03396 0.631944 0.620768C1.05324 0.207574 1.56482 0.000976562 2.16667 0.000976562H23.8333ZM23.725 15.001C23.7861 15.001 23.8472 14.9709 23.9083 14.9107C23.9694 14.8505 24 14.7903 24 14.7301V2.27181C24 2.21162 23.9694 2.15144 23.9083 2.09125C23.8472 2.03107 23.7861 2.00098 23.725 2.00098H2.275C2.21389 2.00098 2.15278 2.03107 2.09167 2.09125C2.03056 2.15144 2 2.21162 2 2.27181V14.7301C2 14.7903 2.03056 14.8505 2.09167 14.9107C2.15278 14.9709 2.21389 15.001 2.275 15.001H23.725ZM20.6901 22.6885C20.8967 22.4801 21 22.2272 21 21.9295C21 21.6319 20.8967 21.379 20.6901 21.1706C20.4835 20.9623 20.2326 20.8581 19.9375 20.8581H15.5547L14.7578 18.3581C14.6693 18.12 14.4922 18.001 14.2266 18.001H10.7734C10.5078 18.001 10.3307 18.12 10.2422 18.3581L9.44531 20.8581H5.0625C4.76736 20.8581 4.51649 20.9623 4.3099 21.1706C4.1033 21.379 4 21.6319 4 21.9295C4 22.2272 4.1033 22.4801 4.3099 22.6885C4.51649 22.8968 4.76736 23.001 5.0625 23.001H19.9375C20.2326 23.001 20.4835 22.8968 20.6901 22.6885Z" fill="#A6B1BB"/>
</svg>
