<svg width="25" height="23" viewBox="0 0 25 23" fill="none" xmlns="http://www.w3.org/2000/svg">
<mask id="path-1-inside-1" fill="white">
<path d="M1.26037 0.254395C0.594122 0.254395 0.043457 0.787153 0.043457 1.43546V16.4157C0.043457 17.064 0.594122 17.5976 1.26037 17.5976H9.2479L8.64023 19.9635H7.33706C6.89521 19.9635 6.52684 20.3219 6.52684 20.7519V21.5403C6.52684 21.9702 6.89521 22.3287 7.33706 22.3287H17.059C17.5008 22.3287 17.87 21.9702 17.87 21.5403V20.7519C17.87 20.3219 17.5008 19.9635 17.059 19.9635H15.7534L15.1473 17.5976H23.1357C23.8019 17.5991 24.3569 17.0758 24.3502 16.4157V1.43546C24.3502 0.787153 23.8019 0.254395 23.1357 0.254395H1.26037ZM1.26037 1.0428H23.1357C23.3671 1.0428 23.5392 1.21029 23.5392 1.43546V14.4463H0.853682V1.43546C0.853682 1.21029 1.02897 1.0428 1.26037 1.0428ZM0.853682 15.2347H23.5392V16.4157C23.5392 16.6409 23.3671 16.8084 23.1357 16.8084C15.8366 16.8054 8.55901 16.8084 1.26037 16.8084C1.02897 16.8084 0.853682 16.6409 0.853682 16.4157V15.2347ZM10.0834 17.5976H14.3126L14.9211 19.9635H9.47577L10.0834 17.5976ZM7.33706 20.7519C10.5806 20.7608 13.8443 20.7519 17.059 20.7519V21.5403H7.33706V20.7519Z"/>
</mask>
<path d="M1.26037 0.254395C0.594122 0.254395 0.043457 0.787153 0.043457 1.43546V16.4157C0.043457 17.064 0.594122 17.5976 1.26037 17.5976H9.2479L8.64023 19.9635H7.33706C6.89521 19.9635 6.52684 20.3219 6.52684 20.7519V21.5403C6.52684 21.9702 6.89521 22.3287 7.33706 22.3287H17.059C17.5008 22.3287 17.87 21.9702 17.87 21.5403V20.7519C17.87 20.3219 17.5008 19.9635 17.059 19.9635H15.7534L15.1473 17.5976H23.1357C23.8019 17.5991 24.3569 17.0758 24.3502 16.4157V1.43546C24.3502 0.787153 23.8019 0.254395 23.1357 0.254395H1.26037ZM1.26037 1.0428H23.1357C23.3671 1.0428 23.5392 1.21029 23.5392 1.43546V14.4463H0.853682V1.43546C0.853682 1.21029 1.02897 1.0428 1.26037 1.0428ZM0.853682 15.2347H23.5392V16.4157C23.5392 16.6409 23.3671 16.8084 23.1357 16.8084C15.8366 16.8054 8.55901 16.8084 1.26037 16.8084C1.02897 16.8084 0.853682 16.6409 0.853682 16.4157V15.2347ZM10.0834 17.5976H14.3126L14.9211 19.9635H9.47577L10.0834 17.5976ZM7.33706 20.7519C10.5806 20.7608 13.8443 20.7519 17.059 20.7519V21.5403H7.33706V20.7519Z" fill="white"/>
<path d="M9.2479 17.5976L38.5336 25.1193L48.2313 -12.6386H9.2479V17.5976ZM8.64023 19.9635V50.1997H32.092L37.9259 27.4852L8.64023 19.9635ZM15.7534 19.9635L-13.537 27.4668L-7.71352 50.1997H15.7534V19.9635ZM15.1473 17.5976V-12.6386H-23.8108L-14.1431 25.1009L15.1473 17.5976ZM23.1357 17.5976L23.2033 -12.6386L23.1695 -12.6386H23.1357V17.5976ZM24.3502 16.4157H-5.88601V16.569L-5.88446 16.7223L24.3502 16.4157ZM23.5392 14.4463V44.6825H53.7754V14.4463H23.5392ZM0.853682 14.4463H-29.3825V44.6825H0.853682V14.4463ZM0.853682 15.2347V-15.0015H-29.3825V15.2347H0.853682ZM23.5392 15.2347H53.7754V-15.0015H23.5392V15.2347ZM23.1357 16.8084L23.1233 47.0446H23.1357V16.8084ZM10.0834 17.5976V-12.6386H-13.3683L-19.2023 10.0759L10.0834 17.5976ZM14.3126 17.5976L43.5959 10.0666L37.7567 -12.6386H14.3126V17.5976ZM14.9211 19.9635V50.1997H53.9172L44.2044 12.4326L14.9211 19.9635ZM9.47577 19.9635L-19.8099 12.4418L-29.5077 50.1997H9.47577V19.9635ZM7.33706 20.7519L7.42039 -9.48421L-22.8992 -9.56778V20.7519H7.33706ZM17.059 20.7519H47.2952V-9.48433H17.059V20.7519ZM17.059 21.5403V51.7765H47.2952V21.5403H17.059ZM7.33706 21.5403H-22.8992V51.7765H7.33706V21.5403ZM1.26037 -29.9818C-15.2178 -29.9818 -30.1928 -16.7854 -30.1928 1.43546H30.2797C30.2797 18.3597 16.406 30.4906 1.26037 30.4906V-29.9818ZM-30.1928 1.43546V16.4157H30.2797V1.43546H-30.1928ZM-30.1928 16.4157C-30.1928 34.611 -15.2441 47.8338 1.26037 47.8338V-12.6386C16.4324 -12.6386 30.2797 -0.482931 30.2797 16.4157H-30.1928ZM1.26037 47.8338H9.2479V-12.6386H1.26037V47.8338ZM-20.0378 10.0759L-20.6455 12.4418L37.9259 27.4852L38.5336 25.1193L-20.0378 10.0759ZM8.64023 -10.2727H7.33706V50.1997H8.64023V-10.2727ZM7.33706 -10.2727C-9.01836 -10.2727 -23.7094 2.84817 -23.7094 20.7519H36.7631C36.7631 37.7957 22.8088 50.1997 7.33706 50.1997V-10.2727ZM-23.7094 20.7519V21.5403H36.7631V20.7519H-23.7094ZM-23.7094 21.5403C-23.7094 39.4418 -9.02065 52.5649 7.33706 52.5649V-7.90751C22.8111 -7.90751 36.7631 4.49871 36.7631 21.5403H-23.7094ZM7.33706 52.5649H17.059V-7.90751H7.33706V52.5649ZM17.059 52.5649C33.378 52.5649 48.1062 39.4794 48.1062 21.5403H-12.3662C-12.3662 4.4611 1.62364 -7.90751 17.059 -7.90751V52.5649ZM48.1062 21.5403V20.7519H-12.3662V21.5403H48.1062ZM48.1062 20.7519C48.1062 2.81057 33.3757 -10.2727 17.059 -10.2727V50.1997C1.62594 50.1997 -12.3662 37.8333 -12.3662 20.7519H48.1062ZM17.059 -10.2727H15.7534V50.1997H17.059V-10.2727ZM45.0439 12.4602L44.4378 10.0943L-14.1431 25.1009L-13.537 27.4668L45.0439 12.4602ZM15.1473 47.8338H23.1357V-12.6386H15.1473V47.8338ZM23.068 47.8337C39.2751 47.87 54.7753 34.8895 54.5849 16.1092L-5.88446 16.7223C-6.0615 -0.737881 8.32875 -12.6718 23.2033 -12.6386L23.068 47.8337ZM54.5864 16.4157V1.43546H-5.88601V16.4157H54.5864ZM54.5864 1.43546C54.5864 -16.71 39.6915 -29.9818 23.1357 -29.9818V30.4906C7.91235 30.4906 -5.88601 18.2843 -5.88601 1.43546H54.5864ZM23.1357 -29.9818H1.26037V30.4906H23.1357V-29.9818ZM1.26037 31.279H23.1357V-29.1934H1.26037V31.279ZM23.1357 31.279C7.45134 31.279 -6.69703 18.682 -6.69703 1.43546H53.7754C53.7754 -16.2614 39.2828 -29.1934 23.1357 -29.1934V31.279ZM-6.69703 1.43546V14.4463H53.7754V1.43546H-6.69703ZM23.5392 -15.7899H0.853682V44.6825H23.5392V-15.7899ZM31.0899 14.4463V1.43546H-29.3825V14.4463H31.0899ZM31.0899 1.43546C31.0899 18.9885 16.628 31.279 1.26037 31.279V-29.1934C-14.57 -29.1934 -29.3825 -16.5679 -29.3825 1.43546H31.0899ZM0.853682 45.4709H23.5392V-15.0015H0.853682V45.4709ZM-6.69703 15.2347V16.4157H53.7754V15.2347H-6.69703ZM-6.69703 16.4157C-6.69703 -0.831485 7.4521 -13.4278 23.1357 -13.4278V47.0446C39.282 47.0446 53.7754 34.1133 53.7754 16.4157H-6.69703ZM23.148 -13.4278C15.8418 -13.4308 8.54151 -13.4278 1.26037 -13.4278V47.0446C8.57652 47.0446 15.8315 47.0416 23.1233 47.0446L23.148 -13.4278ZM1.26037 -13.4278C16.628 -13.4278 31.0899 -1.13726 31.0899 16.4157H-29.3825C-29.3825 34.4191 -14.57 47.0446 1.26037 47.0446V-13.4278ZM31.0899 16.4157V15.2347H-29.3825V16.4157H31.0899ZM10.0834 47.8338H14.3126V-12.6386H10.0834V47.8338ZM-14.9707 25.1285L-14.3623 27.4945L44.2044 12.4326L43.5959 10.0666L-14.9707 25.1285ZM14.9211 -10.2727H9.47577V50.1997H14.9211V-10.2727ZM38.7615 27.4852L39.3691 25.1193L-19.2023 10.0759L-19.8099 12.4418L38.7615 27.4852ZM7.25373 50.988C10.5459 50.9971 13.9623 50.9881 17.059 50.9881V-9.48433C13.7263 -9.48433 10.6153 -9.47541 7.42039 -9.48421L7.25373 50.988ZM-13.1772 20.7519V21.5403H47.2952V20.7519H-13.1772ZM17.059 -8.69592H7.33706V51.7765H17.059V-8.69592ZM37.5733 21.5403V20.7519H-22.8992V21.5403H37.5733Z" fill="#4099FF" mask="url(#path-1-inside-1)"/>
</svg>
