<svg width="22" height="27" viewBox="0 0 22 27" fill="none" xmlns="http://www.w3.org/2000/svg">
<path d="M19.4422 4.39853C19.0347 4.39853 18.6517 4.50589 18.3226 4.6932V4.39853C18.3226 3.19033 17.3182 2.20778 16.0833 2.20778C15.6757 2.20778 15.2928 2.31515 14.9636 2.50245V2.20778C14.9636 0.999632 13.9593 0.0170898 12.7243 0.0170898C11.4893 0.0170898 10.485 0.999632 10.485 2.20784V2.50251C10.1558 2.3152 9.77292 2.20784 9.36539 2.20784C8.1304 2.20784 7.12608 3.19038 7.12608 4.39858V15.0137L4.04819 13.5076C3.58466 13.2808 3.06512 13.1615 2.54674 13.1615C1.36665 13.1615 0.408203 14.1002 0.408203 15.2602C0.408203 15.8199 0.630995 16.3446 1.03522 16.74L8.27483 23.8226C9.91064 25.4241 12.0884 26.3058 14.4038 26.3058C18.4166 26.3058 21.6815 23.1118 21.6815 19.186V6.58928C21.6815 5.38107 20.6772 4.39853 19.4422 4.39853ZM20.5618 19.186C20.5618 22.5082 17.7985 25.2104 14.4026 25.2104C12.3862 25.2104 10.4917 24.4426 9.06754 23.0471L1.82683 15.9645C1.63427 15.7772 1.52788 15.5264 1.52788 15.2536C1.52788 14.7038 1.9847 14.2569 2.54674 14.2569C2.89271 14.2569 3.23758 14.3368 3.54771 14.488L7.43625 16.3895C7.60866 16.4739 7.81692 16.4651 7.9804 16.3655C8.14499 16.2658 8.24576 16.0894 8.24576 15.8999V4.39858C8.24576 3.79502 8.74734 3.30318 9.36539 3.30318C9.98343 3.30318 10.485 3.79502 10.485 4.39853V11.5184C10.485 11.8207 10.7358 12.0661 11.0449 12.0661C11.3539 12.0661 11.6047 11.8207 11.6047 11.5184V2.20784C11.6047 1.60427 12.1063 1.11249 12.7243 1.11249C13.3424 1.11249 13.844 1.60432 13.844 2.20784V11.5184C13.844 11.8207 14.0948 12.0661 14.4038 12.0661C14.7128 12.0661 14.9636 11.8207 14.9636 11.5184V4.39853C14.9636 3.79502 15.4652 3.30318 16.0833 3.30318C16.7013 3.30318 17.2029 3.79502 17.2029 4.39853V11.5184C17.2029 11.8207 17.4537 12.0661 17.7627 12.0661C18.0718 12.0661 18.3226 11.8207 18.3226 11.5184V6.58928C18.3226 5.98571 18.8242 5.49393 19.4422 5.49393C20.0602 5.49393 20.5618 5.98576 20.5618 6.58928V19.186Z" fill="white"/>
</svg>
