<svg width="22" height="17" viewBox="0 0 22 17" fill="none" xmlns="http://www.w3.org/2000/svg">
<path d="M0.821924 2.65943C0.376085 2.65943 0.0146484 2.29759 0.0146484 1.85175C0.0146484 0.960878 0.739137 0.236389 1.63001 0.236389C2.07585 0.236389 2.43769 0.59823 2.43769 1.04407C2.43769 1.48991 2.07585 1.85175 1.63001 1.85175H1.6288C1.6288 2.29759 1.26817 2.65943 0.821924 2.65943Z" fill="white"/>
<path d="M19.3979 1.85071H1.62897C1.18313 1.85071 0.821289 1.48887 0.821289 1.04303C0.821289 0.597192 1.18313 0.235352 1.62897 0.235352H19.3979C19.8438 0.235352 20.2056 0.597192 20.2056 1.04303C20.2056 1.48887 19.8438 1.85071 19.3979 1.85071Z" fill="white"/>
<path d="M20.2062 2.65839C19.7603 2.65839 19.3985 2.29655 19.3985 1.85071V1.8495C18.9527 1.8495 18.5908 1.48847 18.5908 1.04263C18.5908 0.596788 18.9527 0.235352 19.3985 0.235352C20.2894 0.235352 21.0139 0.95984 21.0139 1.85071C21.0139 2.29655 20.652 2.65839 20.2062 2.65839Z" fill="white"/>
<path d="M20.2061 15.581C19.7603 15.581 19.3984 15.2192 19.3984 14.7733V1.85047C19.3984 1.40463 19.7603 1.04279 20.2061 1.04279C20.652 1.04279 21.0138 1.40463 21.0138 1.85047V14.7733C21.0138 15.2192 20.652 15.581 20.2061 15.581Z" fill="white"/>
<path d="M0.821351 15.581C0.375512 15.581 0.0136719 15.2192 0.0136719 14.7733V1.85047C0.0136719 1.40463 0.375512 1.04279 0.821351 1.04279C1.26719 1.04279 1.62903 1.40463 1.62903 1.85047V14.7733C1.62903 15.2192 1.26719 15.581 0.821351 15.581Z" fill="white"/>
<path d="M19.3985 16.3889C18.9527 16.3889 18.5908 16.027 18.5908 15.5812C18.5908 15.1353 18.9527 14.7735 19.3985 14.7735H19.3997C19.3997 14.3277 19.7607 13.9658 20.2066 13.9658C20.6524 13.9658 21.0139 14.3277 21.0139 14.7735C21.0139 15.6644 20.2894 16.3889 19.3985 16.3889Z" fill="white"/>
<path d="M19.3979 16.389H1.62897C1.18313 16.389 0.821289 16.0272 0.821289 15.5814C0.821289 15.1355 1.18313 14.7737 1.62897 14.7737H19.3979C19.8438 14.7737 20.2056 15.1355 20.2056 15.5814C20.2056 16.0272 19.8438 16.389 19.3979 16.389Z" fill="white"/>
<path d="M1.62903 16.3889C0.73816 16.3889 0.0136719 15.6644 0.0136719 14.7735C0.0136719 14.3277 0.375512 13.9658 0.821351 13.9658C1.26719 13.9658 1.62903 14.3277 1.62903 14.7735V14.7747C2.07487 14.7747 2.43671 15.1357 2.43671 15.5816C2.43671 16.0274 2.07487 16.3889 1.62903 16.3889Z" fill="white"/>
<path d="M0.822324 12.4361C0.557001 12.4361 0.296525 12.3056 0.142258 12.0654C-0.0992383 11.6902 0.00939472 11.1906 0.384562 10.9491L6.04236 7.30813C6.41793 7.06623 6.91748 7.17486 7.15857 7.55043C7.40007 7.9256 7.29143 8.42515 6.91627 8.66664L1.25847 12.3077C1.12318 12.3945 0.971745 12.4361 0.822324 12.4361Z" fill="white"/>
<path d="M10.5147 12.4361C10.2494 12.4361 9.98891 12.3056 9.83464 12.0654C9.59314 11.6902 9.70178 11.1906 10.0769 10.9491L15.7347 7.30813C16.1103 7.06623 16.6099 7.17486 16.851 7.55043C17.0924 7.9256 16.9838 8.42515 16.6086 8.66664L10.9509 12.3077C10.8156 12.3945 10.6641 12.4361 10.5147 12.4361Z" fill="white"/>
<path d="M20.205 12.4357C20.0119 12.4357 19.8189 12.3671 19.6642 12.2273L15.6299 8.58632C15.2987 8.28788 15.2725 7.77702 15.5713 7.44587C15.8698 7.11513 16.3806 7.08807 16.7118 7.38732L20.7461 11.0283C21.0773 11.3268 21.1035 11.8376 20.8047 12.1688C20.6456 12.3457 20.4259 12.4357 20.205 12.4357Z" fill="white"/>
<path d="M12.2089 13.9659C12.0159 13.9659 11.8228 13.8973 11.6681 13.7575L5.93847 8.58717C5.60732 8.28874 5.58107 7.77788 5.87991 7.44673C6.17835 7.11598 6.6888 7.08893 7.02036 7.38817L12.75 12.5589C13.0812 12.8574 13.1074 13.3682 12.8086 13.6994C12.6495 13.8759 12.4298 13.9659 12.2089 13.9659Z" fill="white"/>
</svg>
