
<svg width="29" height="25" viewBox="0 0 29 25" fill="none" xmlns="http://www.w3.org/2000/svg">
<path d="M25.5187 23.6584C24.9062 23.6584 24.4092 23.1613 24.4092 22.5489V18.111C24.4092 17.4985 24.9062 17.0015 25.5187 17.0015C26.1311 17.0015 26.6282 17.4985 26.6282 18.111V22.5489C26.6282 23.1613 26.1311 23.6584 25.5187 23.6584Z" fill="white"/>
<path d="M25.5187 12.5626C24.9062 12.5626 24.4092 12.0655 24.4092 11.4531V7.01513C24.4092 6.40269 24.9062 5.90564 25.5187 5.90564C26.1311 5.90564 26.6282 6.40269 26.6282 7.01513V11.4531C26.6282 12.0655 26.1311 12.5626 25.5187 12.5626Z" fill="white"/>
<path d="M27.737 12.5622H22.1896C21.5771 12.5622 21.0801 12.0652 21.0801 11.4528C21.0801 10.8403 21.5771 10.3433 22.1896 10.3433H27.737C28.3494 10.3433 28.8465 10.8403 28.8465 11.4528C28.8465 12.0652 28.3494 12.5622 27.737 12.5622Z" fill="white"/>
<path d="M27.737 19.2204H22.1896C21.5771 19.2204 21.0801 18.7234 21.0801 18.111C21.0801 17.4985 21.5771 17.0015 22.1896 17.0015H27.737C28.3494 17.0015 28.8465 17.4985 28.8465 18.111C28.8465 18.7234 28.3494 19.2204 27.737 19.2204Z" fill="white"/>
<path d="M22.1899 19.2192C19.7429 19.2192 17.752 17.2282 17.752 14.7812C17.752 12.3342 19.7429 10.3433 22.1899 10.3433C22.8023 10.3433 23.2994 10.8403 23.2994 11.4528C23.2994 12.0652 22.8023 12.5622 22.1899 12.5622C20.9872 12.5622 19.9709 13.5785 19.9709 14.7812C19.9709 15.9839 20.9872 17.0002 22.1899 17.0002C22.8023 17.0002 23.2994 17.4972 23.2994 18.1097C23.2994 18.7221 22.8023 19.2192 22.1899 19.2192Z" fill="white"/>
<path d="M27.7374 19.2192C27.125 19.2192 26.6279 18.7221 26.6279 18.1097V11.4528C26.6279 10.8403 27.125 10.3433 27.7374 10.3433C28.3499 10.3433 28.8469 10.8403 28.8469 11.4528V18.1097C28.8469 18.7221 28.3499 19.2192 27.7374 19.2192Z" fill="white"/>
<path d="M22.1895 2.57707H3.32824C2.7158 2.57707 2.21875 2.08002 2.21875 1.46758C2.21875 0.855144 2.7158 0.358093 3.32824 0.358093H22.1895C22.802 0.358093 23.299 0.855144 23.299 1.46758C23.299 2.08002 22.802 2.57707 22.1895 2.57707Z" fill="white"/>
<path d="M24.4085 7.01469H3.32824C2.7158 7.01469 2.21875 6.51764 2.21875 5.9052C2.21875 5.29277 2.7158 4.79572 3.32824 4.79572H24.4085C25.021 4.79572 25.518 5.29277 25.518 5.9052C25.518 6.51764 25.021 7.01469 24.4085 7.01469Z" fill="white"/>
<path d="M24.4085 24.7666H3.32824C2.7158 24.7666 2.21875 24.2695 2.21875 23.6571C2.21875 23.0447 2.7158 22.5476 3.32824 22.5476H24.4085C25.021 22.5476 25.518 23.0447 25.518 23.6571C25.518 24.2695 25.021 24.7666 24.4085 24.7666Z" fill="white"/>
<path d="M24.4093 24.7661C23.7969 24.7661 23.2998 24.2691 23.2998 23.6567C23.2998 23.0442 23.7969 22.5472 24.4093 22.5472H24.411C24.411 21.9347 24.9069 21.4377 25.5193 21.4377C26.1318 21.4377 26.6283 21.9347 26.6283 22.5472C26.6283 23.7704 25.6331 24.7661 24.4093 24.7661Z" fill="white"/>
<path d="M23.2989 7.01479C22.6865 7.01479 22.1895 6.51774 22.1895 5.9053V2.57683C22.1895 1.9644 22.6865 1.46735 23.2989 1.46735C23.9114 1.46735 24.4084 1.9644 24.4084 2.57683V5.9053C24.4084 6.51774 23.9114 7.01479 23.2989 7.01479Z" fill="white"/>
<path d="M23.2991 3.68656C22.6866 3.68656 22.1896 3.18951 22.1896 2.57707V2.57596C21.5771 2.57596 21.0801 2.08002 21.0801 1.46703C21.0801 0.854589 21.5771 0.358093 22.1896 0.358093C23.4133 0.358093 24.4085 1.3533 24.4085 2.57707C24.4085 3.18951 23.9115 3.68656 23.2991 3.68656Z" fill="white"/>
<path d="M25.5188 8.12418C24.9063 8.12418 24.4093 7.62713 24.4093 7.01469V7.01358C23.7969 7.01358 23.2998 6.51764 23.2998 5.90465C23.2998 5.29221 23.7969 4.79572 24.4093 4.79572C25.6331 4.79572 26.6283 5.79093 26.6283 7.01469C26.6283 7.62713 26.1312 8.12418 25.5188 8.12418Z" fill="white"/>
<path d="M3.32846 24.7671C1.49282 24.7671 0 23.2743 0 21.4387C0 20.8262 0.497051 20.3292 1.10949 20.3292C1.72193 20.3292 2.21898 20.8262 2.21898 21.4387C2.21898 22.0505 2.71658 22.5481 3.32846 22.5481C3.9409 22.5481 4.43795 23.0452 4.43795 23.6576C4.43795 24.2701 3.9409 24.7671 3.32846 24.7671Z" fill="white"/>
<path d="M1.10949 22.5473C0.497051 22.5473 0 22.0503 0 21.4378V3.68603C0 3.07359 0.497051 2.57654 1.10949 2.57654C1.72193 2.57654 2.21898 3.07359 2.21898 3.68603V21.4378C2.21898 22.0503 1.72193 22.5473 1.10949 22.5473Z" fill="white"/>
<path d="M3.32846 7.01576C1.49282 7.01576 0 5.52294 0 3.68729C0 1.85164 1.49282 0.358826 3.32846 0.358826C3.9409 0.358826 4.43795 0.855876 4.43795 1.46831C4.43795 2.08075 3.9409 2.5778 3.32846 2.5778C2.72712 2.5778 2.21898 3.08595 2.21898 3.68729C2.21898 4.28863 2.72712 4.79678 3.32846 4.79678C3.9409 4.79678 4.43795 5.29383 4.43795 5.90627C4.43795 6.5187 3.9409 7.01576 3.32846 7.01576Z" fill="white"/>
</svg>