<svg width="21" height="17" viewBox="0 0 21 17" fill="none" xmlns="http://www.w3.org/2000/svg">
<path d="M18.0016 16.1669C17.577 16.1669 17.2324 15.8222 17.2324 15.3976V12.3207C17.2324 11.8961 17.577 11.5515 18.0016 11.5515C18.4263 11.5515 18.7709 11.8961 18.7709 12.3207V15.3976C18.7709 15.8222 18.4263 16.1669 18.0016 16.1669Z" fill="#BBBBBB"/>
<path d="M18.0016 8.47429C17.577 8.47429 17.2324 8.12967 17.2324 7.70506V4.62817C17.2324 4.20356 17.577 3.85895 18.0016 3.85895C18.4263 3.85895 18.7709 4.20356 18.7709 4.62817V7.70506C18.7709 8.12967 18.4263 8.47429 18.0016 8.47429Z" fill="#BBBBBB"/>
<path d="M19.5392 8.47393H15.6931C15.2684 8.47393 14.9238 8.12932 14.9238 7.70471C14.9238 7.2801 15.2684 6.93549 15.6931 6.93549H19.5392C19.9638 6.93549 20.3084 7.2801 20.3084 7.70471C20.3084 8.12932 19.9638 8.47393 19.5392 8.47393Z" fill="#BBBBBB"/>
<path d="M19.5392 13.09H15.6931C15.2684 13.09 14.9238 12.7453 14.9238 12.3207C14.9238 11.8961 15.2684 11.5515 15.6931 11.5515H19.5392C19.9638 11.5515 20.3084 11.8961 20.3084 12.3207C20.3084 12.7453 19.9638 13.09 19.5392 13.09Z" fill="#BBBBBB"/>
<path d="M15.6931 13.0893C13.9966 13.0893 12.6162 11.7089 12.6162 10.0124C12.6162 8.31586 13.9966 6.93549 15.6931 6.93549C16.1177 6.93549 16.4623 7.2801 16.4623 7.70471C16.4623 8.12932 16.1177 8.47393 15.6931 8.47393C14.8593 8.47393 14.1547 9.17854 14.1547 10.0124C14.1547 10.8462 14.8593 11.5508 15.6931 11.5508C16.1177 11.5508 16.4623 11.8954 16.4623 12.32C16.4623 12.7447 16.1177 13.0893 15.6931 13.0893Z" fill="#BBBBBB"/>
<path d="M19.5397 13.0893C19.1151 13.0893 18.7705 12.7447 18.7705 12.32V7.70471C18.7705 7.2801 19.1151 6.93549 19.5397 6.93549C19.9643 6.93549 20.309 7.2801 20.309 7.70471V12.32C20.309 12.7447 19.9643 13.0893 19.5397 13.0893Z" fill="#BBBBBB"/>
<path d="M15.6927 1.55114H2.6159C2.19129 1.55114 1.84668 1.20653 1.84668 0.781919C1.84668 0.357307 2.19129 0.0126953 2.6159 0.0126953H15.6927C16.1173 0.0126953 16.4619 0.357307 16.4619 0.781919C16.4619 1.20653 16.1173 1.55114 15.6927 1.55114Z" fill="#BBBBBB"/>
<path d="M17.2311 4.62762H2.6159C2.19129 4.62762 1.84668 4.28301 1.84668 3.8584C1.84668 3.43378 2.19129 3.08917 2.6159 3.08917H17.2311C17.6558 3.08917 18.0004 3.43378 18.0004 3.8584C18.0004 4.28301 17.6558 4.62762 17.2311 4.62762Z" fill="#BBBBBB"/>
<path d="M17.2311 16.9354H2.6159C2.19129 16.9354 1.84668 16.5907 1.84668 16.1661C1.84668 15.7415 2.19129 15.3969 2.6159 15.3969H17.2311C17.6558 15.3969 18.0004 15.7415 18.0004 16.1661C18.0004 16.5907 17.6558 16.9354 17.2311 16.9354Z" fill="#BBBBBB"/>
<path d="M17.2311 16.9352C16.8065 16.9352 16.4619 16.5906 16.4619 16.166C16.4619 15.7414 16.8065 15.3968 17.2311 15.3968H17.2323C17.2323 14.9722 17.5761 14.6276 18.0007 14.6276C18.4254 14.6276 18.7696 14.9722 18.7696 15.3968C18.7696 16.2449 18.0796 16.9352 17.2311 16.9352Z" fill="#BBBBBB"/>
<path d="M16.4616 4.62773C16.037 4.62773 15.6924 4.28312 15.6924 3.85851V1.55084C15.6924 1.12623 16.037 0.781616 16.4616 0.781616C16.8862 0.781616 17.2308 1.12623 17.2308 1.55084V3.85851C17.2308 4.28312 16.8862 4.62773 16.4616 4.62773Z" fill="#BBBBBB"/>
<path d="M16.4623 2.32036C16.0377 2.32036 15.6931 1.97575 15.6931 1.55114V1.55037C15.2684 1.55037 14.9238 1.20653 14.9238 0.781534C14.9238 0.356923 15.2684 0.0126953 15.6931 0.0126953C16.5415 0.0126953 17.2315 0.702689 17.2315 1.55114C17.2315 1.97575 16.8869 2.32036 16.4623 2.32036Z" fill="#BBBBBB"/>
<path d="M18.0004 5.39684C17.5757 5.39684 17.2311 5.05223 17.2311 4.62762V4.62685C16.8065 4.62685 16.4619 4.28301 16.4619 3.85801C16.4619 3.4334 16.8065 3.08917 17.2311 3.08917C18.0796 3.08917 18.7696 3.77917 18.7696 4.62762C18.7696 5.05223 18.425 5.39684 18.0004 5.39684Z" fill="#BBBBBB"/>
<path d="M2.61626 16.9356C1.34358 16.9356 0.308594 15.9006 0.308594 14.6279C0.308594 14.2033 0.653206 13.8587 1.07782 13.8587C1.50243 13.8587 1.84704 14.2033 1.84704 14.6279C1.84704 15.0522 2.19204 15.3972 2.61626 15.3972C3.04087 15.3972 3.38549 15.7418 3.38549 16.1664C3.38549 16.591 3.04087 16.9356 2.61626 16.9356Z" fill="#BBBBBB"/>
<path d="M1.07782 15.397C0.653206 15.397 0.308594 15.0524 0.308594 14.6278V2.32019C0.308594 1.89558 0.653206 1.55096 1.07782 1.55096C1.50243 1.55096 1.84704 1.89558 1.84704 2.32019V14.6278C1.84704 15.0524 1.50243 15.397 1.07782 15.397Z" fill="#BBBBBB"/>
<path d="M2.61626 4.62816C1.34358 4.62816 0.308594 3.59317 0.308594 2.32049C0.308594 1.04781 1.34358 0.0128174 2.61626 0.0128174C3.04087 0.0128174 3.38549 0.357429 3.38549 0.782041C3.38549 1.20665 3.04087 1.55126 2.61626 1.55126C2.19934 1.55126 1.84704 1.90357 1.84704 2.32049C1.84704 2.73741 2.19934 3.08971 2.61626 3.08971C3.04087 3.08971 3.38549 3.43432 3.38549 3.85893C3.38549 4.28354 3.04087 4.62816 2.61626 4.62816Z" fill="#BBBBBB"/>
</svg>
