<svg width="24" height="21" viewBox="0 0 24 21" fill="none" xmlns="http://www.w3.org/2000/svg">
<path d="M23.2451 10.1451H22.5085V6.54162C22.5085 6.14379 22.1784 5.82092 21.7718 5.82092H21.0351V3.65882C21.0351 3.261 20.7051 2.93812 20.2984 2.93812H17.807L16.537 0.45315C16.3543 0.0956833 15.9123 -0.0470154 15.5484 0.130277L13.8511 0.961964L13.5903 0.45315C13.4076 0.0971247 12.9656 -0.0470153 12.6017 0.131718L6.86443 2.93812H2.61823C1.39977 2.93812 0.408203 3.90818 0.408203 5.10022V18.0728C0.408203 19.2648 1.39977 20.2349 2.61823 20.2349H21.7718C22.1784 20.2349 22.5085 19.912 22.5085 19.5142V15.9107H23.2451C23.6518 15.9107 23.9818 15.5878 23.9818 15.19V10.8658C23.9818 10.468 23.6518 10.1451 23.2451 10.1451ZM19.5618 4.37952V5.82092H19.2804L18.5437 4.37952H19.5618ZM15.5484 1.7432L17.6331 5.82092H16.3337L14.5096 2.25057L15.5484 1.7432ZM12.6017 1.7432L14.6864 5.82092H4.26544L12.6017 1.7432ZM2.61823 4.37952H3.91772L1.94049 5.3467C1.91102 5.26742 1.88155 5.1867 1.88155 5.10022C1.88155 4.70239 2.21158 4.37952 2.61823 4.37952ZM21.0351 18.7935H2.61823C2.21158 18.7935 1.88155 18.4706 1.88155 18.0728V7.12394C2.12318 7.20899 2.37071 7.26232 2.61823 7.26232H21.0351V10.1451H18.0884C16.4633 10.1451 15.1417 11.4381 15.1417 13.0279C15.1417 14.6178 16.4633 15.9107 18.0884 15.9107H21.0351V18.7935ZM22.5085 14.4693H18.0884C17.2766 14.4693 16.6151 13.8221 16.6151 13.0279C16.6151 12.2337 17.2766 11.5865 18.0884 11.5865H22.5085V14.4693Z" fill="white"/>
</svg>
