<svg width="19" height="22" viewBox="0 0 19 22" fill="none" xmlns="http://www.w3.org/2000/svg">
<path d="M4.70444 4.94475H2.29287C1.84914 4.94475 1.48901 4.58462 1.48901 4.14089C1.48901 3.69716 1.84914 3.33704 2.29287 3.33704H4.70444C5.14817 3.33704 5.5083 3.69716 5.5083 4.14089C5.5083 4.58462 5.14857 4.94475 4.70444 4.94475Z" fill="#66788A"/>
<path d="M14.2172 20.218C13.7735 20.218 13.4133 19.8579 13.4133 19.4142V17.0026C13.4133 16.5589 13.7735 16.1987 14.2172 16.1987C14.6609 16.1987 15.021 16.5589 15.021 17.0026V19.4142C15.021 19.8579 14.6609 20.218 14.2172 20.218Z" fill="#66788A"/>
<path d="M1.48851 5.74861C1.04478 5.74861 0.685059 5.38848 0.685059 4.94475C0.685059 4.0581 1.40612 3.33704 2.29277 3.33704C2.7365 3.33704 3.09663 3.69716 3.09663 4.14089C3.09663 4.58462 2.7365 4.94475 2.29277 4.94475H2.29197C2.29197 5.38848 1.93264 5.74861 1.48851 5.74861Z" fill="#66788A"/>
<path d="M1.48892 20.218C1.04519 20.218 0.685059 19.8579 0.685059 19.4141V4.94473C0.685059 4.501 1.04519 4.14087 1.48892 4.14087C1.93264 4.14087 2.29277 4.501 2.29277 4.94473V19.4141C2.29277 19.8579 1.93305 20.218 1.48892 20.218Z" fill="#66788A"/>
<path d="M13.4132 21.0219C12.9695 21.0219 12.6094 20.6617 12.6094 20.218C12.6094 19.7743 12.9695 19.4141 13.4132 19.4141H13.414C13.414 18.9704 13.7738 18.6103 14.2175 18.6103C14.6612 18.6103 15.0209 18.9704 15.0209 19.4141C15.0209 20.3008 14.2999 21.0219 13.4132 21.0219Z" fill="#66788A"/>
<path d="M13.4134 21.0218H2.29287C1.84914 21.0218 1.48901 20.6617 1.48901 20.218C1.48901 19.7743 1.84914 19.4141 2.29287 19.4141H13.4134C13.8572 19.4141 14.2173 19.7743 14.2173 20.218C14.2173 20.6617 13.8572 21.0218 13.4134 21.0218Z" fill="#66788A"/>
<path d="M2.29277 21.0219C1.40612 21.0219 0.685059 20.3008 0.685059 19.4141C0.685059 18.9704 1.04519 18.6103 1.48892 18.6103C1.93264 18.6103 2.29277 18.9704 2.29277 19.4141V19.415C2.7365 19.415 3.09663 19.7747 3.09663 20.2184C3.09663 20.6621 2.7369 21.0219 2.29277 21.0219Z" fill="#66788A"/>
<path d="M4.70385 2.53315C4.26012 2.53315 3.90039 2.17302 3.90039 1.7293C3.90039 0.842641 4.62145 0.121582 5.5081 0.121582C5.95183 0.121582 6.31196 0.48171 6.31196 0.925439C6.31196 1.36917 5.95183 1.7293 5.5081 1.7293H5.5073C5.5073 2.17302 5.14798 2.53315 4.70385 2.53315Z" fill="#66788A"/>
<path d="M4.70425 17.0025C4.26052 17.0025 3.90039 16.6424 3.90039 16.1987V1.72927C3.90039 1.28554 4.26052 0.925415 4.70425 0.925415C5.14798 0.925415 5.5081 1.28554 5.5081 1.72927V16.1987C5.5081 16.6424 5.14838 17.0025 4.70425 17.0025Z" fill="#66788A"/>
<path d="M14.0829 1.7293H5.5082C5.06447 1.7293 4.70435 1.36917 4.70435 0.925439C4.70435 0.48171 5.06447 0.121582 5.5082 0.121582H14.0829C14.5267 0.121582 14.8868 0.48171 14.8868 0.925439C14.8868 1.36917 14.5267 1.7293 14.0829 1.7293Z" fill="#66788A"/>
<path d="M16.6288 17.8064C16.1851 17.8064 15.825 17.4463 15.825 17.0025C15.825 16.5588 16.1851 16.1987 16.6288 16.1987H16.6296C16.6296 15.755 16.9893 15.3948 17.4331 15.3948C17.8768 15.3948 18.2365 15.755 18.2365 16.1987C18.2365 17.0853 17.5155 17.8064 16.6288 17.8064Z" fill="#66788A"/>
<path d="M17.4325 17.0025C16.9888 17.0025 16.6287 16.6424 16.6287 16.1987V4.27468C16.6287 3.83095 16.9888 3.47083 17.4325 3.47083C17.8762 3.47083 18.2364 3.83095 18.2364 4.27468V16.1987C18.2364 16.6424 17.8762 17.0025 17.4325 17.0025Z" fill="#66788A"/>
<path d="M16.6288 17.8064H5.5082C5.06447 17.8064 4.70435 17.4463 4.70435 17.0026C4.70435 16.5589 5.06447 16.1987 5.5082 16.1987H16.6288C17.0725 16.1987 17.4326 16.5589 17.4326 17.0026C17.4326 17.4463 17.0725 17.8064 16.6288 17.8064Z" fill="#66788A"/>
<path d="M5.5081 17.8064C4.62145 17.8064 3.90039 17.0853 3.90039 16.1987C3.90039 15.755 4.26052 15.3948 4.70425 15.3948C5.14798 15.3948 5.5081 15.755 5.5081 16.1987V16.1995C5.95183 16.1995 6.31196 16.5592 6.31196 17.003C6.31196 17.4467 5.95223 17.8064 5.5081 17.8064Z" fill="#66788A"/>
<path d="M17.4325 5.07859C17.2267 5.07859 17.0213 5.00021 16.8642 4.84306L13.5145 1.49379C13.2006 1.17988 13.2006 0.67104 13.5145 0.357134C13.828 0.0432276 14.3372 0.0432276 14.6511 0.357134L18.0008 3.7064C18.3147 4.02031 18.3147 4.52915 18.0008 4.84306C17.8441 5.00021 17.6383 5.07859 17.4325 5.07859Z" fill="#66788A"/>
<path d="M14.0829 4.40895C13.6392 4.40895 13.2791 4.04882 13.2791 3.60509V0.925439C13.2791 0.48171 13.6392 0.121582 14.0829 0.121582C14.5266 0.121582 14.8868 0.48171 14.8868 0.925439V3.60509C14.8868 4.04882 14.5266 4.40895 14.0829 4.40895Z" fill="#66788A"/>
<path d="M17.4326 5.07854H14.7526C14.3089 5.07854 13.9487 4.71841 13.9487 4.27468C13.9487 3.83095 14.3089 3.47083 14.7526 3.47083H17.4326C17.8764 3.47083 18.2365 3.83095 18.2365 4.27468C18.2365 4.71841 17.8764 5.07854 17.4326 5.07854Z" fill="#66788A"/>
<path d="M14.7525 5.0786C13.9402 5.0786 13.2791 4.41742 13.2791 3.60513C13.2791 3.1614 13.6392 2.80127 14.0829 2.80127C14.4844 2.80127 14.8172 3.09548 14.8771 3.48013C15.2622 3.54001 15.5564 3.87321 15.5564 4.27474C15.5564 4.71887 15.1967 5.0786 14.7525 5.0786Z" fill="#66788A"/>
</svg>
