<svg width="20" height="23" viewBox="0 0 20 23" fill="none" xmlns="http://www.w3.org/2000/svg">
<path fill-rule="evenodd" clip-rule="evenodd" d="M20 2.15723V20.8447C20 21.4437 19.7917 21.9528 19.375 22.3721C18.9583 22.7913 18.4524 23.001 17.8571 23.001H2.14286C1.54762 23.001 1.04167 22.7913 0.625 22.3721C0.208334 21.9528 0 21.4437 0 20.8447V2.15723C0 1.55827 0.208334 1.04915 0.625 0.629883C1.04167 0.210612 1.54762 0.000976562 2.14286 0.000976562H17.8571C18.4524 0.000976562 18.9583 0.210612 19.375 0.629883C19.7917 1.04915 20 1.55827 20 2.15723ZM12 18.501C12 18.9072 11.8516 19.2588 11.5547 19.5557C11.2578 19.8525 10.9062 20.001 10.5 20.001C10.0938 20.001 9.74219 19.8525 9.44531 19.5557C9.14844 19.2588 9 18.8916 9 18.4541C9 18.0166 9.14062 17.665 9.42188 17.3994C9.70312 17.1338 10.0547 17.001 10.4766 17.001C10.8984 17.001 11.2578 17.1494 11.5547 17.4463C11.8516 17.7432 12 18.0947 12 18.501ZM18 2.27502V20.7269C18 20.7878 17.9697 20.8487 17.9091 20.9096C17.8485 20.9705 17.7879 21.001 17.7273 21.001H2.27273C2.21212 21.001 2.15152 20.9705 2.09091 20.9096C2.0303 20.8487 2 20.7878 2 20.7269V2.27502C2 2.21412 2.0303 2.15322 2.09091 2.09232C2.15152 2.03143 2.21212 2.00098 2.27273 2.00098H17.7273C17.7879 2.00098 17.8485 2.03143 17.9091 2.09232C17.9697 2.15322 18 2.21412 18 2.27502Z" fill="#A6B1BB"/>
</svg>
