<svg width="16" height="18" viewBox="0 0 16 18" fill="none" xmlns="http://www.w3.org/2000/svg">
<path d="M7.85229 17.0899C6.4069 17.0899 4.95791 16.6797 3.70059 15.8479C0.944559 14.0254 -0.310471 10.5419 0.648546 7.37639C0.753214 7.03066 1.11857 6.83506 1.4643 6.94006C1.81003 7.04473 2.0053 7.41008 1.90063 7.75581C1.1081 10.3718 2.14529 13.2505 4.42214 14.7564C6.72254 16.2777 9.79748 16.0916 11.901 14.3041C13.9776 12.5391 14.6619 9.45699 13.5279 6.97571C12.3304 4.3551 9.41479 2.87797 6.59596 3.46346C5.40961 3.70975 4.28705 4.31912 3.43532 5.18001C3.18118 5.43677 2.76708 5.43906 2.51032 5.18491C2.25356 4.93077 2.25127 4.51668 2.50541 4.25991C3.53639 3.21814 4.89478 2.48056 6.33004 2.18259C9.7422 1.47575 13.2692 3.26132 14.7182 6.43209C16.1125 9.48315 15.3027 13.1305 12.7488 15.3014C11.3534 16.4864 9.60515 17.0899 7.85229 17.0899Z" fill="#66788A"/>
<path d="M2.97053 5.37427C2.91459 5.37427 2.85735 5.36708 2.80077 5.3517C2.45177 5.25816 2.24472 4.89967 2.33827 4.55067L3.40326 0.575264C3.49681 0.226263 3.85529 0.0179093 4.2043 0.112764C4.5533 0.206311 4.76034 0.564797 4.6668 0.913798L3.6018 4.8892C3.52363 5.18129 3.25934 5.37427 2.97053 5.37427Z" fill="#66788A"/>
<path d="M6.94593 6.43995C6.88967 6.43995 6.83276 6.43275 6.77617 6.41738L2.80077 5.35173C2.45177 5.25818 2.24472 4.8997 2.33827 4.5507C2.43181 4.2017 2.79226 3.99432 3.1393 4.0882L7.11471 5.15384C7.46371 5.24739 7.67076 5.60588 7.57721 5.95488C7.49903 6.24697 7.23475 6.43995 6.94593 6.43995Z" fill="#66788A"/>
</svg>
