<svg width="22" height="15" viewBox="0 0 22 15" fill="none" xmlns="http://www.w3.org/2000/svg">
<path d="M7.30289 11.5724H2.43659C1.99075 11.5724 1.62891 11.2106 1.62891 10.7647C1.62891 10.3189 1.99075 9.95703 2.43659 9.95703H7.30289C7.74873 9.95703 8.11058 10.3189 8.11058 10.7647C8.11058 11.2106 7.74914 11.5724 7.30289 11.5724Z" fill="#BBBBBB"/>
<path d="M7.30276 8.34187H4.05183C3.60598 8.34187 3.24414 7.98003 3.24414 7.53419C3.24414 7.08834 3.60598 6.7265 4.05183 6.7265H7.30276C7.7486 6.7265 8.11044 7.08834 8.11044 7.53419C8.11044 7.98003 7.749 8.34187 7.30276 8.34187Z" fill="#BBBBBB"/>
<path d="M19.3981 14.8034H0.821357C0.375515 14.8034 0.0136719 14.4416 0.0136719 13.9958C0.0136719 13.5499 0.375515 13.1881 0.821357 13.1881H19.3981C19.8439 13.1881 20.2058 13.5499 20.2058 13.9958C20.2058 14.4416 19.8444 14.8034 19.3981 14.8034Z" fill="#BBBBBB"/>
<path d="M4.05183 5.91892C3.60598 5.91892 3.24414 5.55708 3.24414 5.11124V1.8805C3.24414 1.43466 3.60598 1.07281 4.05183 1.07281C4.49767 1.07281 4.85951 1.43466 4.85951 1.8805V5.11124C4.85951 5.55708 4.49807 5.91892 4.05183 5.91892Z" fill="#BBBBBB"/>
<path d="M12.1291 8.51327C11.5112 8.51327 10.8929 8.30973 10.3776 7.90266C10.0275 7.62643 9.96771 7.1184 10.2439 6.76827C10.5202 6.41854 11.0282 6.35837 11.3783 6.6346C11.8201 6.98311 12.438 6.98311 12.8798 6.6346C13.2308 6.35837 13.7384 6.41814 14.0142 6.76827C14.2908 7.1184 14.2307 7.62643 13.8805 7.90266C13.3652 8.30973 12.747 8.51327 12.1291 8.51327Z" fill="#BBBBBB"/>
<path d="M13.3806 8.07703C13.142 8.07703 12.9057 7.97163 12.7462 7.76971C12.4696 7.41958 12.5293 6.91154 12.8799 6.63532L19.7052 1.24644C20.0553 0.970216 20.5634 1.02998 20.8396 1.38012C21.1162 1.73025 21.0565 2.23828 20.7059 2.51451L13.8806 7.90338C13.7324 8.02009 13.5555 8.07703 13.3806 8.07703Z" fill="#BBBBBB"/>
<path d="M10.8771 8.07674C10.7019 8.07674 10.5254 8.0198 10.3772 7.90309L3.55144 2.51421C3.20131 2.23758 3.14154 1.72995 3.41777 1.37982C3.6944 1.03009 4.20203 0.970324 4.55216 1.24615L11.3779 6.63502C11.728 6.91165 11.7878 7.41928 11.5116 7.76941C11.3521 7.97133 11.1158 8.07674 10.8771 8.07674Z" fill="#BBBBBB"/>
<path d="M4.05142 2.68798C3.60558 2.68798 3.24414 2.32613 3.24414 1.88029C3.24414 0.989416 3.96863 0.264923 4.85951 0.264923C5.30535 0.264923 5.66719 0.626766 5.66719 1.07261C5.66719 1.51845 5.30535 1.88029 4.85951 1.88029H4.8587C4.8587 2.32613 4.49767 2.68798 4.05142 2.68798Z" fill="#BBBBBB"/>
<path d="M19.3978 1.88029H4.85944C4.4136 1.88029 4.05176 1.51845 4.05176 1.07261C4.05176 0.626766 4.4136 0.264923 4.85944 0.264923H19.3978C19.8436 0.264923 20.2055 0.626766 20.2055 1.07261C20.2055 1.51845 19.844 1.88029 19.3978 1.88029Z" fill="#BBBBBB"/>
<path d="M20.2061 13.9958C19.7603 13.9958 19.3984 13.6339 19.3984 13.1881V1.8805C19.3984 1.43466 19.7603 1.07281 20.2061 1.07281C20.652 1.07281 21.0138 1.43466 21.0138 1.8805V13.1881C21.0138 13.6339 20.6524 13.9958 20.2061 13.9958Z" fill="#BBBBBB"/>
<path d="M20.2062 2.68798C19.7603 2.68798 19.3985 2.32613 19.3985 1.88029V1.87948C18.9527 1.87948 18.5908 1.51845 18.5908 1.0722C18.5908 0.626362 18.9527 0.264923 19.3985 0.264923C20.2894 0.264923 21.0139 0.989416 21.0139 1.88029C21.0139 2.32613 20.6524 2.68798 20.2062 2.68798Z" fill="#BBBBBB"/>
<path d="M19.3985 14.8032C18.9527 14.8032 18.5908 14.4414 18.5908 13.9956C18.5908 13.5497 18.9527 13.1879 19.3985 13.1879H19.3993C19.3993 12.742 19.7603 12.3802 20.2066 12.3802C20.6524 12.3802 21.0139 12.742 21.0139 13.1879C21.0139 14.0787 20.2894 14.8032 19.3985 14.8032Z" fill="#BBBBBB"/>
</svg>
