<svg width="17" height="18" viewBox="0 0 17 18" fill="none" xmlns="http://www.w3.org/2000/svg">
<path d="M12.3478 13.5159C12.1851 13.5159 12.0227 13.4539 11.8984 13.3297L10.2838 11.7151C10.0356 11.4669 10.0356 11.0645 10.2838 10.8163C10.532 10.5681 10.9344 10.5681 11.1826 10.8163L12.7972 12.4309C13.0454 12.6791 13.0454 13.0814 12.7972 13.3297C12.6729 13.4539 12.5102 13.5159 12.3478 13.5159Z" fill="#CBCBCB"/>
<path d="M14.5953 17.1118C14.4326 17.1118 14.2702 17.0499 14.1459 16.9256L11.8986 14.6782C11.6503 14.43 11.6503 14.0277 11.8986 13.7794C12.1468 13.5312 12.5492 13.5312 12.7974 13.7794L15.0447 16.0268C15.293 16.275 15.293 16.6774 15.0447 16.9256C14.9205 17.0496 14.7581 17.1118 14.5953 17.1118Z" fill="#CBCBCB"/>
<path d="M15.9435 15.7633C15.7807 15.7633 15.6183 15.7014 15.4941 15.5771L13.2467 13.3297C12.9985 13.0815 12.9985 12.6791 13.2467 12.4309C13.4949 12.1827 13.8973 12.1827 14.1455 12.4309L16.3929 14.6783C16.6411 14.9265 16.6411 15.3289 16.3929 15.5771C16.2689 15.7014 16.1062 15.7633 15.9435 15.7633Z" fill="#CBCBCB"/>
<path d="M12.3482 14.8641C12.1855 14.8641 12.0231 14.8022 11.8992 14.6782C11.4927 14.272 11.3411 13.7336 11.4834 13.2013C11.6357 12.633 12.101 12.168 12.6689 12.0158C13.201 11.8731 13.7397 12.0244 14.1459 12.4312C14.3938 12.6797 14.3938 13.0821 14.1452 13.3303C13.8977 13.5782 13.4947 13.5785 13.2464 13.33C13.1403 13.2238 13.0608 13.2267 12.9976 13.2442C12.8692 13.2785 12.7459 13.4018 12.7115 13.5305C12.6944 13.5941 12.6915 13.6736 12.7973 13.7794C13.0459 14.0276 13.0459 14.43 12.798 14.6785C12.6737 14.8022 12.5107 14.8641 12.3482 14.8641Z" fill="#CBCBCB"/>
<path d="M6.65006 13.5726C6.64975 13.5726 6.65006 13.5726 6.65006 13.5726C6.0802 13.5726 5.51447 13.4947 4.96844 13.3415C1.83498 12.4627 -0.154934 9.26345 0.437814 6.05785C0.985748 3.09729 3.68092 0.864868 6.70791 0.864868C6.89702 0.864868 7.08835 0.873767 7.27682 0.89093C10.511 1.18842 13.0447 3.96845 13.0447 7.22078C13.0447 7.99786 12.9059 8.75715 12.6319 9.47798C11.7016 11.9268 9.29756 13.5726 6.65006 13.5726ZM6.70791 2.13618C4.28416 2.13618 2.12611 3.92141 1.68815 6.28891C1.21363 8.85409 2.80531 11.4142 5.31169 12.1172C5.74616 12.2389 6.19621 12.3009 6.64975 12.3009H6.65006C8.77347 12.3009 10.6995 10.9848 11.4435 9.02603C11.6625 8.45013 11.7734 7.84276 11.7734 7.22046C11.7734 4.61873 9.74729 2.39457 7.16049 2.15684C7.01048 2.14317 6.85824 2.13618 6.70791 2.13618Z" fill="#CBCBCB"/>
<path d="M15.2294 17.3931C14.8325 17.3931 14.4514 17.2316 14.1453 16.9253C13.8974 16.6767 13.8974 16.2743 14.146 16.0261C14.3935 15.7779 14.7965 15.7782 15.0448 16.0264C15.1506 16.1323 15.2294 16.1291 15.2936 16.1123C15.422 16.0779 15.5454 15.9546 15.5797 15.8259C15.5968 15.7623 15.5997 15.6829 15.4939 15.577C15.2453 15.3288 15.2453 14.9264 15.4932 14.6779C15.7415 14.4297 16.1445 14.4294 16.392 14.6776C16.7985 15.0838 16.9501 15.6222 16.8078 16.1545C16.6555 16.7228 16.1902 17.1878 15.6223 17.34C15.491 17.3759 15.3594 17.3931 15.2294 17.3931Z" fill="#CBCBCB"/>
</svg>
