<svg width="8" height="10" viewBox="0 0 8 10" fill="none" xmlns="http://www.w3.org/2000/svg">
<path d="M2.41256 6.94986L2.41256 9.40157C2.41256 9.60303 2.24906 9.76654 2.04759 9.76654C1.84613 9.76654 1.68262 9.60303 1.68262 9.40157L1.68262 6.94986C1.68262 6.74839 1.84613 6.58489 2.04759 6.58489C2.24906 6.58489 2.41256 6.74839 2.41256 6.94986Z" fill="#66788A"/>
<path d="M2.41256 1.11397L2.41256 6.73516C2.41256 7.19707 2.24906 7.57196 2.04759 7.57196C1.84613 7.57196 1.68262 7.19707 1.68262 6.73516L1.68262 1.11397C1.68262 0.65206 1.84612 0.277174 2.04759 0.277174C2.24906 0.277174 2.41256 0.65206 2.41256 1.11397Z" fill="#66788A"/>
<path d="M3.8246 2.05426C3.8246 2.14769 3.78902 2.24095 3.71766 2.3123C3.57514 2.45482 3.34411 2.45482 3.20159 2.3123L1.78951 0.900216C1.64699 0.757694 1.64699 0.526665 1.78951 0.384143C1.93203 0.241621 2.16306 0.241621 2.30558 0.384143L3.71766 1.79623C3.78902 1.86758 3.8246 1.96101 3.8246 2.05426Z" fill="#66788A"/>
<path d="M2.41267 0.64218C2.41267 0.735613 2.37709 0.828864 2.30574 0.900216L0.893472 2.3123C0.75095 2.45482 0.519739 2.45482 0.377399 2.3123C0.234877 2.16978 0.234877 1.93875 0.377399 1.79623L1.78966 0.384143C1.93219 0.241621 2.16321 0.241621 2.30574 0.384143C2.37691 0.455495 2.41267 0.548746 2.41267 0.64218Z" fill="#66788A"/>
<path d="M5.53868 9.40158C5.53868 9.30815 5.57427 9.2149 5.64562 9.14355L7.0577 7.73146C7.20022 7.58894 7.43125 7.58894 7.57377 7.73146C7.71629 7.87399 7.71629 8.10501 7.57377 8.24754L6.16169 9.65962C6.01917 9.80214 5.78814 9.80214 5.64562 9.65962C5.57427 9.58827 5.53868 9.49502 5.53868 9.40158Z" fill="#66788A"/>
<path d="M4.12639 7.9895C4.12639 7.89607 4.16197 7.80282 4.23333 7.73146C4.37567 7.58894 4.60688 7.58894 4.7494 7.73146L6.16166 9.14355C6.30419 9.28607 6.30419 9.5171 6.16166 9.65962C6.01914 9.80214 5.78811 9.80214 5.64559 9.65962L4.23333 8.24754C4.16216 8.17618 4.12639 8.08275 4.12639 7.9895Z" fill="#66788A"/>
<path d="M5.53861 8.86924L5.53861 2.84222C5.53861 2.34696 5.70212 1.94501 5.90358 1.94501C6.10505 1.94501 6.26855 2.34696 6.26855 2.84222L6.26855 8.86924C6.26855 9.3645 6.10505 9.76645 5.90358 9.76645C5.70212 9.76645 5.53861 9.3645 5.53861 8.86924Z" fill="#66788A"/>
<path d="M5.53861 3.0939L5.53861 0.642195C5.53861 0.44073 5.70212 0.277222 5.90358 0.277222C6.10505 0.277222 6.26855 0.44073 6.26855 0.642195L6.26855 3.0939C6.26855 3.29537 6.10505 3.45888 5.90358 3.45888C5.70212 3.45888 5.53861 3.29537 5.53861 3.0939Z" fill="#66788A"/>
</svg>
