<svg width="21" height="21" viewBox="0 0 21 21" fill="none" xmlns="http://www.w3.org/2000/svg">
<path d="M1.13381 9.91533C0.9787 9.91533 0.821666 9.86837 0.686571 9.77022C0.141186 9.37418 -0.0747352 8.69754 0.136568 8.0467C0.348255 7.39547 0.920582 6.97479 1.5949 6.97479C2.01982 6.97479 2.36468 7.31965 2.36468 7.74457C2.36468 8.16948 2.01982 8.51434 1.5949 8.51434H1.59105C1.93514 8.76413 2.01173 9.25063 1.76156 9.59472C1.61068 9.80332 1.37321 9.91533 1.13381 9.91533Z" fill="#BBBBBB"/>
<path d="M4.84095 20.0125C4.52342 20.0125 4.20511 19.9109 3.92646 19.7084C3.38107 19.312 3.15245 18.6211 3.35759 17.9899C3.48961 17.5862 3.92261 17.3645 4.32789 17.4957C4.73241 17.627 4.95333 18.0615 4.82209 18.4656L4.82093 18.4691C5.16579 18.2189 5.65152 18.2971 5.90131 18.6412C6.1511 18.9852 6.07951 19.4675 5.73542 19.7173C5.46446 19.914 5.15348 20.0125 4.84095 20.0125Z" fill="#BBBBBB"/>
<path d="M15.2725 20.0123C14.9596 20.0123 14.649 19.9141 14.3784 19.717C14.0344 19.4669 13.9589 18.9854 14.2091 18.6417C14.4593 18.2976 14.9404 18.2221 15.2845 18.4723L15.2875 18.4742C15.1563 18.0701 15.3803 17.6313 15.7848 17.5001C16.1909 17.3692 16.6262 17.5863 16.757 17.9904C16.9653 18.632 16.742 19.3064 16.1882 19.7082C15.9087 19.9106 15.5901 20.0123 15.2725 20.0123Z" fill="#BBBBBB"/>
<path d="M18.9751 9.91687C18.7369 9.91687 18.5021 9.80679 18.3516 9.59933C18.1018 9.25525 18.1784 8.77375 18.5221 8.52435L18.5252 8.52204C18.1003 8.52204 17.752 8.17371 17.752 7.74841C17.752 7.3235 18.0933 6.97479 18.5183 6.97479C19.193 6.97479 19.7653 7.39547 19.9766 8.0467C20.1879 8.69754 19.972 9.37418 19.4262 9.77061C19.29 9.86914 19.1318 9.91687 18.9751 9.91687Z" fill="#BBBBBB"/>
<path d="M10.7945 2.90228C10.4696 2.90228 10.1683 2.69559 10.0624 2.37036L10.0613 2.36651C9.92925 2.77064 9.49086 2.99465 9.08558 2.86186C8.68145 2.73023 8.45552 2.298 8.58754 1.89349C8.79653 1.25265 9.37347 0.838898 10.057 0.838898H10.0578C10.7417 0.839283 11.3179 1.25342 11.5265 1.89464C11.6578 2.29877 11.4369 2.73331 11.0323 2.86456C10.9534 2.88996 10.873 2.90228 10.7945 2.90228Z" fill="#BBBBBB"/>
<path d="M7.49567 8.51414H1.59497C1.17005 8.51414 0.825195 8.16928 0.825195 7.74437C0.825195 7.31945 1.17005 6.97459 1.59497 6.97459H6.93643L8.58682 1.89447C8.71807 1.49073 9.15183 1.26942 9.55712 1.40028C9.96163 1.53153 10.1826 1.96606 10.0513 2.37058L8.22811 7.98261C8.12457 8.29937 7.82898 8.51414 7.49567 8.51414Z" fill="#BBBBBB"/>
<path d="M4.08973 18.9973C4.01121 18.9973 3.93077 18.9849 3.85187 18.9595C3.44735 18.8279 3.22642 18.3938 3.35767 17.9892L5.00806 12.9095L0.686558 9.7696C0.342469 9.51981 0.266262 9.03832 0.516438 8.69423C0.765845 8.35053 1.24695 8.27393 1.59181 8.52411L6.36556 11.9931C6.63537 12.189 6.74814 12.5366 6.64537 12.8537L4.82216 18.4653C4.71632 18.7906 4.41457 18.9973 4.08973 18.9973Z" fill="#BBBBBB"/>
<path d="M14.8306 19.8642C14.6739 19.8642 14.5157 19.8165 14.3787 19.7172L10.0576 16.5773L5.73607 19.7172C5.39121 19.967 4.91048 19.8908 4.66069 19.5471C4.4109 19.203 4.48711 18.7215 4.83081 18.4717L9.60456 15.0031C9.87437 14.8072 10.2396 14.8072 10.5098 15.0031L15.2836 18.4717C15.6277 18.7215 15.7039 19.203 15.4537 19.5471C15.3036 19.7541 15.0692 19.8642 14.8306 19.8642Z" fill="#BBBBBB"/>
<path d="M16.0241 18.9975C15.6993 18.9975 15.3979 18.7908 15.2921 18.4656L13.4685 12.8539C13.3653 12.5368 13.4781 12.1892 13.7483 11.9933L18.522 8.52435C18.8669 8.27456 19.3476 8.35115 19.5974 8.69447C19.8472 9.03856 19.771 9.52005 19.4273 9.76985L15.1058 12.9098L16.7565 17.9895C16.8878 18.3936 16.6669 18.8282 16.2624 18.9594C16.1831 18.9856 16.1026 18.9975 16.0241 18.9975Z" fill="#BBBBBB"/>
<path d="M18.5182 8.51441H12.6175C12.2842 8.51441 11.9882 8.29965 11.8855 7.9825L10.0623 2.37047C9.93102 1.96595 10.1519 1.5318 10.5565 1.40017C10.9621 1.26969 11.3955 1.49023 11.5268 1.89436L13.1772 6.97448H18.5186C18.9435 6.97448 19.2884 7.31934 19.2884 7.74425C19.2884 8.16917 18.9435 8.51441 18.5182 8.51441Z" fill="#BBBBBB"/>
</svg>
