<svg width="20" height="20" viewBox="0 0 20 20" fill="none" xmlns="http://www.w3.org/2000/svg">
<path d="M1.07061 8.09401C0.667228 8.09401 0.339844 7.76662 0.339844 7.36324V1.51709C0.339844 1.1137 0.667228 0.786316 1.07061 0.786316C1.474 0.786316 1.80138 1.1137 1.80138 1.51709V7.36324C1.80138 7.76662 1.474 8.09401 1.07061 8.09401Z" fill="#BBBBBB"/>
<path d="M1.80138 8.82475C0.995344 8.82475 0.339844 8.16925 0.339844 7.36322C0.339844 6.95983 0.667228 6.63245 1.07061 6.63245C1.474 6.63245 1.80138 6.95983 1.80138 7.36322V7.36431C2.20477 7.36431 2.53215 7.69097 2.53215 8.09472C2.53215 8.49847 2.20477 8.82475 1.80138 8.82475Z" fill="#BBBBBB"/>
<path d="M7.64724 8.82494H1.80108C1.3977 8.82494 1.07031 8.49756 1.07031 8.09417C1.07031 7.69079 1.3977 7.3634 1.80108 7.3634H7.64724C8.05062 7.3634 8.378 7.69079 8.378 8.09417C8.378 8.49756 8.05062 8.82494 7.64724 8.82494Z" fill="#BBBBBB"/>
<path d="M7.64776 8.82475C7.24438 8.82475 6.91699 8.49737 6.91699 8.09398C6.91699 7.6906 7.24438 7.36322 7.64776 7.36322H7.64849C7.64849 6.95983 7.97515 6.63245 8.3789 6.63245C8.78265 6.63245 9.1093 6.95983 9.1093 7.36322C9.1093 8.16925 8.4538 8.82475 7.64776 8.82475Z" fill="#BBBBBB"/>
<path d="M8.37823 8.09401C7.97485 8.09401 7.64746 7.76662 7.64746 7.36324V1.51709C7.64746 1.1137 7.97485 0.786316 8.37823 0.786316C8.78161 0.786316 9.109 1.1137 9.109 1.51709V7.36324C9.109 7.76662 8.78161 8.09401 8.37823 8.09401Z" fill="#BBBBBB"/>
<path d="M7.64724 1.5172H1.80108C1.3977 1.5172 1.07031 1.18982 1.07031 0.786433C1.07031 0.383049 1.3977 0.0556641 1.80108 0.0556641H7.64724C8.05062 0.0556641 8.378 0.383049 8.378 0.786433C8.378 1.18982 8.05062 1.5172 7.64724 1.5172Z" fill="#BBBBBB"/>
<path d="M8.37853 2.24797C7.97515 2.24797 7.64776 1.92059 7.64776 1.5172V1.51647C7.24438 1.51647 6.91699 1.18945 6.91699 0.786068C6.91699 0.382683 7.24438 0.0556641 7.64776 0.0556641C8.4538 0.0556641 9.1093 0.711164 9.1093 1.5172C9.1093 1.92059 8.78192 2.24797 8.37853 2.24797Z" fill="#BBBBBB"/>
<path d="M1.07025 2.2484C0.666498 2.2484 0.339844 1.92101 0.339844 1.51763C0.339844 0.711591 0.995344 0.0560913 1.80138 0.0560913C2.20477 0.0560913 2.53215 0.383476 2.53215 0.786861C2.53215 1.19025 2.20477 1.51763 1.80138 1.51763H1.80065C1.80065 1.92101 1.47363 2.2484 1.07025 2.2484Z" fill="#BBBBBB"/>
<path d="M1.07061 18.325C0.667228 18.325 0.339844 17.9976 0.339844 17.5942V11.748C0.339844 11.3447 0.667228 11.0173 1.07061 11.0173C1.474 11.0173 1.80138 11.3447 1.80138 11.748V17.5942C1.80138 17.9976 1.474 18.325 1.07061 18.325Z" fill="#BBBBBB"/>
<path d="M1.07025 12.4786C0.666498 12.4786 0.339844 12.1512 0.339844 11.7479C0.339844 10.9418 0.995344 10.2863 1.80138 10.2863C2.20477 10.2863 2.53215 10.6137 2.53215 11.0171C2.53215 11.4205 2.20477 11.7479 1.80138 11.7479H1.80065C1.80065 12.1512 1.47363 12.4786 1.07025 12.4786Z" fill="#BBBBBB"/>
<path d="M7.64724 11.7479H1.80108C1.3977 11.7479 1.07031 11.4205 1.07031 11.0171C1.07031 10.6137 1.3977 10.2863 1.80108 10.2863H7.64724C8.05062 10.2863 8.378 10.6137 8.378 11.0171C8.378 11.4205 8.05062 11.7479 7.64724 11.7479Z" fill="#BBBBBB"/>
<path d="M8.37853 12.4786C7.97515 12.4786 7.64776 12.1512 7.64776 11.7479V11.7471C7.24438 11.7471 6.91699 11.4201 6.91699 11.0167C6.91699 10.6133 7.24438 10.2863 7.64776 10.2863C8.4538 10.2863 9.1093 10.9418 9.1093 11.7479C9.1093 12.1512 8.78192 12.4786 8.37853 12.4786Z" fill="#BBBBBB"/>
<path d="M8.37823 18.325C7.97485 18.325 7.64746 17.9976 7.64746 17.5942V11.748C7.64746 11.3447 7.97485 11.0173 8.37823 11.0173C8.78161 11.0173 9.109 11.3447 9.109 11.748V17.5942C9.109 17.9976 8.78161 18.325 8.37823 18.325Z" fill="#BBBBBB"/>
<path d="M7.64724 19.0555H1.80108C1.3977 19.0555 1.07031 18.7281 1.07031 18.3248C1.07031 17.9214 1.3977 17.594 1.80108 17.594H7.64724C8.05062 17.594 8.378 17.9214 8.378 18.3248C8.378 18.7281 8.05062 19.0555 7.64724 19.0555Z" fill="#BBBBBB"/>
<path d="M7.64776 19.0557C7.24438 19.0557 6.91699 18.7283 6.91699 18.3249C6.91699 17.9216 7.24438 17.5942 7.64776 17.5942H7.64849C7.64849 17.1908 7.97515 16.8634 8.3789 16.8634C8.78265 16.8634 9.1093 17.1908 9.1093 17.5942C9.1093 18.4002 8.4538 19.0557 7.64776 19.0557Z" fill="#BBBBBB"/>
<path d="M1.80138 19.0557C0.995344 19.0557 0.339844 18.4002 0.339844 17.5942C0.339844 17.1908 0.667228 16.8634 1.07061 16.8634C1.474 16.8634 1.80138 17.1908 1.80138 17.5942V17.5953C2.20477 17.5953 2.53215 17.9219 2.53215 18.3257C2.53215 18.7294 2.20477 19.0557 1.80138 19.0557Z" fill="#BBBBBB"/>
<path d="M18.6087 8.09401C18.2053 8.09401 17.8779 7.76662 17.8779 7.36324V1.51709C17.8779 1.1137 18.2053 0.786316 18.6087 0.786316C19.0121 0.786316 19.3395 1.1137 19.3395 1.51709V7.36324C19.3395 7.76662 19.0121 8.09401 18.6087 8.09401Z" fill="#BBBBBB"/>
<path d="M17.8782 8.82475C17.4748 8.82475 17.1475 8.49737 17.1475 8.09398C17.1475 7.6906 17.4748 7.36322 17.8782 7.36322H17.879C17.879 6.95983 18.2056 6.63245 18.6094 6.63245C19.0131 6.63245 19.3398 6.95983 19.3398 7.36322C19.3398 8.16925 18.6843 8.82475 17.8782 8.82475Z" fill="#BBBBBB"/>
<path d="M17.8787 8.82494H12.0325C11.6291 8.82494 11.3018 8.49756 11.3018 8.09417C11.3018 7.69079 11.6291 7.3634 12.0325 7.3634H17.8787C18.2821 7.3634 18.6094 7.69079 18.6094 8.09417C18.6094 8.49756 18.2821 8.82494 17.8787 8.82494Z" fill="#BBBBBB"/>
<path d="M12.0319 8.82475C11.2258 8.82475 10.5703 8.16925 10.5703 7.36322C10.5703 6.95983 10.8977 6.63245 11.3011 6.63245C11.7045 6.63245 12.0319 6.95983 12.0319 7.36322V7.36431C12.4352 7.36431 12.7626 7.69097 12.7626 8.09472C12.7626 8.49847 12.4352 8.82475 12.0319 8.82475Z" fill="#BBBBBB"/>
<path d="M11.3011 8.09401C10.8977 8.09401 10.5703 7.76662 10.5703 7.36324V1.51709C10.5703 1.1137 10.8977 0.786316 11.3011 0.786316C11.7045 0.786316 12.0319 1.1137 12.0319 1.51709V7.36324C12.0319 7.76662 11.7045 8.09401 11.3011 8.09401Z" fill="#BBBBBB"/>
<path d="M17.8787 1.5172H12.0325C11.6291 1.5172 11.3018 1.18982 11.3018 0.786433C11.3018 0.383049 11.6291 0.0556641 12.0325 0.0556641H17.8787C18.2821 0.0556641 18.6094 0.383049 18.6094 0.786433C18.6094 1.18982 18.2821 1.5172 17.8787 1.5172Z" fill="#BBBBBB"/>
<path d="M11.3007 2.24797C10.897 2.24797 10.5703 1.92059 10.5703 1.5172C10.5703 0.711164 11.2258 0.0556641 12.0319 0.0556641C12.4352 0.0556641 12.7626 0.383049 12.7626 0.786433C12.7626 1.18982 12.4352 1.5172 12.0319 1.5172H12.0311C12.0311 1.92059 11.7041 2.24797 11.3007 2.24797Z" fill="#BBBBBB"/>
<path d="M18.609 2.24797C18.2056 2.24797 17.8782 1.92059 17.8782 1.5172V1.51647C17.4748 1.51647 17.1475 1.18945 17.1475 0.786068C17.1475 0.382683 17.4748 0.0556641 17.8782 0.0556641C18.6843 0.0556641 19.3398 0.711164 19.3398 1.5172C19.3398 1.92059 19.0124 2.24797 18.609 2.24797Z" fill="#BBBBBB"/>
<path d="M18.6087 18.325C18.2053 18.325 17.8779 17.9976 17.8779 17.5942V11.748C17.8779 11.3447 18.2053 11.0173 18.6087 11.0173C19.0121 11.0173 19.3395 11.3447 19.3395 11.748V17.5942C19.3395 17.9976 19.0121 18.325 18.6087 18.325Z" fill="#BBBBBB"/>
<path d="M18.609 12.4786C18.2056 12.4786 17.8782 12.1512 17.8782 11.7479V11.7471C17.4748 11.7471 17.1475 11.4201 17.1475 11.0167C17.1475 10.6133 17.4748 10.2863 17.8782 10.2863C18.6843 10.2863 19.3398 10.9418 19.3398 11.7479C19.3398 12.1512 19.0124 12.4786 18.609 12.4786Z" fill="#BBBBBB"/>
<path d="M17.8787 11.7479H12.0325C11.6291 11.7479 11.3018 11.4205 11.3018 11.0171C11.3018 10.6137 11.6291 10.2863 12.0325 10.2863H17.8787C18.2821 10.2863 18.6094 10.6137 18.6094 11.0171C18.6094 11.4205 18.2821 11.7479 17.8787 11.7479Z" fill="#BBBBBB"/>
<path d="M11.3007 12.4786C10.897 12.4786 10.5703 12.1512 10.5703 11.7479C10.5703 10.9418 11.2258 10.2863 12.0319 10.2863C12.4352 10.2863 12.7626 10.6137 12.7626 11.0171C12.7626 11.4205 12.4352 11.7479 12.0319 11.7479H12.0311C12.0311 12.1512 11.7041 12.4786 11.3007 12.4786Z" fill="#BBBBBB"/>
<path d="M11.3011 18.325C10.8977 18.325 10.5703 17.9976 10.5703 17.5942V11.748C10.5703 11.3447 10.8977 11.0173 11.3011 11.0173C11.7045 11.0173 12.0319 11.3447 12.0319 11.748V17.5942C12.0319 17.9976 11.7045 18.325 11.3011 18.325Z" fill="#BBBBBB"/>
<path d="M17.8787 19.0555H12.0325C11.6291 19.0555 11.3018 18.7281 11.3018 18.3248C11.3018 17.9214 11.6291 17.594 12.0325 17.594H17.8787C18.2821 17.594 18.6094 17.9214 18.6094 18.3248C18.6094 18.7281 18.2821 19.0555 17.8787 19.0555Z" fill="#BBBBBB"/>
<path d="M12.0319 19.0557C11.2258 19.0557 10.5703 18.4002 10.5703 17.5942C10.5703 17.1908 10.8977 16.8634 11.3011 16.8634C11.7045 16.8634 12.0319 17.1908 12.0319 17.5942V17.5953C12.4352 17.5953 12.7626 17.9219 12.7626 18.3257C12.7626 18.7294 12.4352 19.0557 12.0319 19.0557Z" fill="#BBBBBB"/>
<path d="M17.8782 19.0557C17.4748 19.0557 17.1475 18.7283 17.1475 18.3249C17.1475 17.9216 17.4748 17.5942 17.8782 17.5942H17.879C17.879 17.1908 18.2056 16.8634 18.6094 16.8634C19.0131 16.8634 19.3398 17.1908 19.3398 17.5942C19.3398 18.4002 18.6843 19.0557 17.8782 19.0557Z" fill="#BBBBBB"/>
</svg>
