<svg width="21" height="21" viewBox="0 0 21 21" fill="none" xmlns="http://www.w3.org/2000/svg">
<path d="M13.4031 14.9747C13.206 14.9747 13.009 14.8997 12.8588 14.7492L6.32702 8.21735C6.02641 7.91674 6.02641 7.42945 6.32702 7.12884C6.62725 6.82823 7.1153 6.82823 7.41553 7.12884L13.9477 13.661C14.2483 13.9617 14.2483 14.4489 13.9477 14.7496C13.7972 14.8997 13.6002 14.9747 13.4031 14.9747Z" fill="#EC4C47"/>
<path d="M6.87127 14.9747C6.6742 14.9747 6.47713 14.8997 6.32702 14.7492C6.02641 14.4486 6.02641 13.9613 6.32702 13.6607L12.8592 7.12847C13.1595 6.82786 13.6475 6.82786 13.9477 7.12847C14.2483 7.42908 14.2483 7.91637 13.9477 8.21698L7.41553 14.7492C7.26542 14.8997 7.06796 14.9747 6.87127 14.9747Z" fill="#EC4C47"/>
<path d="M10.1118 20.9427C10.1114 20.9427 10.1114 20.9427 10.1118 20.9427C9.23615 20.9427 8.3682 20.8284 7.5318 20.6036C3.92756 19.6344 1.10506 16.6483 0.341405 12.9967C-0.436486 9.27663 0.999591 5.36601 3.99992 3.03387C5.73391 1.68555 7.92132 0.942688 10.1592 0.942688C11.7084 0.942688 13.2472 1.30296 14.609 1.98385C17.9719 3.66627 20.1447 7.18121 20.1447 10.939C20.1447 14.0052 18.6979 16.9605 16.2741 18.8442C14.534 20.1975 12.345 20.9427 10.1118 20.9427ZM10.1595 2.4823C8.26235 2.4823 6.41057 3.11008 4.94524 4.2494C2.40565 6.22319 1.19012 9.53298 1.84869 12.6815C2.49494 15.7703 4.8825 18.2965 7.93171 19.1167C8.63763 19.3068 9.37125 19.4031 10.1114 19.4031H10.1118C12.0048 19.4031 13.8577 18.773 15.3296 17.6287C17.3803 16.034 18.6051 13.5333 18.6051 10.939C18.6051 7.75895 16.7664 4.7848 13.9204 3.36104C12.7715 2.78638 11.4709 2.4823 10.1595 2.4823Z" fill="#EC4C47"/>
</svg>
