<svg width="22" height="22" viewBox="0 0 22 22" fill="none" xmlns="http://www.w3.org/2000/svg">
<path d="M5.05206 14.8686C4.76875 14.8686 4.49348 14.7183 4.3472 14.4523C4.05947 13.9299 3.8296 13.3753 3.66484 12.8042C3.54107 12.3779 3.78701 11.9322 4.21338 11.8088C4.64056 11.6843 5.08542 11.9314 5.20879 12.3578C5.341 12.8147 5.52465 13.2583 5.75532 13.6767C5.96951 14.0653 5.82805 14.5543 5.43905 14.7685C5.31608 14.8364 5.18307 14.8686 5.05206 14.8686Z" fill="#66788A"/>
<path d="M9.37692 18.325C9.30298 18.325 9.22783 18.3149 9.15308 18.2932C8.58204 18.1281 8.02747 17.8986 7.50506 17.6105C7.11606 17.3963 6.9746 16.9072 7.18879 16.5186C7.40298 16.1296 7.89245 15.9886 8.28065 16.2023C8.69898 16.433 9.14304 16.6167 9.59955 16.7489C10.0263 16.8722 10.2719 17.3179 10.1481 17.7443C10.0468 18.0963 9.72574 18.325 9.37692 18.325Z" fill="#66788A"/>
<path d="M4.43725 9.3667C4.3633 9.3667 4.28816 9.35666 4.21341 9.33496C3.78664 9.21158 3.5411 8.76592 3.66487 8.33955C3.82963 7.7685 4.0595 7.21434 4.34723 6.69152C4.56102 6.30252 5.05049 6.16106 5.43908 6.37525C5.82809 6.58945 5.96954 7.07851 5.75535 7.46711C5.52468 7.88585 5.34103 8.3295 5.20882 8.78601C5.10715 9.13804 4.78606 9.3667 4.43725 9.3667Z" fill="#66788A"/>
<path d="M7.89414 5.0415C7.61083 5.0415 7.33556 4.89121 7.18928 4.62517C6.97509 4.23658 7.11654 3.74751 7.50554 3.53332C8.02796 3.24559 8.58253 3.01572 9.15357 2.85056C9.58035 2.72638 10.0256 2.97313 10.149 3.3995C10.2728 3.82587 10.0268 4.27154 9.60044 4.39491C9.14353 4.52712 8.69987 4.71077 8.28154 4.94144C8.15817 5.00935 8.02515 5.0415 7.89414 5.0415Z" fill="#66788A"/>
<path d="M14.8776 5.04148C14.7466 5.04148 14.6135 5.00933 14.4906 4.94142C14.0722 4.71075 13.6282 4.5271 13.1717 4.39489C12.7449 4.27152 12.4994 3.82585 12.6231 3.39948C12.7461 2.97311 13.1901 2.72676 13.6185 2.85054C14.1896 3.0157 14.7441 3.24516 15.2666 3.5333C15.6556 3.74749 15.797 4.23655 15.5828 4.62515C15.4361 4.89118 15.1613 5.04148 14.8776 5.04148Z" fill="#66788A"/>
<path d="M18.3343 9.3667C17.9855 9.3667 17.6644 9.13804 17.5627 8.78601C17.4305 8.3291 17.2469 7.88544 17.0162 7.46711C16.802 7.07851 16.9434 6.58945 17.3324 6.37525C17.7206 6.16106 18.2105 6.30252 18.4243 6.69152C18.712 7.21394 18.9419 7.7685 19.1067 8.33955C19.2304 8.76592 18.9845 9.21158 18.5581 9.33496C18.4834 9.35666 18.4082 9.3667 18.3343 9.3667Z" fill="#66788A"/>
<path d="M17.7194 14.8686C17.5884 14.8686 17.4554 14.8364 17.3324 14.7685C16.9434 14.5543 16.802 14.0653 17.0162 13.6767C17.2469 13.2579 17.4305 12.8143 17.5627 12.3578C17.6857 11.9314 18.1305 11.6846 18.5581 11.8088C18.9849 11.9322 19.2304 12.3778 19.1067 12.8042C18.9419 13.3753 18.712 13.9294 18.4243 14.4522C18.2776 14.7183 18.0028 14.8686 17.7194 14.8686Z" fill="#66788A"/>
<path d="M13.3947 18.325C13.0459 18.325 12.7248 18.0963 12.6231 17.7443C12.4993 17.3179 12.7453 16.8722 13.1716 16.7489C13.6285 16.6167 14.0722 16.433 14.4905 16.2023C14.8791 15.9886 15.3682 16.1296 15.5824 16.5186C15.7966 16.9072 15.6551 17.3963 15.2661 17.6105C14.7437 17.8982 14.1891 18.1281 13.6181 18.2932C13.5438 18.3149 13.4686 18.325 13.3947 18.325Z" fill="#66788A"/>
<path d="M11.3926 15.385C11.3926 15.385 11.393 15.385 11.3926 15.385C10.2095 15.385 9.07745 14.963 8.20461 14.1963C6.54694 12.7407 6.09003 10.2701 7.11959 8.32188C7.94461 6.76105 9.628 5.75238 11.4082 5.75238C11.7985 5.75238 12.187 5.8006 12.5632 5.89464C14.6754 6.42469 16.2081 8.3918 16.2081 10.5719C16.2081 12.1323 15.4469 13.6035 14.173 14.5073C13.3641 15.0816 12.4024 15.385 11.3926 15.385ZM11.4082 7.35982C10.2163 7.35982 9.09072 8.03213 8.54097 9.07295C7.855 10.371 8.16001 12.0178 9.26553 12.9883C9.84461 13.497 10.6001 13.7771 11.3926 13.7771C12.0677 13.7771 12.7071 13.5762 13.2427 13.1964C14.0931 12.5937 14.6006 11.6123 14.6006 10.5719C14.6006 9.11836 13.5791 7.80709 12.1714 7.45386C11.923 7.39157 11.6662 7.35982 11.4082 7.35982Z" fill="#66788A"/>
<path d="M6.13596 19.4666C5.98607 19.4666 5.83457 19.4248 5.69914 19.3372C4.46021 18.5335 3.42461 17.4979 2.62089 16.2586C2.37897 15.886 2.48546 15.3885 2.85759 15.147C3.23051 14.9051 3.72761 15.0116 3.96953 15.3837C4.64948 16.4322 5.52594 17.3086 6.57439 17.9886C6.94652 18.2301 7.05261 18.7276 6.81109 19.1001C6.65677 19.3376 6.39918 19.4666 6.13596 19.4666Z" fill="#66788A"/>
<path d="M11.386 21.0219C10.6586 21.0219 9.93167 20.9451 9.20912 20.7912C8.77512 20.6988 8.49783 20.272 8.59066 19.8376C8.68269 19.4036 9.10705 19.1259 9.54428 19.2187C10.7663 19.4787 12.0057 19.4787 13.2277 19.2187C13.6633 19.1255 14.0889 19.4032 14.1813 19.8376C14.2738 20.272 13.9969 20.6988 13.5629 20.7912C12.8403 20.9451 12.1134 21.0219 11.386 21.0219Z" fill="#66788A"/>
<path d="M1.95165 13.3853C1.58033 13.3853 1.24679 13.1265 1.16642 12.7487C0.858591 11.3044 0.858591 9.83965 1.16642 8.39536C1.25844 7.96135 1.68361 7.68367 2.12003 7.7765C2.55404 7.86892 2.83132 8.2957 2.73849 8.73011C2.47849 9.95257 2.47849 11.1915 2.73849 12.414C2.83092 12.848 2.55404 13.2751 2.12003 13.3676C2.06377 13.3792 2.00711 13.3853 1.95165 13.3853Z" fill="#66788A"/>
<path d="M3.29399 6.12646C3.14409 6.12646 2.99259 6.08466 2.85717 5.99706C2.48504 5.75554 2.37895 5.25804 2.62047 4.88551C3.42419 3.64658 4.45978 2.61058 5.69872 1.80686C6.07205 1.56454 6.56875 1.67143 6.81067 2.04356C7.05259 2.41608 6.94609 2.91358 6.57397 3.1551C5.52552 3.83505 4.64906 4.71151 3.96911 5.75996C3.8152 5.99746 3.55761 6.12646 3.29399 6.12646Z" fill="#66788A"/>
<path d="M13.396 1.94273C13.3405 1.94273 13.2843 1.93671 13.2276 1.92505C12.0056 1.66505 10.7662 1.66505 9.54416 1.92505C9.10693 2.01708 8.68257 1.7402 8.59054 1.30619C8.49812 0.872178 8.775 0.445001 9.20901 0.352573C10.6541 0.0447479 12.1177 0.0447479 13.5628 0.352573C13.9968 0.445001 14.2741 0.871776 14.1812 1.30619C14.1009 1.68394 13.7673 1.94273 13.396 1.94273Z" fill="#66788A"/>
<path d="M19.4775 6.12646C19.2143 6.12646 18.9563 5.99746 18.8024 5.75996C18.1224 4.71151 17.246 3.83505 16.1975 3.1551C15.8254 2.91358 15.7193 2.41608 15.9608 2.04356C16.2023 1.67143 16.699 1.56454 17.0727 1.80686C18.3117 2.61058 19.3473 3.64617 20.151 4.88551C20.3929 5.25804 20.2864 5.75554 19.9143 5.99706C19.7789 6.08466 19.6274 6.12646 19.4775 6.12646Z" fill="#66788A"/>
<path d="M20.8199 13.3853C20.7644 13.3853 20.7082 13.3792 20.6515 13.3676C20.2175 13.2752 19.9402 12.8484 20.033 12.414C20.293 11.1915 20.293 9.95259 20.033 8.73013C19.9406 8.29612 20.2175 7.86894 20.6515 7.77651C21.0863 7.68368 21.5127 7.96097 21.6051 8.39538C21.9129 9.83966 21.9129 11.3044 21.6051 12.7487C21.5243 13.1265 21.1908 13.3853 20.8199 13.3853Z" fill="#66788A"/>
<path d="M16.6356 19.4667C16.3724 19.4667 16.1144 19.3377 15.9605 19.1002C15.7186 18.7276 15.8251 18.2301 16.1972 17.9886C17.2456 17.3087 18.1221 16.4322 18.802 15.3838C19.0436 15.0112 19.5403 14.9051 19.914 15.1471C20.2861 15.3886 20.3922 15.8861 20.1507 16.2586C19.347 17.4975 18.3114 18.5335 17.0724 19.3373C16.937 19.4249 16.7859 19.4667 16.6356 19.4667Z" fill="#66788A"/>
<path d="M20.819 13.3853H18.3347C17.8911 13.3853 17.531 13.0253 17.531 12.5816C17.531 12.138 17.8911 11.7779 18.3347 11.7779H20.819C21.2627 11.7779 21.6227 12.138 21.6227 12.5816C21.6227 13.0253 21.2627 13.3853 20.819 13.3853Z" fill="#66788A"/>
<path d="M4.43695 13.3853H1.95265C1.50899 13.3853 1.14893 13.0253 1.14893 12.5816C1.14893 12.138 1.50899 11.7779 1.95265 11.7779H4.43695C4.8806 11.7779 5.24067 12.138 5.24067 12.5816C5.24067 13.0253 4.881 13.3853 4.43695 13.3853Z" fill="#66788A"/>
<path d="M20.819 9.36672H18.3347C17.8911 9.36672 17.531 9.00665 17.531 8.563C17.531 8.11934 17.8911 7.75928 18.3347 7.75928H20.819C21.2627 7.75928 21.6227 8.11934 21.6227 8.563C21.6227 9.00665 21.2627 9.36672 20.819 9.36672Z" fill="#66788A"/>
<path d="M4.43695 9.36672H1.95265C1.50899 9.36672 1.14893 9.00665 1.14893 8.563C1.14893 8.11934 1.50899 7.75928 1.95265 7.75928H4.43695C4.8806 7.75928 5.24067 8.11934 5.24067 8.563C5.24067 9.00665 4.881 9.36672 4.43695 9.36672Z" fill="#66788A"/>
<path d="M17.7204 7.88304C17.5146 7.88304 17.3093 7.80467 17.1521 7.64755C16.8383 7.33369 16.8383 6.82494 17.1521 6.51109L18.9087 4.75455C19.2225 4.4407 19.7313 4.4407 20.0451 4.75455C20.359 5.06841 20.359 5.57716 20.0451 5.89102L18.2886 7.64755C18.1315 7.80467 17.9257 7.88304 17.7204 7.88304Z" fill="#66788A"/>
<path d="M6.13663 19.4667C5.93088 19.4667 5.72552 19.3883 5.5684 19.2312C5.25454 18.9173 5.25454 18.4086 5.5684 18.0947L7.32493 16.3382C7.63878 16.0243 8.14754 16.0243 8.46139 16.3382C8.77524 16.652 8.77524 17.1608 8.46139 17.4746L6.70486 19.2312C6.54773 19.3883 6.34198 19.4667 6.13663 19.4667Z" fill="#66788A"/>
<path d="M14.8783 5.04148C14.6726 5.04148 14.4672 4.96312 14.3101 4.80599C13.9962 4.49214 13.9962 3.98339 14.3101 3.66953L16.0666 1.913C16.3805 1.59915 16.8892 1.59915 17.2031 1.913C17.5169 2.22685 17.5169 2.73561 17.2031 3.04946L15.4466 4.80599C15.2898 4.96312 15.0841 5.04148 14.8783 5.04148Z" fill="#66788A"/>
<path d="M3.29459 16.6251C3.08883 16.6251 2.88348 16.5467 2.72636 16.3896C2.4125 16.0758 2.4125 15.567 2.72636 15.2532L4.48289 13.4966C4.79674 13.1828 5.3055 13.1828 5.61935 13.4966C5.9332 13.8105 5.9332 14.3192 5.61935 14.6331L3.86282 16.3896C3.70609 16.5467 3.50034 16.6251 3.29459 16.6251Z" fill="#66788A"/>
<path d="M9.37647 20.8089C8.93282 20.8089 8.57275 20.4488 8.57275 20.0051V17.5212C8.57275 17.0776 8.93282 16.7175 9.37647 16.7175C9.82013 16.7175 10.1802 17.0776 10.1802 17.5212V20.0055C10.1802 20.4492 9.82013 20.8089 9.37647 20.8089Z" fill="#66788A"/>
<path d="M9.37647 4.42707C8.93282 4.42707 8.57275 4.067 8.57275 3.62335V1.13905C8.57275 0.695394 8.93282 0.335327 9.37647 0.335327C9.82013 0.335327 10.1802 0.695394 10.1802 1.13905V3.62335C10.1802 4.067 9.82013 4.42707 9.37647 4.42707Z" fill="#66788A"/>
<path d="M13.395 20.8089C12.9514 20.8089 12.5913 20.4488 12.5913 20.0051V17.5212C12.5913 17.0776 12.9514 16.7175 13.395 16.7175C13.8387 16.7175 14.1987 17.0776 14.1987 17.5212V20.0055C14.1987 20.4492 13.8387 20.8089 13.395 20.8089Z" fill="#66788A"/>
<path d="M13.395 4.42707C12.9514 4.42707 12.5913 4.067 12.5913 3.62335V1.13905C12.5913 0.695394 12.9514 0.335327 13.395 0.335327C13.8387 0.335327 14.1987 0.695394 14.1987 1.13905V3.62335C14.1987 4.067 13.8387 4.42707 13.395 4.42707Z" fill="#66788A"/>
<path d="M19.4769 16.6251C19.2711 16.6251 19.0658 16.5467 18.9087 16.3896L17.1521 14.6331C16.8383 14.3192 16.8383 13.8105 17.1521 13.4966C17.466 13.1828 17.9747 13.1828 18.2886 13.4966L20.0451 15.2532C20.359 15.567 20.359 16.0758 20.0451 16.3896C19.888 16.5467 19.6827 16.6251 19.4769 16.6251Z" fill="#66788A"/>
<path d="M7.89316 5.04148C7.68741 5.04148 7.48206 4.96312 7.32493 4.80599L5.5684 3.04946C5.25454 2.73561 5.25454 2.22685 5.5684 1.913C5.88225 1.59915 6.39101 1.59915 6.70486 1.913L8.46139 3.66953C8.77524 3.98339 8.77524 4.49214 8.46139 4.80599C8.30426 4.96312 8.09851 5.04148 7.89316 5.04148Z" fill="#66788A"/>
<path d="M16.6353 19.4667C16.4296 19.4667 16.2242 19.3883 16.0671 19.2312L14.3106 17.4746C13.9967 17.1608 13.9967 16.652 14.3106 16.3382C14.6244 16.0243 15.1332 16.0243 15.447 16.3382L17.2036 18.0947C17.5174 18.4086 17.5174 18.9173 17.2036 19.2312C17.0465 19.3883 16.8407 19.4667 16.6353 19.4667Z" fill="#66788A"/>
<path d="M5.05112 7.88304C4.84537 7.88304 4.64002 7.80467 4.48289 7.64755L2.72636 5.89102C2.4125 5.57716 2.4125 5.06841 2.72636 4.75455C3.04021 4.4407 3.54896 4.4407 3.86282 4.75455L5.61935 6.51109C5.9332 6.82494 5.9332 7.33369 5.61935 7.64755C5.46262 7.80467 5.25687 7.88304 5.05112 7.88304Z" fill="#66788A"/>
</svg>
