<svg width="11" height="11" viewBox="0 0 11 11" fill="none" xmlns="http://www.w3.org/2000/svg">
<path d="M7.12516 9.02084C6.48125 9.02142 5.84958 8.84486 5.29928 8.51048C4.74899 8.1761 4.30129 7.69679 4.00516 7.125H7.12516L7.66683 6.04167H3.64766C3.62058 5.86292 3.60433 5.68417 3.60433 5.5C3.60433 5.31584 3.62058 5.13709 3.64766 4.95834H7.12516L7.66683 3.875H4.00516C4.30181 3.30364 4.74964 2.8247 5.29981 2.49039C5.84998 2.15608 6.48138 1.97925 7.12516 1.97917C7.99725 1.97917 8.79891 2.29875 9.41641 2.82959L10.3752 1.87084C9.48326 1.0678 8.32532 0.623918 7.12516 0.625002C5.00183 0.625002 3.2035 1.98459 2.53183 3.875H0.625163L0.0834961 4.95834H2.28266C2.23879 5.31811 2.23879 5.68189 2.28266 6.04167H0.625163L0.0834961 7.125H2.53183C3.2035 9.01542 5.00183 10.375 7.12516 10.375C8.37641 10.375 9.51391 9.90375 10.3752 9.12917L9.411 8.17042C8.79891 8.70125 8.00266 9.02084 7.12516 9.02084Z" fill="black"/>
</svg>
