<svg width="16" height="18" viewBox="0 0 16 18" fill="none" xmlns="http://www.w3.org/2000/svg">
<path d="M7.85229 17.3916C6.4069 17.3916 4.95791 16.9815 3.70059 16.1497C0.944559 14.3272 -0.310471 10.8437 0.648546 7.67815C0.753214 7.33242 1.11857 7.13682 1.4643 7.24182C1.81003 7.34648 2.0053 7.71184 1.90063 8.05757C1.1081 10.6736 2.14529 13.5523 4.42214 15.0582C6.72254 16.5795 9.79748 16.3934 11.901 14.6058C13.9776 12.8409 14.6619 9.75874 13.5279 7.27747C12.3304 4.65685 9.41479 3.17973 6.59596 3.76522C5.40961 4.01151 4.28705 4.62087 3.43532 5.48176C3.18118 5.73853 2.76708 5.74082 2.51032 5.48667C2.25356 5.23252 2.25127 4.81843 2.50541 4.56167C3.53639 3.5199 4.89478 2.78232 6.33004 2.48435C9.7422 1.77751 13.2692 3.56308 14.7182 6.73385C16.1125 9.78491 15.3027 13.4323 12.7488 15.6031C11.3534 16.7882 9.60515 17.3916 7.85229 17.3916Z" fill="#66788A"/>
<path d="M2.97053 5.67603C2.91459 5.67603 2.85735 5.66884 2.80077 5.65346C2.45177 5.55992 2.24472 5.20143 2.33827 4.85243L3.40326 0.877022C3.49681 0.528021 3.85529 0.319667 4.2043 0.414522C4.5533 0.508069 4.76034 0.866555 4.6668 1.21556L3.6018 5.19096C3.52363 5.48305 3.25934 5.67603 2.97053 5.67603Z" fill="#66788A"/>
<path d="M6.94593 6.7417C6.88967 6.7417 6.83276 6.73451 6.77617 6.71914L2.80077 5.65349C2.45177 5.55994 2.24472 5.20146 2.33827 4.85245C2.43181 4.50345 2.79226 4.29608 3.1393 4.38995L7.11471 5.4556C7.46371 5.54915 7.67076 5.90763 7.57721 6.25664C7.49903 6.54872 7.23475 6.7417 6.94593 6.7417Z" fill="#66788A"/>
</svg>
