<svg width="21" height="21" viewBox="0 0 21 21" fill="none" xmlns="http://www.w3.org/2000/svg">
<path d="M13.4031 14.9236C13.206 14.9236 13.009 14.8486 12.8588 14.6981L6.32702 8.16626C6.02641 7.86565 6.02641 7.37836 6.32702 7.07775C6.62725 6.77714 7.1153 6.77714 7.41553 7.07775L13.9477 13.61C14.2483 13.9106 14.2483 14.3979 13.9477 14.6985C13.7972 14.8486 13.6002 14.9236 13.4031 14.9236Z" fill="#EC4C47"/>
<path d="M6.87127 14.9237C6.6742 14.9237 6.47713 14.8486 6.32702 14.6981C6.02641 14.3975 6.02641 13.9102 6.32702 13.6096L12.8592 7.07739C13.1595 6.77678 13.6475 6.77678 13.9477 7.07739C14.2483 7.378 14.2483 7.86528 13.9477 8.16589L7.41553 14.6981C7.26542 14.8486 7.06796 14.9237 6.87127 14.9237Z" fill="#EC4C47"/>
<path d="M10.1118 20.8916C10.1114 20.8916 10.1114 20.8916 10.1118 20.8916C9.23615 20.8916 8.3682 20.7773 7.5318 20.5525C3.92756 19.5833 1.10506 16.5972 0.341405 12.9456C-0.436486 9.22554 0.999591 5.31492 3.99992 2.98279C5.73391 1.63447 7.92132 0.891602 10.1592 0.891602C11.7084 0.891602 13.2472 1.25187 14.609 1.93277C17.9719 3.61518 20.1447 7.13013 20.1447 10.8879C20.1447 13.9541 18.6979 16.9094 16.2741 18.7931C14.534 20.1464 12.345 20.8916 10.1118 20.8916ZM10.1595 2.43122C8.26235 2.43122 6.41057 3.059 4.94524 4.19831C2.40565 6.1721 1.19012 9.48189 1.84869 12.6304C2.49494 15.7193 4.8825 18.2454 7.93171 19.0656C8.63763 19.2558 9.37125 19.352 10.1114 19.352H10.1118C12.0048 19.352 13.8577 18.7219 15.3296 17.5776C17.3803 15.9829 18.6051 13.4822 18.6051 10.8879C18.6051 7.70787 16.7664 4.73371 13.9204 3.30995C12.7715 2.73529 11.4709 2.43122 10.1595 2.43122Z" fill="#EC4C47"/>
</svg>
