<svg width="21" height="20" viewBox="0 0 21 20" fill="none" xmlns="http://www.w3.org/2000/svg">
<path d="M1.18397 9.23694C0.938951 9.23694 0.697495 9.12374 0.542331 8.90999C0.285834 8.55572 0.364604 8.06094 0.718474 7.80444L10.2184 0.915843C10.5726 0.658554 11.0674 0.738116 11.3239 1.09199C11.5804 1.44625 11.5016 1.94104 11.1478 2.19753L1.64788 9.08613C1.50736 9.18826 1.34467 9.23694 1.18397 9.23694Z" fill="#4099FF"/>
<path d="M20.1816 9.23738C20.0209 9.23738 19.8582 9.1883 19.7177 9.08657L10.2178 2.19797C9.86352 1.94147 9.78475 1.44629 10.0416 1.09242C10.2981 0.738948 10.7929 0.658991 11.1472 0.916279L20.6471 7.80488C21.0013 8.06137 21.0801 8.55655 20.8232 8.91043C20.6684 9.12417 20.4266 9.23738 20.1816 9.23738Z" fill="#4099FF"/>
<path d="M13.8499 12.64C13.4129 12.64 13.0583 12.2853 13.0583 11.8483V11.8475C12.6213 11.8475 12.2666 11.4937 12.2666 11.0563C12.2666 10.6193 12.6213 10.265 13.0583 10.265C13.9315 10.265 14.6416 10.9751 14.6416 11.8483C14.6416 12.2857 14.2869 12.64 13.8499 12.64Z" fill="#4099FF"/>
<path d="M13.8493 19.7646C13.4123 19.7646 13.0576 19.41 13.0576 18.973V11.8481C13.0576 11.4111 13.4123 11.0564 13.8493 11.0564C14.2863 11.0564 14.6409 11.4111 14.6409 11.8481V18.973C14.6409 19.4104 14.2863 19.7646 13.8493 19.7646Z" fill="#4099FF"/>
<path d="M13.0582 11.8483H8.30826C7.87126 11.8483 7.5166 11.4937 7.5166 11.0567C7.5166 10.6197 7.87126 10.265 8.30826 10.265H13.0582C13.4952 10.265 13.8499 10.6197 13.8499 11.0567C13.8499 11.4937 13.4952 11.8483 13.0582 11.8483Z" fill="#4099FF"/>
<path d="M7.51587 12.64C7.07888 12.64 6.72461 12.2853 6.72461 11.8483C6.72461 10.9751 7.43473 10.265 8.30792 10.265C8.74492 10.265 9.09958 10.6197 9.09958 11.0567C9.09958 11.4937 8.74492 11.8483 8.30792 11.8483H8.30673C8.30673 12.2857 7.95326 12.64 7.51587 12.64Z" fill="#4099FF"/>
<path d="M7.51627 19.7646C7.07927 19.7646 6.72461 19.41 6.72461 18.973V11.8481C6.72461 11.4111 7.07927 11.0564 7.51627 11.0564C7.95326 11.0564 8.30792 11.4111 8.30792 11.8481V18.973C8.30792 19.4104 7.95326 19.7646 7.51627 19.7646Z" fill="#4099FF"/>
<path d="M19.3907 19.7649H1.97427C1.53728 19.7649 1.18262 19.4102 1.18262 18.9732C1.18262 18.5362 1.53728 18.1816 1.97427 18.1816H19.3907C19.8277 18.1816 20.1824 18.5362 20.1824 18.9732C20.1824 19.4102 19.8277 19.7649 19.3907 19.7649Z" fill="#4099FF"/>
<path d="M3.55826 19.7647C3.12126 19.7647 2.7666 19.41 2.7666 18.973V8.44516C2.7666 8.00817 3.12126 7.6535 3.55826 7.6535C3.99525 7.6535 4.34991 8.00817 4.34991 8.44516V18.973C4.34991 19.4104 3.99525 19.7647 3.55826 19.7647Z" fill="#4099FF"/>
<path d="M17.8073 19.7647C17.3703 19.7647 17.0156 19.41 17.0156 18.973V8.44516C17.0156 8.00817 17.3703 7.6535 17.8073 7.6535C18.2443 7.6535 18.5989 8.00817 18.5989 8.44516V18.973C18.5989 19.4104 18.2443 19.7647 17.8073 19.7647Z" fill="#4099FF"/>
</svg>
