<svg width="20" height="20" viewBox="0 0 20 20" fill="none" xmlns="http://www.w3.org/2000/svg">
<path d="M0.744073 16.8634C0.34069 16.8634 0.0136719 16.536 0.0136719 16.1326C0.0136719 15.3266 0.66917 14.6711 1.47521 14.6711C1.87859 14.6711 2.20597 14.9985 2.20597 15.4018C2.20597 15.8052 1.87859 16.1326 1.47521 16.1326H1.47447C1.47447 16.536 1.14782 16.8634 0.744073 16.8634Z" fill="#BBBBBB"/>
<path d="M14.6287 16.1326H1.47491C1.07152 16.1326 0.744141 15.8052 0.744141 15.4018C0.744141 14.9985 1.07152 14.6711 1.47491 14.6711H14.6287C15.0321 14.6711 15.3595 14.9985 15.3595 15.4018C15.3595 15.8052 15.0325 16.1326 14.6287 16.1326Z" fill="#BBBBBB"/>
<path d="M0.744439 17.5943C0.341055 17.5943 0.0136719 17.2669 0.0136719 16.8635V16.1327C0.0136719 15.7294 0.341055 15.402 0.744439 15.402C1.14782 15.402 1.47521 15.7294 1.47521 16.1327V16.8635C1.47521 17.2669 1.14819 17.5943 0.744439 17.5943Z" fill="#BBBBBB"/>
<path d="M15.36 16.8634C14.9566 16.8634 14.6292 16.536 14.6292 16.1326V16.1319C14.2258 16.1319 13.8984 15.8052 13.8984 15.4015C13.8984 14.9981 14.2258 14.6711 14.6292 14.6711C15.4352 14.6711 16.0907 15.3266 16.0907 16.1326C16.0907 16.536 15.7637 16.8634 15.36 16.8634Z" fill="#BBBBBB"/>
<path d="M15.3597 17.5943C14.9563 17.5943 14.6289 17.2669 14.6289 16.8635V16.1327C14.6289 15.7294 14.9563 15.402 15.3597 15.402C15.7631 15.402 16.0904 15.7294 16.0904 16.1327V16.8635C16.0904 17.2669 15.7634 17.5943 15.3597 17.5943Z" fill="#BBBBBB"/>
<path d="M13.8982 4.44054H8.05206C7.64867 4.44054 7.32129 4.11315 7.32129 3.70977C7.32129 3.30639 7.64867 2.979 8.05206 2.979H13.8982C14.3016 2.979 14.629 3.30639 14.629 3.70977C14.629 4.11315 14.3019 4.44054 13.8982 4.44054Z" fill="#BBBBBB"/>
<path d="M16.0904 13.2093H5.85967C5.45629 13.2093 5.12891 12.8819 5.12891 12.4785C5.12891 12.0751 5.45629 11.7477 5.85967 11.7477H16.0904C16.4938 11.7477 16.8212 12.0751 16.8212 12.4785C16.8212 12.8819 16.4942 13.2093 16.0904 13.2093Z" fill="#BBBBBB"/>
<path d="M16.0904 10.2866H5.85967C5.45629 10.2866 5.12891 9.95922 5.12891 9.55584C5.12891 9.15246 5.45629 8.82507 5.85967 8.82507H16.0904C16.4938 8.82507 16.8212 9.15246 16.8212 9.55584C16.8212 9.95922 16.4942 10.2866 16.0904 10.2866Z" fill="#BBBBBB"/>
<path d="M16.0904 7.36321H5.85967C5.45629 7.36321 5.12891 7.03582 5.12891 6.63244C5.12891 6.22906 5.45629 5.90167 5.85967 5.90167H16.0904C16.4938 5.90167 16.8212 6.22906 16.8212 6.63244C16.8212 7.03582 16.4942 7.36321 16.0904 7.36321Z" fill="#BBBBBB"/>
<path d="M3.6679 2.24796C3.26452 2.24796 2.9375 1.92058 2.9375 1.5172C2.9375 0.711162 3.593 0.0556641 4.39903 0.0556641C4.80242 0.0556641 5.1298 0.383048 5.1298 0.786431C5.1298 1.18981 4.80242 1.5172 4.39903 1.5172H4.3983C4.3983 1.92058 4.07165 2.24796 3.6679 2.24796Z" fill="#BBBBBB"/>
<path d="M3.66827 16.1327C3.26488 16.1327 2.9375 15.8053 2.9375 15.4019V1.51733C2.9375 1.11394 3.26488 0.78656 3.66827 0.78656C4.07165 0.78656 4.39903 1.11394 4.39903 1.51733V15.4019C4.39903 15.8053 4.07202 16.1327 3.66827 16.1327Z" fill="#BBBBBB"/>
<path d="M17.5516 1.5172H4.39776C3.99438 1.5172 3.66699 1.18981 3.66699 0.786431C3.66699 0.383048 3.99438 0.0556641 4.39776 0.0556641H17.5516C17.9549 0.0556641 18.2823 0.383048 18.2823 0.786431C18.2823 1.18981 17.9553 1.5172 17.5516 1.5172Z" fill="#BBBBBB"/>
<path d="M18.2828 2.24796C17.8794 2.24796 17.5521 1.92058 17.5521 1.5172V1.51647C17.1487 1.51647 16.8213 1.18981 16.8213 0.786065C16.8213 0.382682 17.1487 0.0556641 17.5521 0.0556641C18.3581 0.0556641 19.0136 0.711162 19.0136 1.5172C19.0136 1.92058 18.6866 2.24796 18.2828 2.24796Z" fill="#BBBBBB"/>
<path d="M18.2825 17.5942C17.8791 17.5942 17.5518 17.2668 17.5518 16.8634V1.51733C17.5518 1.11394 17.8791 0.78656 18.2825 0.78656C18.6859 0.78656 19.0133 1.11394 19.0133 1.51733V16.8634C19.0133 17.2668 18.6863 17.5942 18.2825 17.5942Z" fill="#BBBBBB"/>
<path d="M16.8212 19.0556C15.6122 19.0556 14.6289 18.0724 14.6289 16.8633C14.6289 16.46 14.9563 16.1326 15.3597 16.1326C15.7631 16.1326 16.0904 16.46 16.0904 16.8633C16.0904 17.2594 16.4251 17.5941 16.8212 17.5941C17.2173 17.5941 17.552 17.2594 17.552 16.8633C17.552 16.46 17.8794 16.1326 18.2827 16.1326C18.6861 16.1326 19.0135 16.46 19.0135 16.8633C19.0135 18.0724 18.0303 19.0556 16.8212 19.0556Z" fill="#BBBBBB"/>
<path d="M2.20597 19.0556C0.996918 19.0556 0.0136719 18.0724 0.0136719 16.8633C0.0136719 16.46 0.341055 16.1326 0.744439 16.1326C1.14782 16.1326 1.47521 16.46 1.47521 16.8633C1.47521 17.2664 1.80295 17.5941 2.20597 17.5941C2.60936 17.5941 2.93674 17.9215 2.93674 18.3249C2.93674 18.7283 2.60972 19.0556 2.20597 19.0556Z" fill="#BBBBBB"/>
<path d="M16.8217 19.0556H2.20635C1.80297 19.0556 1.47559 18.7283 1.47559 18.3249C1.47559 17.9215 1.80297 17.5941 2.20635 17.5941H16.8217C17.2251 17.5941 17.5525 17.9215 17.5525 18.3249C17.5525 18.7283 17.2254 19.0556 16.8217 19.0556Z" fill="#BBBBBB"/>
</svg>
