<svg width="20" height="20" viewBox="0 0 20 20" fill="none" xmlns="http://www.w3.org/2000/svg">
<path d="M17.2897 15.693C17.1578 15.693 17.0237 15.6572 16.9031 15.582C15.667 14.8099 14.1617 14.336 12.1656 14.0901C9.062 13.7075 6.06366 14.2505 3.93676 15.582C3.59549 15.7961 3.14424 15.6923 2.92976 15.3503C2.71565 15.0079 2.81942 14.5574 3.16178 14.3433C5.56783 12.8376 8.91402 12.2164 12.3442 12.6399C14.5596 12.9128 16.2538 13.454 17.6774 14.3429C18.0197 14.5567 18.1239 15.0076 17.9101 15.3499C17.7717 15.571 17.5334 15.6927 17.2897 15.693Z" fill="#BBBBBB"/>
<path d="M10.244 6.51603C7.57635 6.51603 5.07274 5.87807 3.16178 4.68217C2.81942 4.46805 2.71565 4.01717 2.92976 3.67517C3.14424 3.33281 3.59549 3.22904 3.93676 3.44352C6.06402 4.77461 9.06382 5.31757 12.1652 4.93538C14.1617 4.68911 15.667 4.21484 16.9031 3.44315C17.2462 3.22904 17.6967 3.33354 17.9101 3.6759C18.1239 4.01826 18.0197 4.46878 17.6774 4.68253C16.2538 5.57115 14.5596 6.11264 12.3442 6.38595C11.6387 6.47328 10.9357 6.51603 10.244 6.51603Z" fill="#BBBBBB"/>
<path d="M10.4448 19.0075C9.58428 19.0075 8.73623 18.6465 7.99377 17.9636C6.712 16.7853 6.12045 15.1129 5.74812 13.7877C5.3652 12.4255 5.18981 10.9011 5.21064 9.12683C5.22964 7.52608 5.49345 5.91986 5.97466 4.4828C6.59837 2.61788 7.44862 1.34817 8.57363 0.601329C9.1524 0.217311 9.79036 0.0137923 10.4192 0.0130615C12.0557 0.0148884 13.165 1.28314 13.6806 2.03838C14.4837 3.21528 15.0241 4.64649 15.3804 6.54247C15.9873 9.77465 15.6098 13.1629 14.3438 15.8375C13.8136 16.9577 12.8636 18.393 11.3506 18.868C11.0553 18.9604 10.7506 19.0075 10.4448 19.0075ZM10.4192 1.47423C10.0797 1.4746 9.72094 1.59371 9.38186 1.81879C8.53819 2.37856 7.87721 3.40127 7.36056 4.94611C6.92721 6.24139 6.68935 7.69306 6.67218 9.144C6.65245 10.7769 6.81066 12.1665 7.15521 13.3923C7.47529 14.5316 7.97221 15.9584 8.98286 16.8879C9.59561 17.451 10.2887 17.6695 10.9125 17.4737C11.922 17.1569 12.617 16.0691 13.0225 15.2127C14.1593 12.8103 14.495 9.74835 13.9437 6.81249C13.6262 5.12222 13.1588 3.86676 12.473 2.86232C12.1887 2.44506 11.4189 1.47533 10.4192 1.47423Z" fill="#BBBBBB"/>
<path d="M10.4202 19.0127C10.0168 19.0127 9.68945 18.6853 9.68945 18.2819V0.743463C9.68945 0.340079 10.0168 0.0126953 10.4202 0.0126953C10.8236 0.0126953 11.151 0.340079 11.151 0.743463V18.2819C11.151 18.6853 10.8236 19.0127 10.4202 19.0127Z" fill="#BBBBBB"/>
<path d="M19.1891 10.2433H1.65069C1.24731 10.2433 0.919922 9.91589 0.919922 9.51251C0.919922 9.10912 1.24731 8.78174 1.65069 8.78174H19.1891C19.5925 8.78174 19.9199 9.10912 19.9199 9.51251C19.9199 9.91589 19.5925 10.2433 19.1891 10.2433Z" fill="#BBBBBB"/>
<path d="M10.3953 19.0094C10.3949 19.0094 10.3949 19.0094 10.3946 19.0094C9.56405 19.0094 8.74011 18.9012 7.94613 18.6875C4.52504 17.7671 1.84568 14.9328 1.12076 11.4664C0.382686 7.93497 1.74593 4.22267 4.59373 2.00881C6.24052 0.728872 8.317 0.0236816 10.4413 0.0236816C11.912 0.0236816 13.3724 0.365681 14.6652 1.01204C17.8568 2.60914 19.9198 5.94582 19.9198 9.51306C19.9198 12.4237 18.5463 15.2291 16.2458 17.0173C14.5936 18.302 12.5153 19.0094 10.3953 19.0094ZM10.441 1.48522C8.64 1.48522 6.88177 2.08079 5.49039 3.16269C3.07995 5.03602 1.92643 8.17832 2.55124 11.1672C3.16435 14.0994 5.43119 16.4974 8.32577 17.276C8.99588 17.4561 9.69194 17.5479 10.3949 17.5479H10.3953C12.1923 17.5479 13.9512 16.9497 15.3488 15.8634C17.2956 14.35 18.4582 11.9758 18.4582 9.51306C18.4582 6.49463 16.7128 3.67094 14.0111 2.31939C12.9208 1.77387 11.6862 1.48522 10.441 1.48522Z" fill="#BBBBBB"/>
</svg>
