<svg width="21" height="19" viewBox="0 0 21 19" fill="none" xmlns="http://www.w3.org/2000/svg">
<path d="M12.1503 18.5173H7.91961C7.495 18.5173 7.15039 18.1727 7.15039 17.7481C7.15039 17.3235 7.495 16.9789 7.91961 16.9789H12.1503C12.5749 16.9789 12.9195 17.3235 12.9195 17.7481C12.9195 18.1727 12.5749 18.5173 12.1503 18.5173Z" fill="#BBBBBB"/>
<path d="M7.91961 18.5169C7.495 18.5169 7.15039 18.1723 7.15039 17.7477V6.46563C7.15039 6.04102 7.495 5.69641 7.91961 5.69641C8.34421 5.69641 8.68882 6.04102 8.68882 6.46563V17.7477C8.68882 18.1723 8.34421 18.5169 7.91961 18.5169Z" fill="#BBBBBB"/>
<path d="M12.1503 7.23484H7.91961C7.495 7.23484 7.15039 6.89024 7.15039 6.46563C7.15039 6.04102 7.495 5.69641 7.91961 5.69641H12.1503C12.5749 5.69641 12.9195 6.04102 12.9195 6.46563C12.9195 6.89024 12.5749 7.23484 12.1503 7.23484Z" fill="#BBBBBB"/>
<path d="M12.1501 18.5169C11.7255 18.5169 11.3809 18.1723 11.3809 17.7477V6.46563C11.3809 6.04102 11.7255 5.69641 12.1501 5.69641C12.5747 5.69641 12.9193 6.04102 12.9193 6.46563V17.7477C12.9193 18.1723 12.5747 18.5169 12.1501 18.5169Z" fill="#BBBBBB"/>
<path d="M15.0348 18.5169C14.6102 18.5169 14.2656 18.1723 14.2656 17.7477V0.824881C14.2656 0.400273 14.6102 0.0556641 15.0348 0.0556641C15.4594 0.0556641 15.8041 0.400273 15.8041 0.824881V17.7477C15.8041 18.1723 15.4594 18.5169 15.0348 18.5169Z" fill="#BBBBBB"/>
<path d="M19.2655 1.5941H15.0348C14.6102 1.5941 14.2656 1.24949 14.2656 0.824881C14.2656 0.400273 14.6102 0.0556641 15.0348 0.0556641H19.2655C19.6901 0.0556641 20.0348 0.400273 20.0348 0.824881C20.0348 1.24949 19.6901 1.5941 19.2655 1.5941Z" fill="#BBBBBB"/>
<path d="M19.2655 18.5173H15.0348C14.6102 18.5173 14.2656 18.1727 14.2656 17.7481C14.2656 17.3235 14.6102 16.9789 15.0348 16.9789H19.2655C19.6901 16.9789 20.0348 17.3235 20.0348 17.7481C20.0348 18.1727 19.6901 18.5173 19.2655 18.5173Z" fill="#BBBBBB"/>
<path d="M5.03506 12.8761H0.804373C0.379765 12.8761 0.0351562 12.5315 0.0351562 12.1069C0.0351562 11.6823 0.379765 11.3376 0.804373 11.3376H5.03506C5.45967 11.3376 5.80428 11.6823 5.80428 12.1069C5.80428 12.5315 5.45967 12.8761 5.03506 12.8761Z" fill="#BBBBBB"/>
<path d="M5.03484 18.5167C4.61023 18.5167 4.26562 18.1721 4.26562 17.7475V12.1069C4.26562 11.6823 4.61023 11.3376 5.03484 11.3376C5.45945 11.3376 5.80406 11.6823 5.80406 12.1069V17.7475C5.80406 18.1721 5.45945 18.5167 5.03484 18.5167Z" fill="#BBBBBB"/>
<path d="M5.03506 18.5173H0.804373C0.379765 18.5173 0.0351562 18.1727 0.0351562 17.7481C0.0351562 17.3235 0.379765 16.9789 0.804373 16.9789H5.03506C5.45967 16.9789 5.80428 17.3235 5.80428 17.7481C5.80428 18.1727 5.45967 18.5173 5.03506 18.5173Z" fill="#BBBBBB"/>
<path d="M19.2663 18.5169C18.8417 18.5169 18.4971 18.1723 18.4971 17.7477V0.824881C18.4971 0.400273 18.8417 0.0556641 19.2663 0.0556641C19.6909 0.0556641 20.0355 0.400273 20.0355 0.824881V17.7477C20.0355 18.1723 19.6909 18.5169 19.2663 18.5169Z" fill="#BBBBBB"/>
<path d="M0.804373 18.5167C0.379765 18.5167 0.0351562 18.1721 0.0351562 17.7475V12.1069C0.0351562 11.6823 0.379765 11.3376 0.804373 11.3376C1.22898 11.3376 1.57359 11.6823 1.57359 12.1069V17.7475C1.57359 18.1721 1.22898 18.5167 0.804373 18.5167Z" fill="#BBBBBB"/>
</svg>
