<svg width="20" height="20" viewBox="0 0 20 20" fill="none" xmlns="http://www.w3.org/2000/svg">
<path d="M18.7691 8.21145C18.3658 8.21145 18.0384 7.88407 18.0384 7.48068V7.47995C17.635 7.47995 17.3076 7.1533 17.3076 6.74955C17.3076 6.34617 17.635 6.01915 18.0384 6.01915C18.8444 6.01915 19.4999 6.67465 19.4999 7.48068C19.4999 7.88407 19.1729 8.21145 18.7691 8.21145Z" fill="#BBBBBB"/>
<path d="M18.0381 7.48068H1.96124C1.55785 7.48068 1.23047 7.1533 1.23047 6.74992C1.23047 6.34653 1.55785 6.01915 1.96124 6.01915H18.0381C18.4415 6.01915 18.7689 6.34653 18.7689 6.74992C18.7689 7.1533 18.4418 7.48068 18.0381 7.48068Z" fill="#BBBBBB"/>
<path d="M18.7698 18.442C18.3664 18.442 18.0391 18.1146 18.0391 17.7112V7.48047C18.0391 7.07709 18.3664 6.74971 18.7698 6.74971C19.1732 6.74971 19.5006 7.07709 19.5006 7.48047V17.7112C19.5006 18.1146 19.1736 18.442 18.7698 18.442Z" fill="#BBBBBB"/>
<path d="M18.0384 19.1729C17.635 19.1729 17.3076 18.8455 17.3076 18.4421C17.3076 18.0387 17.635 17.7113 18.0384 17.7113H18.0391C18.0391 17.308 18.3658 16.9806 18.7695 16.9806C19.1729 16.9806 19.4999 17.308 19.4999 17.7113C19.4999 18.5174 18.8444 19.1729 18.0384 19.1729Z" fill="#BBBBBB"/>
<path d="M18.0381 19.173H1.96124C1.55785 19.173 1.23047 18.8456 1.23047 18.4422C1.23047 18.0388 1.55785 17.7114 1.96124 17.7114H18.0381C18.4415 17.7114 18.7689 18.0388 18.7689 18.4422C18.7689 18.8456 18.4418 19.173 18.0381 19.173Z" fill="#BBBBBB"/>
<path d="M1.96153 19.1729C1.1555 19.1729 0.5 18.5174 0.5 17.7113C0.5 17.308 0.827384 16.9806 1.23077 16.9806C1.63415 16.9806 1.96153 17.308 1.96153 17.7113V17.7121C2.36492 17.7121 2.6923 18.0387 2.6923 18.4425C2.6923 18.8462 2.36528 19.1729 1.96153 19.1729Z" fill="#BBBBBB"/>
<path d="M1.23077 18.442C0.827384 18.442 0.5 18.1146 0.5 17.7112V7.48047C0.5 7.07709 0.827384 6.74971 1.23077 6.74971C1.63415 6.74971 1.96153 7.07709 1.96153 7.48047V17.7112C1.96153 18.1146 1.63452 18.442 1.23077 18.442Z" fill="#BBBBBB"/>
<path d="M1.2304 8.21145C0.827018 8.21145 0.5 7.88407 0.5 7.48068C0.5 6.67465 1.1555 6.01915 1.96153 6.01915C2.36492 6.01915 2.6923 6.34653 2.6923 6.74992C2.6923 7.1533 2.36492 7.48068 1.96153 7.48068H1.9608C1.9608 7.88407 1.63415 8.21145 1.2304 8.21145Z" fill="#BBBBBB"/>
<path d="M14.3847 1.63438H5.61553C5.21215 1.63438 4.88477 1.307 4.88477 0.903618C4.88477 0.500235 5.21215 0.172852 5.61553 0.172852H14.3847C14.7881 0.172852 15.1155 0.500235 15.1155 0.903618C15.1155 1.307 14.7885 1.63438 14.3847 1.63438Z" fill="#BBBBBB"/>
<path d="M16.5769 4.55722H3.42315C3.01977 4.55722 2.69238 4.22984 2.69238 3.82646C2.69238 3.42308 3.01977 3.09569 3.42315 3.09569H16.5769C16.9803 3.09569 17.3077 3.42308 17.3077 3.82646C17.3077 4.22984 16.9807 4.55722 16.5769 4.55722Z" fill="#BBBBBB"/>
</svg>
