<svg width="33" height="35" viewBox="0 0 33 35" fill="none" xmlns="http://www.w3.org/2000/svg">
<path d="M16.6502 4.50928C15.9328 4.50928 15.3506 3.92704 15.3506 3.20964V1.91C15.3506 1.19259 15.9328 0.610352 16.6502 0.610352C17.3676 0.610352 17.9499 1.19259 17.9499 1.91V3.20964C17.9499 3.92704 17.3676 4.50928 16.6502 4.50928Z" fill="white"/>
<path d="M27.9921 15.8516C27.2747 15.8516 26.6925 15.2694 26.6925 14.552C26.6925 9.27021 22.4036 4.76955 17.1323 4.52001C11.8544 4.27633 7.14905 8.34097 6.65194 13.5922C6.62205 13.906 6.6071 14.2284 6.6071 14.552C6.6071 15.2694 6.02486 15.8516 5.30746 15.8516C4.59005 15.8516 4.00781 15.2694 4.00781 14.552C4.00781 14.1465 4.02666 13.741 4.06435 13.3472C4.69013 6.73461 10.6146 1.61141 17.2551 1.92398C23.8924 2.23784 29.2917 7.90299 29.2917 14.552C29.2917 15.27 28.7095 15.8516 27.9921 15.8516Z" fill="white"/>
<path d="M30.4289 24.7166C30.1085 24.7166 29.7868 24.5983 29.5354 24.3611C27.7288 22.6508 26.6924 20.2425 26.6924 17.7544C26.6924 17.037 27.2746 16.4547 27.992 16.4547C28.7094 16.4547 29.2917 17.037 29.2917 17.7544C29.2917 19.5316 30.0318 21.2523 31.3224 22.4734C31.8435 22.9666 31.8663 23.7893 31.3731 24.3111C31.1177 24.5801 30.7733 24.7166 30.4289 24.7166Z" fill="white"/>
<path d="M2.87103 24.7166C2.52597 24.7166 2.18221 24.5807 1.92683 24.3104C1.43362 23.7893 1.45636 22.9666 1.97752 22.4734C3.26807 21.2523 4.00821 19.5323 4.00821 17.7544C4.00821 17.037 4.59046 16.4547 5.30786 16.4547C6.02526 16.4547 6.6075 17.037 6.6075 17.7544C6.6075 20.2438 5.57104 22.6521 3.76453 24.3611C3.5124 24.5983 3.19139 24.7166 2.87103 24.7166Z" fill="white"/>
<path d="M16.6506 34.4009C13.1285 34.4009 10.1523 31.4247 10.1523 27.9027C10.1523 27.1853 10.7346 26.603 11.452 26.603C12.1694 26.603 12.7516 27.1853 12.7516 27.9027C12.7516 30.0159 14.5373 31.8016 16.6506 31.8016C18.7638 31.8016 20.5495 30.0159 20.5495 27.9027C20.5495 27.1853 21.1317 26.603 21.8491 26.603C22.5665 26.603 23.1488 27.1853 23.1488 27.9027C23.1488 31.4247 20.1726 34.4009 16.6506 34.4009Z" fill="white"/>
<path d="M4.65732 29.2024C3.0737 29.2024 1.66489 28.2341 1.0677 26.7356C0.469866 25.2352 0.826618 23.5619 1.9768 22.4728C2.49796 21.9789 3.31999 22.0017 3.8145 22.5228C4.30771 23.044 4.28562 23.8667 3.76446 24.3605C3.19522 24.8999 3.40446 25.579 3.48244 25.7739C3.55977 25.9675 3.87363 26.6031 4.65732 26.6031C5.37472 26.6031 5.95696 27.1853 5.95696 27.9027C5.95696 28.6201 5.37537 29.2024 4.65732 29.2024Z" fill="white"/>
<path d="M28.6424 29.2025C27.925 29.2025 27.3428 28.6203 27.3428 27.9028C27.3428 27.1854 27.925 26.6032 28.6424 26.6032C29.4268 26.6032 29.7413 25.9651 29.8192 25.7695C29.8966 25.5752 30.1052 24.8987 29.5359 24.36C29.0148 23.8662 28.992 23.0441 29.4852 22.5223C29.9791 22.0012 30.8011 21.9784 31.3229 22.4716C32.4731 23.5607 32.8305 25.2327 32.234 26.7306C31.6361 28.2323 30.226 29.2025 28.6424 29.2025Z" fill="white"/>
<path d="M5.30697 19.0536C4.58956 19.0536 4.00732 18.4714 4.00732 17.754V14.5529C4.00732 13.8355 4.58956 13.2533 5.30697 13.2533C6.02437 13.2533 6.60661 13.8355 6.60661 14.5529V17.754C6.60661 18.4714 6.02502 19.0536 5.30697 19.0536Z" fill="white"/>
<path d="M27.9925 19.0536C27.2751 19.0536 26.6929 18.4714 26.6929 17.754V14.5529C26.6929 13.8355 27.2751 13.2533 27.9925 13.2533C28.7099 13.2533 29.2922 13.8355 29.2922 14.5529V17.754C29.2922 18.4714 28.7099 19.0536 27.9925 19.0536Z" fill="white"/>
<path d="M28.6425 29.2023H4.65755C3.94015 29.2023 3.35791 28.6201 3.35791 27.9027C3.35791 27.1853 3.94015 26.603 4.65755 26.603H28.6418C29.3592 26.603 29.9415 27.1853 29.9415 27.9027C29.9415 28.6201 29.3599 29.2023 28.6425 29.2023Z" fill="white"/>
</svg>
