<svg width="18" height="16" viewBox="0 0 18 16" fill="none" xmlns="http://www.w3.org/2000/svg">
<path d="M16.6273 0.0522461H1.05001C0.479987 0.0522461 0.0161133 0.51612 0.0161133 1.08614V11.3561C0.0161133 11.9262 0.479987 12.39 1.05001 12.39H16.6273C17.1974 12.39 17.6612 11.9262 17.6612 11.3561V1.08614C17.6612 0.51612 17.1974 0.0522461 16.6273 0.0522461Z" fill="#4099FF"/>
<path d="M14.3528 14.9406H11.5612V13.4242H6.11608V14.9406H3.32456C3.03921 14.9406 2.80762 15.1722 2.80762 15.4575C2.80762 15.7429 3.03921 15.9745 3.32456 15.9745H14.3528C14.6381 15.9745 14.8697 15.7429 14.8697 15.4575C14.8697 15.1722 14.6381 14.9406 14.3528 14.9406Z" fill="#4099FF"/>
</svg>
