<svg width="18" height="17" viewBox="0 0 18 17" fill="none" xmlns="http://www.w3.org/2000/svg">
<path d="M16.6273 0.885742H1.05001C0.479987 0.885742 0.0161133 1.34962 0.0161133 1.91964V12.1896C0.0161133 12.7597 0.479987 13.2235 1.05001 13.2235H16.6273C17.1974 13.2235 17.6612 12.7597 17.6612 12.1896V1.91964C17.6612 1.34962 17.1974 0.885742 16.6273 0.885742Z" fill="#6F42C1"/>
<path d="M14.3528 15.7741H11.5612V14.2577H6.11608V15.7741H3.32456C3.03921 15.7741 2.80762 16.0057 2.80762 16.291C2.80762 16.5764 3.03921 16.808 3.32456 16.808H14.3528C14.6381 16.808 14.8697 16.5764 14.8697 16.291C14.8697 16.0057 14.6381 15.7741 14.3528 15.7741Z" fill="#6F42C1"/>
</svg>
