<svg width="19" height="17" viewBox="0 0 19 17" fill="none" xmlns="http://www.w3.org/2000/svg">
<path d="M17.2709 0.885742H1.69356C1.12354 0.885742 0.659668 1.34962 0.659668 1.91964V12.1896C0.659668 12.7597 1.12354 13.2235 1.69356 13.2235H17.2709C17.8409 13.2235 18.3048 12.7597 18.3048 12.1896V1.91964C18.3048 1.34962 17.8409 0.885742 17.2709 0.885742Z" fill="#17A2B8"/>
<path d="M14.9963 15.7741H12.2048V14.2577H6.75963V15.7741H3.96812C3.68276 15.7741 3.45117 16.0057 3.45117 16.291C3.45117 16.5764 3.68276 16.808 3.96812 16.808H14.9963C15.2817 16.808 15.5133 16.5764 15.5133 16.291C15.5133 16.0057 15.2817 15.7741 14.9963 15.7741Z" fill="#17A2B8"/>
</svg>
