<svg width="17" height="18" viewBox="0 0 17 18" fill="none" xmlns="http://www.w3.org/2000/svg">
<path fill-rule="evenodd" clip-rule="evenodd" d="M10.6547 14.1088C10.6547 14.3115 10.5597 14.4922 10.4117 14.6086L6.84033 17.3931L6.84057 17.3932C6.66431 17.3932 6.48925 17.3202 6.36435 17.1787C6.27173 17.0741 6.213 16.9388 6.20546 16.7901C6.20491 16.7793 6.20463 16.7684 6.20463 16.7574V16.757V10.5963L0.280956 1.86663C0.20794 1.76314 0.165039 1.63691 0.165039 1.50071C0.165039 1.39707 0.189881 1.2992 0.233931 1.21273C0.280998 1.11981 0.351607 1.03718 0.443903 0.974576C0.556961 0.897801 0.686036 0.862418 0.813141 0.865007H16.0456C16.1728 0.86235 16.302 0.897728 16.4152 0.974569C16.7057 1.17164 16.7813 1.56705 16.5843 1.85756L10.6547 10.5959V14.1088Z" fill="#4099FF"/>
</svg>
