<svg width="95" height="94" viewBox="0 0 95 94" fill="none" xmlns="http://www.w3.org/2000/svg">
<path d="M93.2878 87.5518L76.647 72.1424C84.0677 63.7621 87.9518 52.8321 87.4834 41.6483C87.0149 30.4646 82.2303 19.8977 74.1347 12.1674C66.0392 4.43714 55.2627 0.145212 44.0693 0.19327C32.8758 0.241329 22.1366 4.62563 14.1077 12.4251C6.07884 20.2246 1.38516 30.8323 1.01275 42.0196C0.640329 53.2069 4.61816 64.1033 12.1106 72.4194C19.603 80.7356 30.0268 85.8244 41.1923 86.6168C52.3578 87.4092 63.3958 83.8434 71.9875 76.6687V76.8351L88.6284 92.3444C88.9402 92.6775 89.3171 92.943 89.7358 93.1244C90.1545 93.3057 90.606 93.399 91.0623 93.3985C91.5186 93.398 91.9699 93.3036 92.3882 93.1213C92.8065 92.939 93.1828 92.6727 93.4938 92.3388C93.8048 92.0049 94.0438 91.6107 94.1961 91.1805C94.3483 90.7504 94.4104 90.2935 94.3786 89.8384C94.3468 89.3832 94.2217 88.9394 94.0112 88.5346C93.8007 88.1298 93.5091 87.7726 93.1547 87.4852L93.2878 87.5518ZM44.4303 79.9968C37.1895 79.9968 30.1114 77.8497 24.0909 73.827C18.0704 69.8042 13.3781 64.0865 10.6071 57.397C7.83623 50.7074 7.11123 43.3463 8.52383 36.2447C9.93643 29.1431 13.4232 22.6198 18.5432 17.4999C23.6632 12.3799 30.1864 8.89311 37.288 7.48051C44.3897 6.06791 51.7507 6.79291 58.4403 9.56382C65.1299 12.3347 70.8475 17.0271 74.8703 23.0476C78.893 29.0681 81.0402 36.1462 81.0402 43.387C81.0402 53.0965 77.1831 62.4084 70.3174 69.2741C63.4517 76.1397 54.1398 79.9968 44.4303 79.9968ZM69.3916 43.387C69.3916 44.2696 69.0409 45.1162 68.4168 45.7403C67.7926 46.3645 66.9461 46.7151 66.0634 46.7151H47.7584V65.0201C47.7584 65.9028 47.4078 66.7493 46.7836 67.3735C46.1595 67.9976 45.313 68.3482 44.4303 68.3482C43.5476 68.3482 42.7011 67.9976 42.0769 67.3735C41.4527 66.7493 41.1021 65.9028 41.1021 65.0201V46.7151H22.7972C21.9145 46.7151 21.0679 46.3645 20.4438 45.7403C19.8196 45.1162 19.469 44.2696 19.469 43.387C19.469 42.5043 19.8196 41.6577 20.4438 41.0336C21.0679 40.4094 21.9145 40.0588 22.7972 40.0588H41.1021V21.7538C41.1021 20.8711 41.4527 20.0246 42.0769 19.4005C42.7011 18.7763 43.5476 18.4257 44.4303 18.4257C45.313 18.4257 46.1595 18.7763 46.7836 19.4005C47.4078 20.0246 47.7584 20.8711 47.7584 21.7538V40.0588H66.0634C66.9461 40.0588 67.7926 40.4094 68.4168 41.0336C69.0409 41.6577 69.3916 42.5043 69.3916 43.387Z" fill="white"/>
</svg>
