<svg width="19" height="16" viewBox="0 0 19 16" fill="none" xmlns="http://www.w3.org/2000/svg">
<path d="M17.2709 0.0522461H1.69356C1.12354 0.0522461 0.659668 0.51612 0.659668 1.08614V11.3561C0.659668 11.9262 1.12354 12.39 1.69356 12.39H17.2709C17.8409 12.39 18.3048 11.9262 18.3048 11.3561V1.08614C18.3048 0.51612 17.8409 0.0522461 17.2709 0.0522461Z" fill="#2ED8B6"/>
<path d="M14.9963 14.9406H12.2048V13.4242H6.75963V14.9406H3.96812C3.68276 14.9406 3.45117 15.1722 3.45117 15.4575C3.45117 15.7429 3.68276 15.9745 3.96812 15.9745H14.9963C15.2817 15.9745 15.5133 15.7429 15.5133 15.4575C15.5133 15.1722 15.2817 14.9406 14.9963 14.9406Z" fill="#2ED8B6"/>
</svg>
