<svg width="25" height="31" viewBox="0 0 25 31" fill="none" xmlns="http://www.w3.org/2000/svg">
<path d="M10.3636 26.727L10.3637 26.7271C11.8953 28.2611 13.932 29.105 16.1007 29.105C19.7372 29.105 22.6965 26.1469 22.6965 22.5105V8.40823C22.6965 7.81533 22.2142 7.33197 21.6202 7.33197C21.0263 7.33197 20.544 7.81528 20.544 8.40823V13.9265C20.544 14.3478 20.2021 14.6897 19.7808 14.6897C19.3595 14.6897 19.0177 14.3478 19.0177 13.9265V5.95565C19.0177 5.36275 18.5354 4.87938 17.9414 4.87938C17.3474 4.87938 16.8651 5.36275 16.8651 5.95565V13.9265C16.8651 14.3478 16.5233 14.6897 16.102 14.6897C15.6807 14.6897 15.3388 14.3478 15.3388 13.9265V3.50312C15.3388 2.91022 14.8565 2.42686 14.2626 2.42686C13.6686 2.42686 13.1863 2.91017 13.1863 3.50312V13.9265C13.1863 14.3478 12.8444 14.6897 12.4231 14.6897C12.0018 14.6897 11.66 14.3478 11.66 13.9265V5.95565C11.66 5.36275 11.1777 4.87938 10.5837 4.87938C9.98975 4.87938 9.50745 5.36274 9.50745 5.9557V18.8317C9.50745 19.0959 9.37011 19.3415 9.14586 19.4803C8.92215 19.6196 8.63874 19.6315 8.40378 19.514C8.40377 19.514 8.40376 19.514 8.40375 19.514L4.14506 17.3852L10.3636 26.727ZM10.3636 26.727L2.43323 18.7979L2.43294 18.7976M10.3636 26.727L2.43294 18.7976M2.43294 18.7976C2.25082 18.6165 2.14976 18.3742 2.14976 18.1081M2.43294 18.7976L2.14976 18.1081M2.14976 18.1081C2.14976 17.5754 2.58292 17.1422 3.11566 17.1422M2.14976 18.1081L3.11566 17.1422M3.11566 17.1422C3.47112 17.1422 3.82589 17.2262 4.14488 17.3851L3.11566 17.1422ZM21.6202 5.80565C21.2369 5.80565 20.8721 5.88924 20.544 6.03917V5.95565C20.544 4.5202 19.3769 3.35306 17.9414 3.35306C17.5581 3.35306 17.1933 3.43665 16.8651 3.58659V3.50306C16.8651 2.06767 15.698 0.900537 14.2626 0.900537C12.8271 0.900537 11.66 2.06767 11.66 3.50312V3.58664C11.3319 3.43671 10.967 3.35312 10.5837 3.35312C9.14826 3.35312 7.98113 4.52025 7.98113 5.9557V17.5968L4.8272 16.0193L4.82719 16.0193C4.29857 15.7549 3.70657 15.6159 3.11566 15.6159C1.73997 15.6159 0.623437 16.7344 0.623437 18.1155C0.623437 18.782 0.88332 19.4075 1.35412 19.8783L9.28319 27.8073C11.103 29.6284 13.5263 30.6313 16.102 30.6313C20.5798 30.6313 24.2228 26.9883 24.2228 22.5105V8.40823C24.2228 6.97278 23.0557 5.80565 21.6202 5.80565Z" fill="white" stroke="white" stroke-width="0.3"/>
</svg>
