<svg width="20" height="20" viewBox="0 0 20 20" fill="none" xmlns="http://www.w3.org/2000/svg">
<path d="M9.75392 12.1842C9.75173 12.1842 9.74954 12.1842 9.74734 12.1842C9.34389 12.1805 9.01937 11.8505 9.02303 11.4467L9.02632 11.0813C9.02632 11.0604 9.02742 11.0392 9.02961 11.0184C9.13084 9.95531 9.83651 9.30372 10.4041 8.78003C10.5963 8.60243 10.7783 8.43469 10.9332 8.25964C11.1222 8.04658 11.3962 7.61024 11.1079 7.08363C10.7757 6.47553 9.96442 6.3034 9.33403 6.44775C8.67549 6.59832 8.43283 7.16074 8.34659 7.48233C8.24207 7.87226 7.84118 8.10359 7.45124 7.99944C7.06131 7.89492 6.82998 7.49403 6.93414 7.1041C7.2254 6.01616 7.98114 5.25786 9.00732 5.02288C10.3883 4.7075 11.7792 5.26553 12.3899 6.38197C12.8982 7.31167 12.759 8.40253 12.0263 9.22917C11.8227 9.45867 11.6053 9.65966 11.3948 9.85372C10.8704 10.3379 10.5426 10.6617 10.487 11.1291L10.4841 11.4591C10.4812 11.8615 10.1545 12.1842 9.75392 12.1842Z" fill="#BBBBBB"/>
<path d="M9.75335 14.3754C9.56332 14.3754 9.37329 14.2987 9.23807 14.1635C9.0992 14.0282 9.02246 13.8382 9.02246 13.6445C9.02246 13.4545 9.0992 13.2645 9.23807 13.1292C9.50851 12.8588 9.9982 12.8588 10.2686 13.1292C10.4075 13.2645 10.4842 13.4545 10.4842 13.6445C10.4842 13.8382 10.4075 14.0246 10.2723 14.1635C10.1334 14.2987 9.94704 14.3754 9.75335 14.3754Z" fill="#BBBBBB"/>
<path d="M9.9739 19.1618C9.14251 19.1618 8.31843 19.0536 7.52431 18.8399C4.10227 17.9193 1.42282 15.0845 0.698138 11.6175C-0.0404299 8.0855 1.32269 4.37256 4.17134 2.15832C5.81804 0.878164 7.89488 0.172852 10.0196 0.172852C11.4905 0.172852 12.9512 0.51491 14.2441 1.16138C17.4371 2.75875 19.5 6.09601 19.5 9.66387C19.5 12.575 18.1263 15.3809 15.8254 17.1694C14.1729 18.4543 12.0946 19.1618 9.9739 19.1618ZM10.0199 1.63464C8.21866 1.63464 6.46013 2.23032 5.06888 3.3124C2.65803 5.18641 1.50395 8.32889 2.12923 11.3182C2.74245 14.251 5.00931 16.6494 7.90438 17.4281C8.57461 17.6083 9.27115 17.7 9.9739 17.7H9.97427C11.7715 17.7 13.5308 17.1018 14.9286 16.0153C16.8761 14.5016 18.0386 12.1273 18.0386 9.66387C18.0386 6.64491 16.2928 3.82074 13.5907 2.46895C12.4995 1.92334 11.265 1.63464 10.0199 1.63464Z" fill="#BBBBBB"/>
</svg>
