<svg width="22" height="16" viewBox="0 0 22 16" fill="none" xmlns="http://www.w3.org/2000/svg">
<path fill-rule="evenodd" clip-rule="evenodd" d="M10.8126 2.00098C7.55898 2.00098 4.91481 4.69098 4.91481 8.00098H7.8637L3.93185 12.001L0 8.00098H2.94889C2.94889 3.58098 6.46789 0.000976562 10.8126 0.000976562C12.3558 0.000976562 13.791 0.460977 15 1.24098L13.5649 2.70098C12.749 2.25098 11.8054 2.00098 10.8126 2.00098ZM14.1363 8.00098L18.0682 4.00098L22 8.00098H19.0511C19.0511 12.421 15.5321 16.001 11.1874 16.001C9.64417 16.001 8.20904 15.541 7 14.761L8.43512 13.301C9.25098 13.751 10.1946 14.001 11.1874 14.001C14.441 14.001 17.0852 11.311 17.0852 8.00098H14.1363Z" fill="#66788A"/>
<mask id="mask0" mask-type="alpha" maskUnits="userSpaceOnUse" x="0" y="0" width="22" height="17">
<path fill-rule="evenodd" clip-rule="evenodd" d="M10.8126 2.00098C7.55898 2.00098 4.91481 4.69098 4.91481 8.00098H7.8637L3.93185 12.001L0 8.00098H2.94889C2.94889 3.58098 6.46789 0.000976562 10.8126 0.000976562C12.3558 0.000976562 13.791 0.460977 15 1.24098L13.5649 2.70098C12.749 2.25098 11.8054 2.00098 10.8126 2.00098ZM14.1363 8.00098L18.0682 4.00098L22 8.00098H19.0511C19.0511 12.421 15.5321 16.001 11.1874 16.001C9.64417 16.001 8.20904 15.541 7 14.761L8.43512 13.301C9.25098 13.751 10.1946 14.001 11.1874 14.001C14.441 14.001 17.0852 11.311 17.0852 8.00098H14.1363Z" fill="white"/>
</mask>
<g mask="url(#mask0)">
</g>
</svg>
