<svg width="23" height="23" viewBox="0 0 23 23" fill="none" xmlns="http://www.w3.org/2000/svg">
<path fill-rule="evenodd" clip-rule="evenodd" d="M11.5107 20.7897C14.0409 20.7897 16.4675 19.7846 18.2567 17.9954C20.0458 16.2063 21.051 13.7797 21.051 11.2494C21.051 8.71917 20.0458 6.29255 18.2567 4.50339C16.4675 2.71423 14.0409 1.7091 11.5107 1.7091C8.9804 1.7091 6.55378 2.71423 4.76462 4.50339C2.97546 6.29255 1.97033 8.71917 1.97033 11.2494C1.97033 13.7797 2.97546 16.2063 4.76462 17.9954C6.55378 19.7846 8.9804 20.7897 11.5107 20.7897ZM11.5107 22.1527C14.4024 22.1527 17.1756 21.0039 19.2204 18.9592C21.2652 16.9144 22.4139 14.1411 22.4139 11.2494C22.4139 8.35771 21.2652 5.58443 19.2204 3.53967C17.1756 1.49492 14.4024 0.346191 11.5107 0.346191C8.61894 0.346191 5.84566 1.49492 3.8009 3.53967C1.75615 5.58443 0.607422 8.35771 0.607422 11.2494C0.607422 14.1411 1.75615 16.9144 3.8009 18.9592C5.84566 21.0039 8.61894 22.1527 11.5107 22.1527Z" fill="#3A3B3F"/>
<path d="M12.7781 9.32495L9.65705 9.7161L9.54529 10.234L10.1586 10.3471C10.5593 10.4425 10.6383 10.587 10.5511 10.9863L9.54529 15.7129C9.28089 16.9354 9.6884 17.5106 10.6465 17.5106C11.3893 17.5106 12.252 17.1671 12.6432 16.6955L12.7631 16.1286C12.4905 16.3684 12.0926 16.4638 11.8282 16.4638C11.4534 16.4638 11.3171 16.2008 11.4138 15.7374L12.7781 9.32495Z" fill="#3A3B3F"/>
<path d="M11.5106 7.84226C12.2633 7.84226 12.8735 7.23207 12.8735 6.47936C12.8735 5.72665 12.2633 5.11646 11.5106 5.11646C10.7579 5.11646 10.1477 5.72665 10.1477 6.47936C10.1477 7.23207 10.7579 7.84226 11.5106 7.84226Z" fill="#3A3B3F"/>
</svg>
