<svg width="14" height="23" viewBox="0 0 14 23" fill="none" xmlns="http://www.w3.org/2000/svg">
<path fill-rule="evenodd" clip-rule="evenodd" d="M14 2.15723V20.8447C14 21.4437 13.7958 21.9528 13.3875 22.3721C12.9792 22.7913 12.4833 23.001 11.9 23.001H2.1C1.51667 23.001 1.02083 22.7913 0.6125 22.3721C0.204167 21.9528 0 21.4437 0 20.8447V2.15723C0 1.55827 0.204167 1.04915 0.6125 0.629883C1.02083 0.210612 1.51667 0.000976562 2.1 0.000976562H11.9C12.4833 0.000976562 12.9792 0.210612 13.3875 0.629883C13.7958 1.04915 14 1.55827 14 2.15723ZM9 18.501C9 18.9072 8.85156 19.2588 8.55469 19.5557C8.25781 19.8525 7.90625 20.001 7.5 20.001C7.09375 20.001 6.74219 19.8525 6.44531 19.5557C6.14844 19.2588 6 18.9072 6 18.501C6 18.0947 6.14844 17.7432 6.44531 17.4463C6.74219 17.1494 7.09375 17.001 7.5 17.001C7.90625 17.001 8.25781 17.1494 8.55469 17.4463C8.85156 17.7432 9 18.0947 9 18.501ZM12 2.27502V20.7269C12 20.7878 11.9702 20.8487 11.9107 20.9096C11.8512 20.9705 11.7917 21.001 11.7321 21.001H2.26786C2.20833 21.001 2.14881 20.9705 2.08929 20.9096C2.02976 20.8487 2 20.7878 2 20.7269V2.27502C2 2.21412 2.02976 2.15322 2.08929 2.09232C2.14881 2.03143 2.20833 2.00098 2.26786 2.00098H11.7321C11.7917 2.00098 11.8512 2.03143 11.9107 2.09232C11.9702 2.15322 12 2.21412 12 2.27502Z" fill="#A6B1BB"/>
</svg>
