<svg width="19" height="17" viewBox="0 0 19 17" fill="none" xmlns="http://www.w3.org/2000/svg">
<path d="M16.9843 0.885742H1.40694C0.83692 0.885742 0.373047 1.34962 0.373047 1.91964V12.1896C0.373047 12.7597 0.83692 13.2235 1.40694 13.2235H16.9843C17.5543 13.2235 18.0182 12.7597 18.0182 12.1896V1.91964C18.0182 1.34962 17.5543 0.885742 16.9843 0.885742Z" fill="#FFB64D"/>
<path d="M14.7097 15.7741H11.9182V14.2577H6.47301V15.7741H3.6815C3.39614 15.7741 3.16455 16.0057 3.16455 16.291C3.16455 16.5764 3.39614 16.808 3.6815 16.808H14.7097C14.995 16.808 15.2266 16.5764 15.2266 16.291C15.2266 16.0057 14.995 15.7741 14.7097 15.7741Z" fill="#FFB64D"/>
</svg>
