<svg width="18" height="18" viewBox="0 0 18 18" fill="none" xmlns="http://www.w3.org/2000/svg">
<path d="M9 0C4.02991 0 0 4.02991 0 9C0 13.9701 4.02991 18 9 18C13.9701 18 18 13.9701 18 9C18 4.02991 13.9701 0 9 0ZM9 16.4732C4.87366 16.4732 1.52679 13.1263 1.52679 9C1.52679 4.87366 4.87366 1.52679 9 1.52679C13.1263 1.52679 16.4732 4.87366 16.4732 9C16.4732 13.1263 13.1263 16.4732 9 16.4732Z" fill="black"/>
<path d="M11.2419 5.07667C10.6392 4.54832 9.84368 4.25903 8.99993 4.25903C8.15618 4.25903 7.36064 4.55033 6.75797 5.07667C6.13118 5.6251 5.78564 6.36238 5.78564 7.15189V7.30457C5.78564 7.39296 5.85797 7.46528 5.94636 7.46528H6.91064C6.99904 7.46528 7.07136 7.39296 7.07136 7.30457V7.15189C7.07136 6.26595 7.93721 5.54475 8.99993 5.54475C10.0627 5.54475 10.9285 6.26595 10.9285 7.15189C10.9285 7.77667 10.4865 8.34921 9.80149 8.61238C9.3756 8.7751 9.01399 9.06037 8.75484 9.43403C8.49167 9.81573 8.35506 10.2738 8.35506 10.7378V11.1697C8.35506 11.2581 8.42739 11.3305 8.51578 11.3305H9.48006C9.56846 11.3305 9.64078 11.2581 9.64078 11.1697V10.7137C9.64182 10.5187 9.7016 10.3285 9.81233 10.168C9.92306 10.0074 10.0796 9.88398 10.2615 9.81372C11.4468 9.35769 12.2122 8.31305 12.2122 7.15189C12.2142 6.36238 11.8687 5.6251 11.2419 5.07667ZM8.19636 13.4197C8.19636 13.6329 8.28102 13.8373 8.43172 13.988C8.58242 14.1387 8.78681 14.2233 8.99993 14.2233C9.21305 14.2233 9.41744 14.1387 9.56814 13.988C9.71884 13.8373 9.8035 13.6329 9.8035 13.4197C9.8035 13.2066 9.71884 13.0022 9.56814 12.8515C9.41744 12.7008 9.21305 12.6162 8.99993 12.6162C8.78681 12.6162 8.58242 12.7008 8.43172 12.8515C8.28102 13.0022 8.19636 13.2066 8.19636 13.4197Z" fill="black"/>
</svg>
