<svg width="19" height="16" viewBox="0 0 19 16" fill="none" xmlns="http://www.w3.org/2000/svg">
<path d="M16.9843 0.0522461H1.40694C0.83692 0.0522461 0.373047 0.51612 0.373047 1.08614V11.3561C0.373047 11.9262 0.83692 12.39 1.40694 12.39H16.9843C17.5543 12.39 18.0182 11.9262 18.0182 11.3561V1.08614C18.0182 0.51612 17.5543 0.0522461 16.9843 0.0522461Z" fill="#FF5370"/>
<path d="M14.7097 14.9406H11.9182V13.4242H6.47301V14.9406H3.6815C3.39614 14.9406 3.16455 15.1722 3.16455 15.4575C3.16455 15.7429 3.39614 15.9745 3.6815 15.9745H14.7097C14.995 15.9745 15.2266 15.7429 15.2266 15.4575C15.2266 15.1722 14.995 14.9406 14.7097 14.9406Z" fill="#FF5370"/>
</svg>
