<svg width="26" height="24" viewBox="0 0 26 24" fill="none" xmlns="http://www.w3.org/2000/svg">
<path d="M15.1878 7.07028H7.22847C6.70695 7.07028 6.28369 6.64702 6.28369 6.1255C6.28369 5.60399 6.70695 5.18073 7.22847 5.18073H15.1878C15.7093 5.18073 16.1325 5.60399 16.1325 6.1255C16.1325 6.64702 15.7093 7.07028 15.1878 7.07028Z" fill="#646465"/>
<path d="M7.22854 18.503C3.6176 18.503 0.567383 15.4524 0.567383 11.8419C0.567383 8.23141 3.6176 5.18073 7.22854 5.18073C7.75006 5.18073 8.17332 5.60399 8.17332 6.1255C8.17332 6.64702 7.75006 7.07028 7.22854 7.07028C4.64221 7.07028 2.45694 9.25508 2.45694 11.8419C2.45694 14.4287 4.64174 16.6135 7.22854 16.6135C7.75006 16.6135 8.17332 17.0368 8.17332 17.5583C8.17332 18.0798 7.75006 18.503 7.22854 18.503Z" fill="#646465"/>
<path d="M18.4709 18.503H10.5112C9.98967 18.503 9.56641 18.0798 9.56641 17.5582C9.56641 17.0367 9.98967 16.6135 10.5112 16.6135H18.4705C18.992 16.6135 19.4153 17.0367 19.4153 17.5582C19.4153 18.0798 18.9925 18.503 18.4709 18.503Z" fill="#646465"/>
<path d="M18.4711 18.503C17.9496 18.503 17.5264 18.0798 17.5264 17.5583C17.5264 17.0368 17.9496 16.6135 18.4711 16.6135C21.0575 16.6135 23.2427 14.4287 23.2427 11.8419C23.2427 9.25508 21.0575 7.07028 18.4711 7.07028C17.9496 7.07028 17.5264 6.64702 17.5264 6.1255C17.5264 5.60399 17.9496 5.18073 18.4711 5.18073C22.0821 5.18073 25.1323 8.23141 25.1323 11.8419C25.1323 15.4524 22.0816 18.503 18.4711 18.503Z" fill="#646465"/>
<path d="M10.5111 11.7468C10.2692 11.7468 10.0273 11.6547 9.84311 11.47C9.47417 11.1011 9.47417 10.503 9.84311 10.1341L14.5193 5.45792C14.8878 5.08898 15.4867 5.08898 15.8552 5.45792C16.2241 5.82685 16.2241 6.4249 15.8552 6.79383L11.179 11.47C10.9948 11.6547 10.7529 11.7468 10.5111 11.7468Z" fill="#646465"/>
<path d="M15.1877 7.07032C14.9459 7.07032 14.704 6.9782 14.5198 6.7935L9.8436 2.11732C9.47466 1.74838 9.47466 1.15034 9.8436 0.781402C10.2121 0.412466 10.811 0.412466 11.1795 0.781402L15.8557 5.45758C16.2246 5.82652 16.2246 6.42456 15.8557 6.7935C15.6715 6.9782 15.4296 7.07032 15.1877 7.07032Z" fill="#646465"/>
<path d="M10.5111 18.5031C10.2692 18.5031 10.0273 18.4109 9.84311 18.2262C9.47417 17.8573 9.47417 17.2593 9.84311 16.8903L14.5193 12.2141C14.8878 11.8452 15.4867 11.8452 15.8552 12.2141C16.2241 12.5831 16.2241 13.1811 15.8552 13.5501L11.179 18.2262C10.9948 18.4105 10.7529 18.5031 10.5111 18.5031Z" fill="#646465"/>
<path d="M15.1877 23.1792C14.9459 23.1792 14.704 23.0871 14.5198 22.9024L9.8436 18.2262C9.47466 17.8573 9.47466 17.2592 9.8436 16.8903C10.2121 16.5214 10.811 16.5214 11.1795 16.8903L15.8557 21.5665C16.2246 21.9354 16.2246 22.5335 15.8557 22.9024C15.6715 23.0871 15.4296 23.1792 15.1877 23.1792Z" fill="#646465"/>
</svg>
