<svg width="9" height="11" viewBox="0 0 9 11" fill="none" xmlns="http://www.w3.org/2000/svg">
<path d="M5.11719 6.62813C5.99406 6.62813 6.83502 6.27979 7.45506 5.65975C8.0751 5.0397 8.42344 4.19875 8.42344 3.32188C8.42344 2.445 8.0751 1.60405 7.45506 0.984003C6.83502 0.363961 5.99406 0.015625 5.11719 0.015625H0.25V1.01562H1.49822V5.62813H0.25V6.62813H1.49822V8H0.25V9H1.49822V10.75H2.49822V9H5.5V8H2.49822V6.62813H5.11719ZM2.49822 1.01562H5.11719C5.72884 1.01562 6.31545 1.2586 6.74795 1.69111C7.18046 2.12362 7.42344 2.71022 7.42344 3.32188C7.42344 3.93353 7.18046 4.52013 6.74795 4.95264C6.31545 5.38515 5.72884 5.62813 5.11719 5.62813H2.49822V1.01562Z" fill="black"/>
</svg>
