<svg width="121" height="121" viewBox="0 0 121 121" fill="none" xmlns="http://www.w3.org/2000/svg">
<g clip-path="url(#clip0)">
<path d="M121.001 60.4995C121.001 93.9129 93.9135 120.999 60.501 120.999C27.0876 120.999 0.00146484 93.9129 0.00146484 60.4995C0.00146484 27.0861 27.0876 -9.53674e-07 60.501 -9.53674e-07C93.9135 -9.53674e-07 121.001 27.0861 121.001 60.4995Z" fill="#8F95E6"/>
<path d="M60.501 116.273C27.8797 116.273 1.29295 90.453 0.051315 58.1363C0.020851 58.9209 0.00146484 59.7075 0.00146484 60.4995C0.00146484 93.912 27.0876 120.999 60.501 120.999C93.9135 120.999 121.001 93.912 121.001 60.4995C121.001 59.7075 120.98 58.9209 120.95 58.1363C119.708 90.453 93.1214 116.273 60.501 116.273Z" fill="#6770E6"/>
<path d="M76.4344 24.2439C75.7466 21.5852 72.8119 17.816 61.6935 17.816C44.5155 17.816 42.0692 20.3602 37.4977 15.9669C33.6408 12.2605 31.3754 30.0994 36.5183 35.7648C34.348 43.7888 36.0844 51.8257 36.0844 51.8257H84.4159C84.415 51.8257 88.4713 33.0526 76.4344 24.2439Z" fill="#746C6C"/>
<path d="M37.4964 20.2568C42.0688 24.6501 44.5142 22.1059 61.6922 22.1059C72.8115 22.1059 75.7462 25.8742 76.433 28.5337C82.8351 33.2178 84.6851 40.7202 85.0137 46.7189C85.3368 40.5135 84.4986 30.1456 76.433 24.2448C75.7462 21.5852 72.8115 17.8169 61.6922 17.8169C44.5142 17.8169 42.0688 20.3602 37.4964 15.9669C34.9615 13.5307 33.1152 20.4017 33.6063 27.0078C33.9626 22.1234 35.519 18.356 37.4964 20.2568Z" fill="#696161"/>
<path d="M40.9648 52.6694C40.9648 52.6694 38.8812 48.8531 34.7141 48.8531C30.5469 48.8531 27.5947 67.1741 40.9648 64.1202V52.6694Z" fill="#EFC7B0"/>
<path d="M79.5347 52.6694C79.5347 52.6694 81.6182 48.8531 85.7854 48.8531C89.9534 48.8531 92.9047 67.1741 79.5347 64.1202V52.6694Z" fill="#EFC7B0"/>
<path d="M60.25 28.1194C28.3238 28.1194 34.4277 80.4804 60.25 80.4804C86.0715 80.4804 92.1762 28.1194 60.25 28.1194Z" fill="#F2D3C2"/>
<path d="M60.2494 25.2696C60.2494 25.2696 38.5332 22.2056 38.5332 50.0691C38.5332 50.0691 41.2676 38.5528 47.5404 35.4122C50.4621 33.949 51.5321 37.6555 60.2494 37.6555C68.9658 37.6555 70.0366 33.949 72.9575 35.4122C79.2312 38.5528 81.9646 50.0691 81.9646 50.0691C81.9646 22.2056 60.2494 25.2696 60.2494 25.2696Z" fill="#746C6C"/>
<path d="M104.18 102.358C102.628 98.5554 99.4753 95.5072 95.4033 94.1686L75.7846 87.7223C73.9336 87.1139 72.6763 85.3941 72.6588 83.4453L72.5886 75.5229C69.3096 78.4751 65.2274 80.3048 60.4538 80.3472C55.6811 80.3888 51.5676 78.6311 48.2359 75.738L48.3033 83.3826C48.3209 85.3609 47.0561 87.1232 45.1757 87.7407L25.5643 94.1723C21.5015 95.5054 18.3517 98.5398 16.7935 102.329C27.8066 113.834 43.3165 120.999 60.5009 120.999C77.6696 120.999 93.1675 113.846 104.18 102.358Z" fill="#4099FF"/>
<path d="M62.6149 120.958C62.9629 120.946 63.311 120.935 63.6571 120.918C63.8621 120.908 64.0661 120.891 64.2701 120.879C64.5877 120.86 64.9052 120.842 65.2219 120.817C65.4361 120.801 65.6484 120.778 65.8625 120.76C66.1672 120.733 66.4718 120.708 66.7755 120.677C66.9943 120.655 67.2122 120.627 67.4301 120.602C67.7264 120.569 68.0218 120.537 68.3163 120.499C68.5378 120.47 68.7585 120.437 68.9782 120.405C69.268 120.365 69.5579 120.325 69.8469 120.281C70.0675 120.247 70.2863 120.208 70.506 120.172C70.7931 120.124 71.0802 120.078 71.3654 120.025C71.5842 119.985 71.8012 119.942 72.02 119.901C72.3043 119.845 72.5877 119.792 72.8702 119.732C73.0871 119.688 73.3022 119.639 73.5182 119.592C73.7998 119.53 74.0823 119.468 74.3629 119.403C74.5762 119.353 74.7885 119.3 75.0008 119.248C75.2814 119.179 75.5621 119.109 75.8427 119.036C76.0523 118.981 76.2609 118.923 76.4695 118.867C76.7493 118.79 77.029 118.713 77.3078 118.633C77.5127 118.574 77.7167 118.511 77.9217 118.45C78.2014 118.366 78.4811 118.282 78.7589 118.195C78.9593 118.131 79.1587 118.065 79.3581 118C79.6378 117.908 79.9166 117.816 80.1944 117.72C80.3902 117.653 80.584 117.583 80.7788 117.514C81.0585 117.415 81.3373 117.314 81.6152 117.211C81.8053 117.14 81.9955 117.067 82.1857 116.994C82.4635 116.887 82.7414 116.779 83.0184 116.669C83.2039 116.594 83.3895 116.517 83.5741 116.441C83.8529 116.326 84.1308 116.209 84.4077 116.09C84.5877 116.013 84.7659 115.935 84.9441 115.855C85.2238 115.732 85.5016 115.607 85.7786 115.48C85.9521 115.399 86.1257 115.319 86.2974 115.237C86.578 115.105 86.8577 114.97 87.1356 114.833C87.3018 114.752 87.467 114.67 87.6323 114.587C87.9138 114.446 88.1935 114.302 88.4723 114.157C88.632 114.073 88.7917 113.989 88.9505 113.904C89.2321 113.753 89.5118 113.601 89.7906 113.447C89.9438 113.362 90.0971 113.276 90.2503 113.189C90.531 113.03 90.8116 112.869 91.0895 112.705C91.2362 112.619 91.383 112.533 91.5298 112.445C91.8123 112.276 92.0938 112.104 92.3736 111.93C92.512 111.844 92.6505 111.757 92.7881 111.671C93.0724 111.491 93.3549 111.308 93.6355 111.123C93.7666 111.037 93.8977 110.952 94.0278 110.866C94.3131 110.675 94.5965 110.482 94.8781 110.287C95.0008 110.201 95.1245 110.117 95.2464 110.031C95.5344 109.829 95.8197 109.623 96.1031 109.416C96.2166 109.334 96.3302 109.252 96.4428 109.169C96.7336 108.954 97.0216 108.735 97.3087 108.514C97.4112 108.436 97.5146 108.357 97.6171 108.278C97.9115 108.049 98.2023 107.816 98.4922 107.583C98.5845 107.508 98.6787 107.434 98.771 107.359C99.0701 107.114 99.3664 106.866 99.6609 106.615C99.7403 106.547 99.8206 106.481 99.8991 106.413C100.206 106.149 100.508 105.882 100.809 105.614C100.875 105.555 100.941 105.498 101.006 105.438C101.321 105.155 101.631 104.868 101.939 104.578C101.989 104.531 102.04 104.485 102.09 104.439C102.417 104.128 102.741 103.814 103.062 103.496C103.089 103.468 103.119 103.441 103.148 103.413C103.494 103.068 103.836 102.72 104.175 102.366C104.177 102.364 104.179 102.363 104.18 102.362C103.74 101.283 103.167 100.269 102.486 99.3337C91.6064 109.821 76.8074 116.273 60.5009 116.273C44.1824 116.273 29.3741 109.811 18.4939 99.3087C17.8108 100.241 17.2356 101.254 16.7935 102.329C16.7962 102.333 16.8008 102.337 16.8036 102.339C17.1396 102.69 17.4803 103.037 17.8246 103.381C17.8634 103.42 17.904 103.457 17.9428 103.496C18.253 103.803 18.565 104.107 18.8816 104.407C18.9453 104.467 19.0099 104.526 19.0736 104.585C19.3681 104.862 19.6645 105.137 19.9645 105.409C20.0448 105.482 20.126 105.552 20.2073 105.625C20.4925 105.881 20.7796 106.134 21.0704 106.384C21.1646 106.466 21.2615 106.545 21.3566 106.626C21.6354 106.863 21.916 107.099 22.1994 107.331C22.3065 107.42 22.4164 107.505 22.5234 107.592C22.7985 107.814 23.0736 108.034 23.3524 108.251C23.4697 108.344 23.5888 108.432 23.7069 108.524C23.9783 108.732 24.2516 108.94 24.5276 109.144C24.6541 109.238 24.7833 109.33 24.9107 109.424C25.1803 109.62 25.4508 109.815 25.7231 110.007C25.8597 110.103 25.9982 110.197 26.1357 110.292C26.4025 110.478 26.6721 110.662 26.9426 110.843C27.0866 110.939 27.2315 111.033 27.3764 111.128C27.6432 111.303 27.9109 111.477 28.1805 111.648C28.3328 111.744 28.4861 111.84 28.6393 111.935C28.9052 112.1 29.172 112.263 29.4397 112.424C29.5994 112.519 29.76 112.613 29.9197 112.707C30.1847 112.863 30.4524 113.018 30.7201 113.17C30.8853 113.264 31.0506 113.355 31.2167 113.448C31.4835 113.595 31.7512 113.742 32.0208 113.885C32.1907 113.977 32.3624 114.066 32.5332 114.156C32.8009 114.295 33.0686 114.433 33.3381 114.569C33.5145 114.658 33.6926 114.747 33.8708 114.833C34.1376 114.964 34.4062 115.095 34.6749 115.221C34.8576 115.308 35.0404 115.394 35.2241 115.478C35.4919 115.6 35.7596 115.722 36.0291 115.841C36.2174 115.925 36.4058 116.008 36.595 116.089C36.8627 116.204 37.1314 116.317 37.4018 116.429C37.5948 116.509 37.7896 116.588 37.9844 116.667C38.2521 116.774 38.5207 116.879 38.7903 116.982C38.9887 117.059 39.1872 117.135 39.3875 117.21C39.6571 117.309 39.9276 117.407 40.1981 117.504C40.4002 117.576 40.6033 117.648 40.8064 117.718C41.0769 117.811 41.3483 117.901 41.6206 117.991C41.8274 118.058 42.0342 118.126 42.2419 118.192C42.5133 118.278 42.7857 118.36 43.058 118.442C43.2694 118.506 43.4799 118.569 43.6931 118.631C43.9654 118.71 44.2396 118.784 44.5129 118.86C44.728 118.918 44.9412 118.978 45.1563 119.035C45.4314 119.106 45.7074 119.174 45.9834 119.242C46.2004 119.296 46.4173 119.35 46.6352 119.401C46.9112 119.466 47.1891 119.527 47.4669 119.588C47.6876 119.636 47.9073 119.685 48.1288 119.732C48.4067 119.789 48.6864 119.842 48.9652 119.897C49.1877 119.939 49.4102 119.984 49.6336 120.024C49.9142 120.076 50.1967 120.121 50.4792 120.168C50.7035 120.206 50.9269 120.245 51.1522 120.28C51.4374 120.324 51.7236 120.363 52.0098 120.404C52.2341 120.435 52.4575 120.469 52.6827 120.498C52.9726 120.535 53.2653 120.567 53.5579 120.6C53.7804 120.626 54.0019 120.654 54.2253 120.677C54.5244 120.707 54.8254 120.732 55.1263 120.759C55.3433 120.778 55.5602 120.8 55.779 120.817C56.0938 120.842 56.4095 120.859 56.7261 120.879C56.9311 120.892 57.1369 120.908 57.3428 120.918C57.6945 120.936 58.0481 120.947 58.4007 120.959C58.5734 120.965 58.7441 120.974 58.9168 120.979C59.443 120.993 59.971 121 60.5009 121C61.0299 121 61.5579 120.993 62.0841 120.98C62.2613 120.974 62.4377 120.965 62.6149 120.958Z" fill="#1770D6"/>
<path d="M59.7802 104.889C69.8398 104.889 78.4204 98.5748 81.7872 89.6951L75.7839 87.7223C73.933 87.1139 72.6757 85.3932 72.6591 83.4453L72.5889 75.5229C69.309 78.4751 65.2277 80.3048 60.4541 80.3472C55.6805 80.3888 51.5669 78.6311 48.2362 75.738L48.3036 83.3826C48.3211 85.3609 47.0564 87.1232 45.176 87.7407L37.9385 90.1142C41.4132 98.7724 49.8794 104.889 59.7802 104.889Z" fill="#EFC7B0"/>
<path d="M60.501 4.72652C93.1214 4.72652 119.708 30.5461 120.95 62.8628C120.98 62.0781 121.001 61.2916 121.001 60.4995C121.001 27.0871 93.9135 -9.53674e-07 60.501 -9.53674e-07C27.0876 -9.53674e-07 0.00146484 27.0871 0.00146484 60.4995C0.00146484 61.2916 0.020851 62.0781 0.051315 62.8628C1.29295 30.5461 27.8797 4.72652 60.501 4.72652Z" fill="#9FA5FF"/>
</g>
<defs>
<clipPath id="clip0">
<rect width="121" height="121" fill="white"/>
</clipPath>
</defs>
</svg>
