<svg width="121" height="121" viewBox="0 0 121 121" fill="none" xmlns="http://www.w3.org/2000/svg">
<path d="M5.80704 82.1403H115.193C117.269 76.1766 118.401 69.7704 118.401 63.0991C118.401 31.1213 92.4775 5.19827 60.4997 5.19827C28.522 5.19827 2.59912 31.1213 2.59912 63.0991C2.59912 69.7704 3.7309 76.1764 5.80704 82.1403Z" fill="#4CE088"/>
<path d="M5.80713 18.729V82.1403C9.9398 94.012 17.8289 104.123 28.0494 111.054L92.9432 111.059C103.167 104.128 111.059 94.0149 115.193 82.1403V18.729H5.80713Z" fill="#D3DCFB"/>
<path d="M5.80713 82.1403C9.9398 94.012 17.8289 104.123 28.0494 111.054L52.3075 111.056V40.3894C44.1091 39.5521 46.136 32.3644 46.136 32.3644C37.7925 28.7013 42.1905 19.2014 42.1905 19.2014C41.9726 19.0459 41.7782 18.8881 41.5976 18.7288H5.80713V82.1403Z" fill="#BEC8F7"/>
<path d="M32.8323 12.1638C32.8323 16.0507 29.6813 19.2017 25.7944 19.2017H115.193V12.1638H32.8323Z" fill="#E9EFFF"/>
<path d="M25.7944 19.2017H42.1904C38.0941 16.2797 40.8906 12.5845 40.8906 12.5845C40.749 12.4429 40.624 12.3025 40.5115 12.1638H32.8323C32.8323 16.0507 29.6813 19.2017 25.7944 19.2017Z" fill="#D3DCFB"/>
<path d="M5.80713 12.1638V19.2017H26.2672C30.1541 19.2017 33.3051 16.0507 33.3051 12.1638H5.80713Z" fill="#4FABF7"/>
<path d="M111.165 0H9.83487C7.61055 0 5.80713 1.80318 5.80713 4.02774V12.5845H115.193V4.02774C115.193 1.80318 113.39 0 111.165 0Z" fill="#808080"/>
<path d="M40.8907 0H9.83487C7.61055 0 5.80713 1.80318 5.80713 4.02774V12.5845H40.8907C38.445 10.1387 40.5183 8.0647 40.5183 8.0647V4.51978C38.2559 2.25717 40.8907 0 40.8907 0Z" fill="#726A6A"/>
<path d="M16.2431 8.77416C17.6139 8.77416 18.7251 7.66297 18.7251 6.29224C18.7251 4.92151 17.6139 3.81032 16.2431 3.81032C14.8724 3.81032 13.7612 4.92151 13.7612 6.29224C13.7612 7.66297 14.8724 8.77416 16.2431 8.77416Z" fill="#FF4155"/>
<path d="M23.5332 8.77416C24.9039 8.77416 26.0151 7.66297 26.0151 6.29224C26.0151 4.92151 24.9039 3.81032 23.5332 3.81032C22.1625 3.81032 21.0513 4.92151 21.0513 6.29224C21.0513 7.66297 22.1625 8.77416 23.5332 8.77416Z" fill="#FFDD40"/>
<path d="M30.8232 8.77416C32.194 8.77416 33.3051 7.66297 33.3051 6.29224C33.3051 4.92151 32.194 3.81032 30.8232 3.81032C29.4525 3.81032 28.3413 4.92151 28.3413 6.29224C28.3413 7.66297 29.4525 8.77416 30.8232 8.77416Z" fill="#4CE088"/>
<path d="M92.8775 8.0647H40.5186C39.5397 8.0647 38.7461 7.27134 38.7461 6.29224C38.7461 5.31313 39.5397 4.51978 40.5186 4.51978H92.8775C93.8564 4.51978 94.65 5.31313 94.65 6.29224C94.65 7.27134 93.8564 8.0647 92.8775 8.0647Z" fill="#D1CBBB"/>
<path d="M105.651 8.0647H101.132C100.153 8.0647 99.3599 7.27134 99.3599 6.29224C99.3599 5.31313 100.153 4.51978 101.132 4.51978H105.651C106.63 4.51978 107.423 5.31313 107.423 6.29224C107.423 7.27134 106.63 8.0647 105.651 8.0647Z" fill="#D1CBBB"/>
<path d="M28.6219 111.437C28.6275 111.441 28.6335 111.445 28.6391 111.448L93.5537 110.639C93.5575 110.637 93.5613 110.634 93.5651 110.631C102.254 102.107 107.647 90.2336 107.647 77.0992C107.647 51.1558 86.6159 30.1245 60.6725 30.1245C34.7291 30.1245 13.6978 51.1558 13.6978 77.0992C13.6978 90.6529 19.4401 102.863 28.6219 111.437Z" fill="#E9EFFF"/>
<path d="M28.2215 111.054L52.3074 111.056V40.3894C44.5504 39.5972 45.9471 33.1211 46.1199 32.4261C27.3008 38.5527 13.6978 56.2362 13.6978 77.0994C13.6978 90.4536 19.2751 102.501 28.2215 111.054Z" fill="#D3DCFB"/>
<path d="M52.4059 94.4906C54.7151 96.2839 57.5649 97.2578 60.4999 97.2578C63.4349 97.2578 66.2845 96.2836 68.5939 94.4906C70.3054 93.1615 72.1317 91.3524 73.7298 89.073C73.3018 88.9494 72.8691 88.8324 72.4314 88.7228C71.9361 88.5987 71.501 88.3009 71.22 87.9044C69.9247 86.0769 69.5659 83.252 69.4955 81.2033C68.5868 82.2616 67.6332 83.1469 66.722 83.8544C63.0676 86.6923 57.9275 86.6885 54.2781 83.8544C53.3668 83.1469 52.4135 82.2616 51.5048 81.2033C51.4327 83.2976 51.0598 86.2033 49.6929 88.0251C49.4596 88.3359 49.1004 88.59 48.6693 88.6968C48.1978 88.8135 47.7316 88.9393 47.27 89.0726C48.8678 91.3519 50.6942 93.1613 52.4059 94.4906Z" fill="#EFC7B0"/>
<path d="M60.399 85.9792C58.2342 85.9577 56.0754 85.2499 54.2781 83.8542C53.3668 83.1466 52.4135 82.2613 51.5048 81.203C51.4327 83.2974 51.0598 86.203 49.6929 88.0249C49.4596 88.3357 49.1004 88.5897 48.6693 88.6965C48.1978 88.8133 47.7316 88.939 47.27 89.0723C48.8681 91.3519 50.6944 93.1612 52.4061 94.4904C53.3609 95.232 54.4093 95.8308 55.5169 96.2812C59.0219 93.0634 60.0901 88.7445 60.399 85.9792Z" fill="#FAC1A1"/>
<path d="M57.4916 38.643C48.4573 39.874 47.5987 44.9962 47.5947 46.8752C47.5937 47.2694 47.3754 47.6345 47.0211 47.8071C42.3217 50.0931 44.8554 61.1109 44.8554 61.1109C45.3273 61.1423 46.0351 61.5474 46.4036 61.7258C46.4938 61.1643 46.6411 60.6115 46.849 60.0774C47.0076 59.6703 47.2057 59.259 47.4533 58.8705C47.8832 58.1963 48.0789 57.401 48.0205 56.6058C47.8516 54.3073 47.7192 49.9919 50.7532 48.6269C53.3235 47.4703 56.4766 48.14 58.4873 48.8086C59.793 49.2427 61.2076 49.2427 62.5133 48.8086C64.524 48.14 67.6769 47.4703 70.2474 48.6269C73.2729 49.9881 73.1486 54.2815 72.9815 56.5862C72.9234 57.3873 73.1138 58.1911 73.547 58.8703C73.8027 59.2713 74.0055 59.6967 74.1667 60.1167C74.3669 60.6387 74.5091 61.178 74.597 61.7258C75.0614 61.5009 75.9389 61.0419 76.5068 61.1223C76.5763 58.7131 76.7987 56.1159 76.7987 56.1159C79.4756 43.0037 67.2189 37.3176 57.4916 38.643Z" fill="#808080"/>
<path d="M57.4916 38.6434C48.4573 39.8745 47.5987 44.9967 47.5947 46.8757C47.5937 47.2699 47.3754 47.635 47.0211 47.8075C42.3217 50.0935 44.8554 61.1114 44.8554 61.1114C45.3273 61.1428 46.0351 61.5479 46.4036 61.7263C46.4939 61.1648 46.6411 60.612 46.8491 60.0779C47.0076 59.6707 47.2057 59.2595 47.4533 58.871C47.8832 58.1968 48.0789 57.4015 48.0205 56.6063C47.8516 54.3078 47.7192 49.9924 50.7532 48.6274C53.3235 47.4708 56.4766 48.1405 58.4873 48.8091C58.9843 48.9743 59.4971 49.0759 60.0135 49.1154C59.9156 48.9554 59.8064 48.7997 59.6833 48.6496C55.4998 43.5551 60.6551 38.4773 60.6726 38.4601C59.5975 38.4412 58.53 38.5021 57.4916 38.6434Z" fill="#746C6C"/>
<path d="M77.308 61.4351C76.6044 60.7902 75.2028 61.1171 74.5968 61.512C74.7296 62.3386 74.7372 63.1845 74.6223 64.0199L73.9072 69.2283C73.9072 69.6483 73.894 70.0602 73.8696 70.4648C75.6135 70.9908 76.4796 69.4252 76.6257 68.3508C76.6886 67.8883 76.7911 67.4324 76.9336 66.9877C77.3975 65.5392 79.071 63.0507 77.308 61.4351Z" fill="#EFC7B0"/>
<path d="M43.692 61.4351C44.3955 60.7902 45.7972 61.1171 46.4032 61.512C46.2703 62.3386 46.2628 63.1845 46.3776 64.0199L47.0928 69.2283C47.0928 69.6483 47.106 70.0602 47.1303 70.4648C45.3865 70.9908 44.5203 69.4252 44.3743 68.3508C44.3114 67.8883 44.2088 67.4324 44.0663 66.9877C43.6024 65.5392 41.929 63.0507 43.692 61.4351Z" fill="#EFC7B0"/>
<path d="M74.38 59.9028C74.2191 59.4829 74.0161 59.0575 73.7604 58.6564C73.3274 57.977 73.1367 57.1735 73.1948 56.3721C73.3617 54.0674 73.2724 49.5601 70.2469 48.1989C67.6766 47.0423 64.524 47.7121 62.5133 48.3806C61.2076 48.815 59.7924 48.815 58.4865 48.3806C56.4758 47.7121 53.323 47.0425 50.7529 48.1989C47.7189 49.5639 47.6376 54.0931 47.8063 56.3917C47.8647 57.1869 47.669 57.9822 47.2394 58.6564C46.9917 59.0449 46.7937 59.4564 46.6351 59.8633C46.1211 61.1839 45.9713 62.6161 46.1636 64.0185L46.879 69.2281C46.879 76.7178 50.8772 81.8085 54.278 84.4495C56.053 85.828 58.2438 86.5767 60.5 86.5767C62.7562 86.5767 64.9468 85.828 66.7221 84.4495C70.1228 81.8085 74.121 76.7178 74.121 69.2281L74.8361 64.0196C75.0269 62.6312 74.8822 61.213 74.38 59.9028Z" fill="#EFC7B0"/>
<path d="M63.9674 84.45C60.5666 81.809 56.5684 76.7183 56.5684 69.2285L55.8531 64.0189C55.6605 62.6166 55.8103 61.1844 56.3246 59.8638C56.4831 59.4566 56.6812 59.0454 56.9288 58.6569C57.3587 57.9826 57.5544 57.1874 57.4958 56.3921C57.3424 54.3037 57.3961 50.3743 59.683 48.6493C59.2784 48.5971 58.8774 48.5108 58.4865 48.3811C56.4758 47.7125 53.323 47.043 50.7529 48.1994C47.7189 49.5644 47.6376 54.0936 47.8063 56.3921C47.8647 57.1874 47.669 57.9826 47.2394 58.6569C46.9917 59.0454 46.7937 59.4569 46.6351 59.8638C46.1211 61.1844 45.9713 62.6166 46.1636 64.0189L46.879 69.2285C46.879 76.7183 50.8772 81.809 54.278 84.45C56.053 85.8285 58.2438 86.5772 60.5 86.5772C62.2025 86.5772 63.8672 86.1503 65.3447 85.3487C64.864 85.0881 64.4032 84.7882 63.9674 84.45Z" fill="#FAC1A1"/>
<path d="M85.615 94.1051C84.4542 94.0101 83.8366 93.5599 82.4685 92.7886C79.6189 91.1815 76.6681 89.8999 73.4529 88.9986C71.8825 91.2557 70.0802 93.0438 68.3931 94.354C66.1411 96.1026 63.3621 97.0524 60.5002 97.0524C57.638 97.0524 54.859 96.1026 52.6073 94.354C50.9197 93.0433 49.117 91.255 47.5463 88.9969C44.3446 89.8961 41.3732 91.1858 38.5316 92.7883C37.1635 93.5597 36.546 94.0099 35.3851 94.1049C27.9831 94.7101 24.5466 99.6192 22.984 104.662C22.9488 104.776 22.9186 104.891 22.8853 105.006C24.6027 107.328 26.532 109.482 28.6391 111.448C37.7787 117.483 48.7277 121 60.5 121C72.7888 121 84.1812 117.168 93.554 110.639C95.2336 108.992 96.7929 107.223 98.2111 105.341C98.1489 105.114 98.0858 104.887 98.0161 104.662C96.4537 99.6194 93.0171 94.7104 85.615 94.1051Z" fill="#4099FF"/>
<path d="M52.6073 94.354C50.9197 93.0433 49.117 91.255 47.5463 88.9969C44.3446 89.8961 41.3732 91.1858 38.5316 92.7883C37.1635 93.5597 36.546 94.0099 35.3851 94.1049C27.9831 94.7101 24.5466 99.6192 22.984 104.662C22.9488 104.776 22.9186 104.891 22.8853 105.006C24.6027 107.328 26.532 109.482 28.6391 111.448C31.614 113.413 34.7818 115.108 38.106 116.505C38.2518 105.428 39.9269 103.059 50.3835 99.3242C52.6002 98.5325 54.3337 97.4095 55.69 96.1208C54.5917 95.6793 53.5526 95.0883 52.6073 94.354Z" fill="#358FF5"/>
<path d="M96.3912 43.733L95.1767 45.142C94.9139 45.4468 94.8305 45.8675 94.9569 46.2499L95.5411 48.0134C95.7198 48.5529 95.4757 49.1421 94.9675 49.3971L93.3073 50.2301C92.9472 50.4109 92.7085 50.7675 92.6789 51.1695L92.5421 53.0238C92.5003 53.5898 92.0503 54.04 91.4843 54.0816L89.6301 54.2184C89.2283 54.2482 88.8715 54.4866 88.6907 54.8468L87.8576 56.507C87.6026 57.0151 87.0135 57.2592 86.4739 57.0803L84.7104 56.4961C84.3283 56.3695 83.9076 56.4529 83.6025 56.7159L82.1938 57.9304C81.7641 58.3007 81.1279 58.3007 80.6983 57.9304L79.2893 56.7159C78.9842 56.4531 78.5638 56.3697 78.1814 56.4961L76.4179 57.0803C75.8784 57.259 75.2892 57.0149 75.0342 56.507L74.2012 54.8468C74.0204 54.4866 73.6638 54.2479 73.2618 54.2184L71.4075 54.0816C70.8415 54.0397 70.3916 53.5898 70.3497 53.0238L70.2129 51.1695C70.1834 50.7678 69.9447 50.4109 69.5845 50.2301L67.9243 49.3971C67.4162 49.1421 67.1721 48.5529 67.351 48.0134L67.9352 46.2499C68.0618 45.8677 67.9784 45.4471 67.7154 45.142L66.5009 43.7332C66.1306 43.3036 66.1306 42.6674 66.5009 42.2377L67.7154 40.8288C67.9782 40.5239 68.0616 40.1032 67.9352 39.7208L67.351 37.9574C67.1723 37.4178 67.4164 36.8287 67.9245 36.5737L69.5847 35.7406C69.9449 35.5598 70.1836 35.2032 70.2131 34.8012L70.35 32.947C70.3918 32.381 70.8418 31.931 71.4078 31.8892L73.262 31.7523C73.6638 31.7226 74.0206 31.4841 74.2014 31.1239L75.0345 29.4637C75.2895 28.9556 75.8786 28.7115 76.4182 28.8904L78.1816 29.4746C78.5638 29.6013 78.9844 29.5179 79.2895 29.2548L80.6983 28.0403C81.1279 27.67 81.7641 27.67 82.1938 28.0403L83.6028 29.2548C83.9076 29.5176 84.3283 29.601 84.7107 29.4746L86.4742 28.8904C87.0137 28.7117 87.6029 28.9559 87.8579 29.4637L88.6911 31.1239C88.8719 31.4841 89.2286 31.7228 89.6303 31.7523L91.4845 31.8892C92.0505 31.931 92.5005 32.381 92.5424 32.947L92.6792 34.8012C92.7087 35.203 92.9474 35.5598 93.3076 35.7406L94.9678 36.5737C95.4759 36.8287 95.72 37.4178 95.5413 37.9574L94.9571 39.7208C94.8305 40.103 94.9139 40.5237 95.1769 40.8288L96.3914 42.2375C96.7615 42.6672 96.7615 43.3033 96.3912 43.733Z" fill="#F9DC0B"/>
<path d="M78.1821 29.4744L76.4187 28.8902C75.8791 28.7115 75.29 28.9556 75.035 29.4635L74.2019 31.1237C74.0211 31.4839 73.6645 31.7226 73.2625 31.7521L71.4083 31.8889C70.8423 31.9308 70.392 32.3807 70.3505 32.9467L70.2136 34.801C70.1841 35.2027 69.9454 35.5596 69.5852 35.7404L67.925 36.5734C67.4169 36.8284 67.1728 37.4174 67.3514 37.9571L67.9357 39.7206C68.0623 40.103 67.9789 40.5234 67.7159 40.8285L66.5014 42.2375C66.1311 42.6672 66.1311 43.3033 66.5014 43.733L67.7156 45.1417C67.9787 45.4466 68.0619 45.8673 67.9354 46.2497L67.3512 48.0131C67.1726 48.5527 67.4167 49.1418 67.9248 49.3968L69.585 50.2299C69.9452 50.4107 70.1838 50.7673 70.2134 51.1693L70.3502 53.0235C70.392 53.5895 70.842 54.0395 71.408 54.0813L73.2623 54.2182C73.664 54.2477 74.0209 54.4864 74.2017 54.8466L75.0347 56.5068C75.2897 57.0149 75.8789 57.259 76.4184 57.0803L78.1819 56.4961C78.564 56.3695 78.9847 56.4529 79.2898 56.7159L80.6988 57.9304C81.1284 58.3007 81.7646 58.3007 82.1943 57.9304L83.603 56.7159C83.9081 56.4531 84.3286 56.3697 84.7109 56.4961L86.4744 57.0803C87.014 57.259 87.6031 57.0149 87.8581 56.507L88.6912 54.8468C88.872 54.4866 89.2286 54.2479 89.6306 54.2184L91.4848 54.0816C92.0508 54.0397 92.501 53.5898 92.5426 53.0238C83.1661 51.3498 86.0918 44.1288 86.0918 44.1288L84.0419 40.8581C75.047 38.5591 79.2898 29.2548 79.2898 29.2548C78.9849 29.5176 78.5643 29.601 78.1821 29.4744Z" fill="#FCBF29"/>
<path d="M80.6283 48.8124C80.1294 48.8124 79.6508 48.6141 79.298 48.2615L75.1271 44.0903C74.3925 43.3556 74.3925 42.1647 75.1271 41.43C75.862 40.6955 77.0527 40.6959 77.7874 41.43L80.6281 44.2709L86.0234 38.8755C86.7582 38.141 87.949 38.141 88.6838 38.8755C89.4183 39.6103 89.4183 40.8011 88.6838 41.5359L81.9581 48.2615C81.6055 48.6141 81.1272 48.8124 80.6283 48.8124Z" fill="#E9EFFF"/>
<path d="M88.3765 113.853C87.9353 109.504 86.1538 106.686 84.5071 104.978C83.4089 103.84 81.48 104.633 81.48 106.214V117.077C83.8593 116.151 86.1619 115.073 88.3765 113.853Z" fill="#358FF5"/>
</svg>
