<svg width="129" height="129" viewBox="0 0 129 129" fill="none" xmlns="http://www.w3.org/2000/svg">
<g clip-path="url(#clip0)">
<path d="M128.49 113.303C128.49 103.144 122.093 94.065 112.557 90.6525L84.4223 80.515L84.4115 80.5258C73.989 92.8478 54.9927 92.8425 44.5755 80.515L16.449 90.6525C6.90792 94.065 0.510254 103.141 0.510254 113.303V128.994H128.49V113.303Z" fill="#808080"/>
<path d="M53.2676 107.086L64.5042 89.7606L75.7544 107.086L64.5097 127.939L53.2676 107.086Z" fill="#CDD6E0"/>
<path d="M47.023 79.6444C47.2379 79.9374 47.2112 79.9374 46.9961 79.6444H47.023Z" fill="#F8B64C"/>
<path d="M82.0359 79.6444C81.8211 79.9374 81.7941 79.9374 82.0037 79.6444H82.0359Z" fill="#F8B64C"/>
<path d="M82.0395 79.623H82.0063V79.6562H82.0395V79.623Z" fill="#F8B64C"/>
<path d="M82.0395 79.623H82.0063V79.6562H82.0395V79.623Z" fill="#F8B64C"/>
<path d="M46.9962 45.8605C47.3884 50.3584 45.2067 54.2248 42.1167 54.4988C39.0322 54.7676 36.2082 51.339 35.8132 46.8359C35.4183 42.3327 37.6027 38.4661 40.6927 38.1976C43.7797 37.9235 46.6037 41.3574 46.9962 45.8605Z" fill="#F8B64C"/>
<path d="M93.2245 46.8346C92.8322 51.3378 90.0082 54.7636 86.9157 54.4976C83.8312 54.2235 81.6468 50.3571 82.0417 45.8593C82.434 41.3506 85.258 37.9248 88.3452 38.1908C91.435 38.4651 93.6194 42.3315 93.2245 46.8346Z" fill="#F8B64C"/>
<path d="M64.5205 8.27228C50.1777 8.27228 38.5542 19.9011 38.5542 34.2385V42.036C38.5542 44.0242 38.6751 46.0127 38.9278 47.982V47.9928C40.1558 58.0795 44.5005 67.5292 51.3601 75.0312L53.8159 77.7287C56.0781 80.2114 59.2782 81.622 62.6315 81.622H66.3931C69.7463 81.622 72.9464 80.2114 75.2087 77.734L77.6805 75.0309C84.5402 67.5317 88.8849 58.0684 90.1235 47.9845C90.3706 46.0069 90.4862 44.0267 90.4862 42.0385V34.241C90.4865 19.9013 78.8577 8.27228 64.5205 8.27228Z" fill="#FFD15C"/>
<path d="M82.0118 79.6552V79.6283H82.0388V69.496H82.0335C80.7168 71.4333 79.2739 73.2898 77.6835 75.0337L75.2116 77.7368C72.9493 80.2142 69.7545 81.6248 66.396 81.6248H62.6339C59.2807 81.6248 56.0806 80.2089 53.8183 77.7315L51.3625 75.034C49.7718 73.2981 48.3345 71.4442 47.0231 69.5124C47.0178 69.5071 47.007 69.5071 47.0017 69.4963V79.6285L44.5835 80.5152C55.0007 92.8428 73.997 92.8481 84.4194 80.526L84.4303 80.5152L82.0415 79.6555H82.0118V79.6552Z" fill="#F8B64C"/>
<g opacity="0.1">
<g opacity="0.1">
<path opacity="0.1" d="M82.0121 79.6552V79.6283H82.0391V69.496C82.0338 69.5013 82.023 69.5121 82.0177 69.523C80.7066 71.4495 79.269 73.2954 77.6838 75.0337L75.2119 77.7368C72.9497 80.2142 69.7496 81.6248 66.3963 81.6248H62.6343C59.3374 81.6248 56.1965 80.2437 53.9448 77.8416C53.9395 77.8416 53.9287 77.8416 53.9287 77.8416L65.8666 89.6961C72.7557 89.3387 79.5322 86.3053 84.417 80.5283L84.4223 80.523L84.4276 80.5177L82.0388 79.658H82.0119V79.6552H82.0121Z" fill="#40596B"/>
</g>
</g>
<path d="M46.9962 79.6283L39.959 82.1782L53.2672 106.79L64.5038 89.7606L46.9962 79.6283Z" fill="#F2F2F2"/>
<path d="M82.0251 79.6283L89.0646 82.1782L75.7538 106.79L64.52 89.7606L82.0251 79.6283Z" fill="#F2F2F2"/>
<path d="M83.3798 11.3006H45.6583C41.8161 14.4551 38.3472 19.157 36.3751 26.1778C36.3751 26.1778 32.643 43.2395 38.6052 47.716C38.6052 47.716 40.8461 47.4177 40.0964 42.5733C40.0964 42.5733 39.3818 40.8269 40.1581 39.0104C41.2141 36.5439 41.7005 33.8786 42.235 31.248C43.0544 27.1962 44.9326 22.521 49.2317 22.3571C49.2317 22.3571 60.1325 23.7543 64.5228 23.7543C68.9051 23.7543 79.8059 22.3571 79.8059 22.3571C84.1237 22.521 86.0046 27.2229 86.8215 31.283C87.3401 33.8813 87.786 36.5305 88.8581 38.954C89.6722 40.7919 88.9414 42.5705 88.9414 42.5705C88.1918 47.415 90.4327 47.7132 90.4327 47.7132C96.3948 43.2368 92.6627 26.1751 92.6627 26.1751C90.6908 19.157 87.222 14.4548 83.3798 11.3006Z" fill="#40596B"/>
<path d="M71.8043 100.825L64.5038 89.7606L57.2036 100.825L60.8579 104.477L57.2036 129H71.8043L68.15 104.477L71.8043 100.825Z" fill="#FF7058"/>
<path d="M95.535 78.3305L85.4914 63.5472L82.0334 69.4932C81.7404 102.687 64.5122 127.299 64.5122 127.299V128.995H83.2722L98.9692 99.3555L89.0653 87.7723L95.535 78.3305Z" fill="#3DC9AE"/>
<path d="M33.5213 78.3305L43.5649 63.5472L47.0229 69.4932C47.3159 102.687 64.5441 127.299 64.5441 127.299V128.995H45.7841L30.0874 99.3555L39.9912 87.7723L33.5213 78.3305Z" fill="#3DC9AE"/>
<path d="M92.1284 12.3565C90.5216 4.92456 83.7534 -0.21816 76.2005 0.0075392C74.8007 0.0506135 73.476 0.641563 72.5059 1.64915C72.479 1.6761 72.4523 1.7028 72.4281 1.72699C68.1156 6.20873 60.9255 6.20344 56.6103 1.72699L56.5324 1.64361C55.5624 0.641311 54.2351 0.0475908 52.8379 0.0072873C45.2903 -0.223702 38.5168 4.92431 36.9099 12.3563C35.4618 19.2454 33.9597 26.132 32.4121 33.0078C32.1594 36.1031 34.7416 38.8384 38.1782 39.0533C55.7211 40.1709 73.312 40.1709 90.8548 39.0533C94.2915 38.8437 96.8734 36.1083 96.621 33.0078C95.0786 26.1322 93.5766 19.2456 92.1284 12.3565Z" fill="#808080"/>
<path d="M87.0554 37.5756C86.604 34.6738 82.0712 34.6952 82.0712 34.6952H74.0641C67.809 34.6952 66.3501 37.3202 66.0143 38.7364C65.0281 38.5671 64.0152 38.5671 63.0346 38.7364C62.6988 37.3205 61.2398 34.6952 54.9847 34.6952H46.9777C46.9777 34.6952 42.4423 34.6738 41.9934 37.5756C41.9934 37.5756 39.8843 48.9573 48.313 50.5022C48.313 50.5022 59.5899 52.3186 62.5132 42.7048C63.784 42.1539 65.2672 42.1539 66.5435 42.7048C69.4668 52.3184 80.7437 50.5022 80.7437 50.5022C89.1646 48.9601 87.0554 37.5756 87.0554 37.5756Z" fill="#808080"/>
<path d="M98.1171 33.3466H30.9177C28.9025 33.3466 27.2715 35.2086 27.2715 37.5031C27.2715 39.7976 28.9025 41.6544 30.9177 41.6544H98.1169C100.132 41.6544 101.768 39.7976 101.768 37.5031C101.769 35.2086 100.132 33.3466 98.1171 33.3466Z" fill="#334A5E"/>
</g>
<defs>
<clipPath id="clip0">
<rect width="129" height="129" fill="white"/>
</clipPath>
</defs>
</svg>
