<svg width="141" height="120" viewBox="0 0 141 120" fill="none" xmlns="http://www.w3.org/2000/svg">
<path d="M4.50281 0H135.647C138.124 0 140.15 2.02627 140.15 4.50281V115.497C140.15 117.974 138.124 120 135.647 120H4.50281C2.02627 120 0 117.974 0 115.497V4.50281C0 2.02627 1.9137 0 4.50281 0Z" fill="#F2F2F2"/>
<path d="M4.50281 0H135.647C138.124 0 140.15 2.02627 140.15 4.50281V22.5141H0V4.50281C0 2.02627 1.9137 0 4.50281 0Z" fill="#808080"/>
<path d="M109.081 71.2571C109.081 62.364 106.041 53.6961 100.413 46.7167C100.3 46.4916 100.075 46.1539 99.8501 46.0413C86.0039 29.606 61.351 27.4672 44.8032 41.3134C43.1146 42.7768 41.4261 44.3528 40.0752 46.1539C39.9627 46.2664 39.8501 46.379 39.7375 46.4916V46.6042C28.0302 61.0132 28.0302 81.6135 39.7375 96.0225V96.1351L40.0752 96.4728C53.9214 113.021 78.4617 115.16 95.0096 101.313C96.6981 99.8499 98.3867 98.274 99.8501 96.5854C100.075 96.3603 100.3 96.1351 100.413 95.91C106.041 88.818 109.081 80.1501 109.081 71.2571ZM34.897 73.1708H47.9552C48.0677 78.349 48.7431 83.4147 50.094 88.3678C47.1672 89.3809 44.4655 90.6192 41.8764 92.1952C37.7113 86.6792 35.3473 80.1501 34.897 73.1708ZM41.8764 50.2064C44.4655 51.7824 47.2797 53.0207 50.094 54.0338C48.7431 58.9869 48.0677 64.1651 47.9552 69.2308H34.897C35.3473 62.364 37.7113 55.7224 41.8764 50.2064ZM105.141 69.2308H92.0827C91.9702 64.0526 91.2947 58.9869 89.9439 54.0338C92.8707 53.0207 95.5724 51.7824 98.1615 50.2064C102.327 55.7224 104.691 62.364 105.141 69.2308ZM88.1428 69.2308H72.0452V57.1858C76.7732 57.0732 81.5011 56.3978 86.1165 55.1595C87.3548 59.7749 88.0302 64.5028 88.1428 69.2308ZM72.0452 53.2458V36.3603C77.336 37.486 82.064 43.3396 84.9908 51.5573C80.7131 52.5704 76.3229 53.1332 72.0452 53.2458ZM68.1052 36.3603V53.2458C63.715 53.1332 59.4373 52.5704 55.1597 51.4447C58.0865 43.227 62.7019 37.486 68.1052 36.3603ZM68.1052 57.1858V69.2308H51.8951C52.0077 64.5028 52.6831 59.7749 53.9214 55.1595C58.5368 56.3978 63.2647 57.0732 68.1052 57.1858ZM51.8951 73.1708H67.9927V85.2158C63.2647 85.3284 58.5368 86.0038 53.9214 87.2421C52.6831 82.6267 52.0077 78.0113 51.8951 73.1708ZM68.1052 89.1558V106.154C62.8144 105.028 58.0865 99.1745 55.1597 90.9569C59.3248 89.9437 63.715 89.3809 68.1052 89.1558ZM72.0452 106.154V89.1558C76.4355 89.2683 80.7131 89.8312 84.9908 90.9569C81.9514 99.1745 77.336 105.028 72.0452 106.154ZM72.0452 85.2158V73.1708H88.1428C88.0302 77.8987 87.3548 82.6267 86.1165 87.2421C81.5011 86.1164 76.7732 85.4409 72.0452 85.2158ZM92.0827 73.1708H105.141C104.803 80.0376 102.327 86.6792 98.1615 92.1952C95.5724 90.6192 92.7582 89.3809 89.9439 88.3678C91.2947 83.4147 91.9702 78.349 92.0827 73.1708ZM95.5724 47.167C93.4336 48.4053 91.0696 49.531 88.7056 50.319C87.2422 45.9287 84.8782 41.7636 81.8388 38.1614C87.1296 40.0751 91.8576 43.1145 95.5724 47.167ZM58.0865 38.1614C55.0471 41.7636 52.6831 45.8162 51.2197 50.319C48.8557 49.531 46.6043 48.4053 44.3529 47.167C48.1803 43.1145 52.9083 40.0751 58.0865 38.1614ZM44.4655 95.3471C46.6043 94.1089 48.9683 92.9831 51.3323 92.1952C52.7957 96.5854 55.1597 100.751 58.1991 104.353C52.9083 102.439 48.1803 99.2871 44.4655 95.3471ZM81.9514 104.353C84.9908 100.751 87.3548 96.698 88.8182 92.1952C91.1822 92.9831 93.4336 94.1089 95.685 95.3471C91.8576 99.2871 87.1296 102.439 81.9514 104.353Z" fill="#4099FF"/>
<path d="M17.3352 13.1707H10.581C9.45525 13.1707 8.55469 12.2702 8.55469 11.1445C8.55469 10.0188 9.45525 9.11819 10.581 9.11819H17.3352C18.4609 9.11819 19.3614 10.0188 19.3614 11.1445C19.3614 12.2702 18.3483 13.1707 17.3352 13.1707Z" fill="#FF8533"/>
<path d="M36.2468 13.1707H29.4926C28.3669 13.1707 27.4663 12.2702 27.4663 11.1445C27.4663 10.0188 28.3669 9.11819 29.4926 9.11819H36.2468C37.3725 9.11819 38.2731 10.0188 38.2731 11.1445C38.2731 12.2702 37.3725 13.1707 36.2468 13.1707Z" fill="#40B4F9"/>
<path d="M55.2717 13.1707H48.5175C47.3918 13.1707 46.4912 12.2702 46.4912 11.1445C46.4912 10.0188 47.3918 9.11819 48.5175 9.11819H55.2717C56.3974 9.11819 57.298 10.0188 57.298 11.1445C57.298 12.2702 56.2848 13.1707 55.2717 13.1707Z" fill="#FFC543"/>
</svg>
