<svg width="21" height="21" viewBox="0 0 21 21" fill="none" xmlns="http://www.w3.org/2000/svg">
<path d="M10.1167 20.5898C6.3134 20.5902 2.80632 18.4109 1.12663 14.9807C-0.573061 11.5087 -0.0584226 7.17847 2.40784 4.20564C4.87142 1.23589 8.8766 -0.0599335 12.6106 0.904341C13.0218 1.0105 13.2691 1.43013 13.1633 1.84169C13.0572 2.25325 12.6371 2.50018 12.226 2.39441C9.06737 1.5786 5.67722 2.67481 3.59213 5.18838C1.50588 7.70349 1.07047 11.3671 2.50862 14.3049C3.94137 17.2312 7.1019 19.1375 10.3459 19.049C13.5895 18.9605 16.5331 16.9878 17.8451 14.0234C18.6155 12.2825 18.7786 10.3113 18.3036 8.47237C18.1974 8.0612 18.4447 7.64157 18.8563 7.53502C19.2667 7.42848 19.6871 7.67619 19.7936 8.08774C20.3544 10.2605 20.1625 12.5899 19.2524 14.6461C17.7016 18.1501 14.2218 20.4821 10.3882 20.5868C10.2974 20.5887 10.2067 20.5898 10.1167 20.5898Z" fill="#47B881"/>
<path d="M10.1105 12.9883C9.91355 12.9883 9.71661 12.9133 9.56661 12.7629C9.26621 12.4625 9.26621 11.9756 9.56661 11.6752L18.7978 2.44399C19.0978 2.14359 19.5855 2.14359 19.8855 2.44399C20.1859 2.74439 20.1859 3.23133 19.8855 3.53173L10.6543 12.7629C10.5043 12.9129 10.3074 12.9883 10.1105 12.9883Z" fill="#47B881"/>
<path d="M10.1104 12.9883C9.91348 12.9883 9.71655 12.9133 9.56654 12.7629L6.30294 9.49932C6.00254 9.19892 6.00254 8.71198 6.30294 8.41158C6.60295 8.11118 7.09066 8.11118 7.39068 8.41158L10.6543 11.6752C10.9547 11.9756 10.9547 12.4625 10.6543 12.7629C10.5043 12.9129 10.3073 12.9883 10.1104 12.9883Z" fill="#47B881"/>
</svg>
