<svg width="131" height="131" viewBox="0 0 131 131" fill="none" xmlns="http://www.w3.org/2000/svg">
<g clip-path="url(#clip0)">
<path d="M125.045 7.9393H5.95462C2.66606 7.9393 0 10.6054 0 13.8939V117.106C0 120.395 2.66606 123.061 5.95462 123.061H125.046C128.334 123.061 131 120.395 131 117.106V13.8939C131 10.6054 128.334 7.9393 125.045 7.9393Z" fill="#E4DFDF"/>
<path d="M125.045 7.9393H65.5V123.061H125.045C128.334 123.061 131 120.395 131 117.106V13.8939C131 10.6054 128.334 7.9393 125.045 7.9393Z" fill="#D1C6C6"/>
<path d="M125.045 7.9393H5.95462C2.66606 7.9393 0 10.6054 0 13.8939V37.7121C0 41.0009 2.66606 43.6667 5.95462 43.6667H125.046C128.334 43.6667 131 41.0012 131 37.7121V13.8939C131 10.6054 128.334 7.9393 125.045 7.9393Z" fill="#808080"/>
<path d="M125.045 7.9393H65.5V43.6665H125.045C128.334 43.6665 131 41.0009 131 37.7119V13.8939C131 10.6054 128.334 7.9393 125.045 7.9393Z" fill="#747171"/>
<path d="M125.045 13.8939H101.227V37.7201H125.045V13.8939Z" fill="white"/>
<path d="M125.046 43.6739H101.228C97.939 43.6739 95.2729 41.0078 95.2729 37.7193V13.8939C95.2729 10.6059 97.939 7.9393 101.228 7.9393H125.046C128.334 7.9393 131 10.6059 131 13.8939V37.7193C131 41.0078 128.334 43.6739 125.046 43.6739ZM107.182 31.7647H119.091V19.8485H107.182V31.7647Z" fill="#747171"/>
</g>
<defs>
<clipPath id="clip0">
<rect width="131" height="131" fill="white"/>
</clipPath>
</defs>
</svg>
