<svg width="142" height="142" viewBox="0 0 142 142" fill="none" xmlns="http://www.w3.org/2000/svg">
<g clip-path="url(#clip0)">
<path d="M131.232 42.3982H0V123.156H131.232V42.3982Z" fill="#ECF0F1"/>
<path d="M131.232 42.3982H65.6162V123.156H131.232V42.3982Z" fill="#D4DCDE"/>
<path d="M131.232 18.8436H0V45.7629H131.232V18.8436Z" fill="#959292"/>
<path d="M20.19 37.3508C22.9776 37.3508 25.2374 35.091 25.2374 32.3034C25.2374 29.5158 22.9776 27.256 20.19 27.256C17.4024 27.256 15.1426 29.5158 15.1426 32.3034C15.1426 35.091 17.4024 37.3508 20.19 37.3508Z" fill="#FF5023"/>
<path d="M37.0142 37.3508C39.8018 37.3508 42.0616 35.091 42.0616 32.3034C42.0616 29.5158 39.8018 27.256 37.0142 27.256C34.2266 27.256 31.9668 29.5158 31.9668 32.3034C31.9668 35.091 34.2266 37.3508 37.0142 37.3508Z" fill="#FFDA44"/>
<path d="M53.8384 37.3508C56.626 37.3508 58.8858 35.091 58.8858 32.3034C58.8858 29.5158 56.626 27.256 53.8384 27.256C51.0508 27.256 48.791 29.5158 48.791 32.3034C48.791 35.091 51.0508 37.3508 53.8384 37.3508Z" fill="#91DC5A"/>
<path d="M58.8854 70.9999H25.2363V81.0946H58.8854V70.9999Z" fill="#BDC3C7"/>
<path d="M58.8854 91.1894H25.2363V101.284H58.8854V91.1894Z" fill="#BDC3C7"/>
<path d="M105.994 70.9999H72.3447V81.0946H105.994V70.9999Z" fill="#BDC3C7"/>
<path d="M131.232 18.8436H65.6162V45.7629H131.232V18.8436Z" fill="#808080"/>
<path d="M138.133 57.9558C132.615 52.0783 123.329 51.9313 117.629 57.6319L110.878 64.383L129.549 86.0907L137.819 77.8214C143.269 72.3702 143.409 63.5762 138.133 57.9558Z" fill="#0F69D1"/>
<path d="M92.4831 123.156L131.818 83.8212L112.267 62.9929L72.3457 102.967V123.156H92.4831Z" fill="#4099FF"/>
<path d="M92.4831 123.156L72.3457 102.967V123.156H92.4831Z" fill="#0F69D1"/>
</g>
<defs>
<clipPath id="clip0">
<rect width="142" height="142" fill="white"/>
</clipPath>
</defs>
</svg>
