<svg width="117" height="117" viewBox="0 0 117 117" fill="none" xmlns="http://www.w3.org/2000/svg">
<g clip-path="url(#clip0)">
<path d="M96.4215 101.003C106.793 90.8412 113.23 76.68 113.23 61.0132C113.23 30.0926 88.1643 5.02646 57.2436 5.02646C26.3229 5.02646 1.25684 30.0926 1.25684 61.0132C1.25684 68.0492 2.55846 74.7804 4.92794 80.9837L96.4215 101.003Z" fill="#49D88B"/>
<path d="M87.1551 0H14.2911C9.06766 0 4.8335 4.23439 4.8335 9.4578V80.7346C6.5156 85.2027 8.7546 89.3978 11.4625 93.2383L89.9092 106.48C92.2899 104.767 94.5327 102.874 96.6129 100.816V9.4578C96.6129 4.23439 92.3785 0 87.1551 0V0Z" fill="#167CC1"/>
<path d="M35.9004 95.0589C33.6342 92.5468 35.2592 90.228 35.9025 89.4888C36.0501 89.3192 36.1328 89.1035 36.1328 88.8789V76.4374C36.1328 76.2132 36.0512 75.9952 35.9016 75.8279C33.7147 73.3855 35.3129 70.9962 35.9233 70.2507C36.0588 70.0851 36.1328 69.8792 36.1328 69.6653V57.2096C36.1328 56.9831 36.0508 56.7626 35.8979 56.5956C33.4955 53.9708 35.0618 51.8171 35.8044 51.0445C36.0097 50.831 36.0967 50.5303 36.0462 50.2387L32.2174 28.1424C32.1857 27.9594 32.097 27.7912 31.9684 27.657C26.9259 22.4039 30.0107 17.2456 31.2435 15.6026C31.4576 15.3172 31.5079 14.931 31.3422 14.615C31.047 14.0519 31.2798 13.5809 31.4786 13.3206C31.6064 13.1534 31.6827 12.9525 31.6827 12.7418V8.70486C31.6827 8.52365 31.6155 8.35203 31.5093 8.20533C31.1676 7.73413 31.2428 7.26156 31.3856 6.92473C31.5221 6.6032 31.4677 6.23392 31.2435 5.9661C29.2563 3.59022 30.3676 1.53496 31.1391 0.576104C31.275 0.407002 31.3402 0.203166 31.3404 0.00024415H14.2908C9.06766 1.56342e-05 4.8335 4.23441 4.8335 9.45782V80.7346C6.5156 85.2028 8.7546 89.3978 11.4625 93.2383L36.1331 97.4027V95.6699C36.1331 95.4448 36.0512 95.2259 35.9004 95.0589Z" fill="#0E62A8"/>
<path d="M37.7696 51.1608C27.5577 38.7224 16.3324 40.1918 11.2778 41.7843V92.9785C21.3933 107.497 38.2075 117 57.2437 117C69.5507 117 80.9276 113.026 90.1683 106.295C90.1683 97.0922 90.1683 83.6173 90.1683 69.8035C88.8401 68.7341 87.472 67.4992 86.0589 66.086C72.2273 52.2544 60.82 79.2371 37.7696 51.1608Z" fill="#F2F2F2"/>
<path d="M36.0823 108.611C36.1156 108.514 36.1328 108.413 36.1328 108.31V95.6699C36.1328 95.4448 36.0509 95.2259 35.9001 95.0589C33.6339 92.5468 35.2589 90.228 35.9022 89.4888C36.0498 89.3192 36.1325 89.1035 36.1325 88.8789V76.4374C36.1325 76.2132 36.051 75.9952 35.9013 75.8279C33.7144 73.3855 35.3126 70.9962 35.923 70.2507C36.0585 70.0851 36.1325 69.8792 36.1325 69.6653V57.2096C36.1325 56.9831 36.0505 56.7626 35.8976 56.5956C33.4952 53.9708 35.0615 51.8171 35.8042 51.0445C36.0094 50.831 36.0964 50.5303 36.0459 50.2387L35.8259 48.9693C26.1654 38.9085 16.0129 40.2921 11.2773 41.7843V92.9785C17.5727 102.014 26.4631 109.106 36.8686 113.175C35.3729 111.142 35.9013 109.14 36.0823 108.611Z" fill="#E7DADA"/>
<path d="M37.7694 51.6384C60.8196 79.7145 72.2268 52.7318 86.0587 66.5636C87.4718 67.9768 88.8399 69.2117 90.1681 70.2811V14.5869H11.2778V42.2619C16.3324 40.6692 27.5577 39.1998 37.7694 51.6384Z" fill="#F2F2F2"/>
<path d="M11.2778 42.2619C16.03 40.7645 26.2367 39.3776 35.9276 49.5539L32.2176 28.1424C32.1859 27.9594 32.0972 27.7912 31.9685 27.657C26.9261 22.4039 30.0109 17.2456 31.2437 15.6026C31.4578 15.3172 31.5081 14.931 31.3424 14.615C31.3374 14.6054 31.3353 14.5962 31.3305 14.5869H11.2778V42.2619Z" fill="#EAE0E0"/>
<path d="M75.9114 50.7382H24.605C23.3957 50.7382 22.4062 49.7488 22.4062 48.5395V30.0327C22.4062 28.8234 23.3957 27.8339 24.605 27.8339H75.9114C77.1207 27.8339 78.1101 28.8234 78.1101 30.0327V48.5395C78.1101 49.7488 77.1207 50.7382 75.9114 50.7382Z" fill="#58A6FF"/>
<path d="M40.3827 46.5329V32.0391C40.3827 29.726 42.275 27.8337 44.588 27.8337H24.605C23.3957 27.8337 22.4062 28.8232 22.4062 30.0325V48.5395C22.4062 49.7488 23.3957 50.7383 24.605 50.7383H44.588C42.275 50.7383 40.3827 48.8457 40.3827 46.5329Z" fill="#4099FF"/>
<path d="M87.1553 6.44461H14.2913C12.6338 6.44461 11.2778 7.80062 11.2778 9.45805V15.0644H90.168V9.45782C90.1683 7.80062 88.8123 6.44461 87.1553 6.44461Z" fill="#808080"/>
<path d="M31.3426 14.6152C31.0474 14.0521 31.2803 13.5812 31.4791 13.3209C31.6068 13.1536 31.6831 12.9527 31.6831 12.742V8.70486C31.6831 8.52365 31.6159 8.35203 31.5097 8.20532C31.1681 7.73412 31.2432 7.26155 31.3861 6.92472C31.4516 6.77025 31.472 6.6048 31.4516 6.44461H14.2913C12.6341 6.44461 11.2778 7.80062 11.2778 9.45805V15.0644H31.4377C31.445 14.9107 31.4165 14.756 31.3426 14.6152Z" fill="#726C6C"/>
<path d="M21.0511 10.7544C21.0511 12.0508 20.0002 13.1015 18.704 13.1015C17.4076 13.1015 16.3569 12.0506 16.3569 10.7544C16.3569 9.45829 17.4079 8.40735 18.704 8.40735C20.0002 8.40735 21.0511 9.45806 21.0511 10.7544Z" fill="#FF4155"/>
<path d="M27.5408 10.7544C27.5408 12.0508 26.4899 13.1015 25.1938 13.1015C23.8976 13.1015 22.8467 12.0506 22.8467 10.7544C22.8467 9.45829 23.8976 8.40735 25.1938 8.40735C26.4899 8.40735 27.5408 9.45806 27.5408 10.7544Z" fill="#FFDD40"/>
<path d="M34.0301 10.7544C34.0301 12.0508 32.9794 13.1015 31.683 13.1015C30.3867 13.1015 29.3359 12.0506 29.3359 10.7544C29.3359 9.45829 30.3869 8.40735 31.683 8.40735C32.9792 8.40735 34.0301 9.45806 34.0301 10.7544Z" fill="#38C674"/>
<path d="M65.2888 12.5446H41.7379C40.7492 12.5446 39.9478 11.7432 39.9478 10.7544C39.9478 9.76564 40.7492 8.96423 41.7379 8.96423H65.2885C66.2773 8.96423 67.0787 9.76564 67.0787 10.7544C67.079 11.7432 66.2773 12.5446 65.2888 12.5446Z" fill="#C6C2AF"/>
<path d="M57.6964 46.2404C56.7077 46.2404 55.9062 45.439 55.9062 44.4502V34.1215C55.9062 33.1327 56.7077 32.3313 57.6964 32.3313C58.6852 32.3313 59.4866 33.1327 59.4866 34.1215V44.4502C59.4869 45.439 58.6852 46.2404 57.6964 46.2404Z" fill="#E9EFFF"/>
<path d="M69.5473 46.2404H62.6569C62.0001 46.2404 61.3959 45.8807 61.0831 45.303C60.77 44.7255 60.7984 44.0231 61.1571 43.4728L66.0839 35.9117H62.8689C61.8801 35.9117 61.0787 35.1103 61.0787 34.1215C61.0787 33.1327 61.8801 32.3313 62.8689 32.3313H69.3871C70.8067 32.3313 71.6615 33.9101 70.8869 35.0989L65.9601 42.66H69.5473C70.5359 42.66 71.3375 43.4614 71.3375 44.4502C71.3375 45.439 70.5359 46.2404 69.5473 46.2404Z" fill="#E9EFFF"/>
<path d="M49.0464 46.2404C49.0434 46.2404 49.0407 46.2404 49.0379 46.2404C46.3926 46.2374 43.7261 44.2095 43.7261 41.2288V34.1215C43.7261 33.1327 44.5277 32.3313 45.5163 32.3313C46.5051 32.3313 47.3065 33.1327 47.3065 34.1215V41.2288C47.3065 41.5905 47.3663 41.9281 48.1003 42.397C48.3766 42.5734 48.6846 42.6595 49.0425 42.66H49.0461C49.8917 42.66 50.9031 42.0994 50.9031 41.2213V34.1213C50.9031 33.1325 51.7045 32.3311 52.6933 32.3311C53.6818 32.3311 54.4834 33.1325 54.4834 34.1213V41.2213C54.4834 44.2233 51.7712 46.2404 49.0464 46.2404Z" fill="#E9EFFF"/>
<path d="M40.071 45.6743L36.7666 42.3702C36.0674 41.6712 36.0674 40.5375 36.7666 39.8385C37.4657 39.1392 38.5993 39.1395 39.2984 39.8383L42.6027 43.1424C43.3019 43.8414 43.3019 44.9751 42.6027 45.6741C41.9039 46.3734 40.7704 46.3734 40.071 45.6743Z" fill="#E9EFFF"/>
<path d="M36.1326 46.2412C32.2979 46.2412 29.1782 43.1215 29.1782 39.2867C29.1782 35.4518 32.2979 32.3321 36.1326 32.3321C39.9674 32.3321 43.0873 35.4518 43.0873 39.2867C43.087 43.1215 39.9674 46.2412 36.1326 46.2412ZM36.1326 35.9125C34.2721 35.9125 32.7586 37.4262 32.7586 39.2867C32.7586 41.1473 34.2721 42.6608 36.1326 42.6608C37.9932 42.6608 39.5069 41.1473 39.5069 39.2867C39.5067 37.4262 37.9932 35.9125 36.1326 35.9125Z" fill="#E9EFFF"/>
<path d="M109.202 38.0463C117.903 29.3452 117.903 15.238 109.202 6.53685C100.501 -2.16425 86.3938 -2.16425 77.6927 6.53685C68.9916 15.238 68.9916 29.3452 77.6927 38.0463C86.3938 46.7474 100.501 46.7474 109.202 38.0463Z" fill="#FFDD40"/>
<path d="M71.1758 22.2839C71.1758 34.5909 81.1525 44.5679 93.4597 44.5679C99.2126 44.5679 104.456 42.3876 108.409 38.8086C108.309 38.6742 108.172 38.5675 108.007 38.5095C106.844 38.0993 106.629 37.0883 106.638 36.3632C106.644 35.9343 106.329 35.5616 105.906 35.4903C104.204 35.2035 103.825 34.0294 103.771 33.2324C103.742 32.8059 103.393 32.4721 102.967 32.4351C98.5161 32.0493 97.8129 28.601 97.7099 27.235C97.684 26.8915 97.4626 26.5956 97.1395 26.4758C95.9498 26.0348 93.1252 24.9759 91.3672 24.2247C89.5841 23.4626 89.9232 19.5705 90.1519 17.9293C90.2088 17.5214 89.9646 17.1419 89.5775 17.0009C86.1627 15.7559 86.9296 11.4886 87.4157 9.71558C87.527 9.30951 87.3407 8.87487 86.9603 8.69457C85.5624 8.0321 85.6298 6.66192 85.8424 5.79676C85.9411 5.39503 85.7507 4.98553 85.3842 4.79381C84.4345 4.29701 84.3376 3.25224 84.3933 2.55664C84.4098 2.35052 84.3497 2.15354 84.2359 1.9938C76.5317 5.50129 71.1758 13.2669 71.1758 22.2839Z" fill="#FFB332"/>
<path d="M105.231 34.0753C111.739 27.5673 111.739 17.0158 105.231 10.5078C98.7231 3.99985 88.1716 3.99985 81.6636 10.5078C75.1556 17.0158 75.1556 27.5673 81.6636 34.0753C88.1716 40.5833 98.7231 40.5833 105.231 34.0753Z" fill="#E9EFFF"/>
<path d="M104.448 34.8107C103.957 34.3327 103.804 33.7141 103.771 33.2324C103.742 32.8059 103.393 32.4721 102.968 32.4351C98.5164 32.0493 97.8132 28.601 97.7102 27.235C97.6843 26.8915 97.4629 26.5956 97.1398 26.4758C95.9501 26.0348 93.1254 24.9759 91.3675 24.2247C89.5844 23.4626 89.9235 19.5705 90.1522 17.9293C90.2091 17.5214 89.9648 17.1419 89.5777 17.0009C86.163 15.7559 86.9299 11.4886 87.416 9.71558C87.5273 9.30951 87.341 8.87487 86.9605 8.69457C86.3237 8.3927 85.993 7.94367 85.8397 7.46265C80.4686 10.23 76.793 15.8261 76.793 22.2842C76.793 31.4892 84.2551 38.9514 93.46 38.9514C97.6708 38.9512 101.514 37.3863 104.448 34.8107Z" fill="#D3DCFB"/>
<path d="M96.8895 22.2839H110.127C110.127 13.0789 102.665 5.6167 93.46 5.6167V18.8544C95.2975 18.9812 96.7627 20.4464 96.8895 22.2839Z" fill="#FF4155"/>
<path d="M76.8921 62.2093L72.0281 57.3453C71.7052 57.0222 71.2672 56.841 70.8104 56.841H35.6553V70.0136H70.8101C71.2669 70.0136 71.705 69.8321 72.0279 69.5092L76.8918 64.6453C77.5646 63.9723 77.5646 62.882 76.8921 62.2093Z" fill="#D3DCFB"/>
<path d="M76.8921 81.4407L72.0281 76.5768C71.7052 76.2539 71.2672 76.0724 70.8104 76.0724H35.6553V89.245H70.8101C71.2669 89.245 71.705 89.0636 72.0279 88.7407L76.8918 83.8767C77.5646 83.2037 77.5646 82.1133 76.8921 81.4407Z" fill="#D3DCFB"/>
<path d="M76.8921 100.672L72.0281 95.8079C71.7052 95.485 71.2672 95.3036 70.8104 95.3036H35.6553V108.476H70.8101C71.2669 108.476 71.705 108.295 72.0279 107.972L76.8918 103.108C77.5646 102.435 77.5646 101.344 76.8921 100.672Z" fill="#D3DCFB"/>
<path d="M48.0513 63.427C48.0513 59.7895 51.0001 56.8408 54.6376 56.8408H35.6553V70.0133H54.6376C51.0001 70.0133 48.0513 67.0645 48.0513 63.427Z" fill="#BEC8F7"/>
<path d="M48.0513 82.6585C48.0513 79.021 51.0001 76.0722 54.6376 76.0722H35.6553V89.2445H54.6376C51.0001 89.2445 48.0513 86.296 48.0513 82.6585Z" fill="#BEC8F7"/>
<path d="M48.0513 101.89C48.0513 98.2521 51.0001 95.3033 54.6376 95.3033H35.6553V108.476H54.6376C51.0001 108.476 48.0513 105.527 48.0513 101.89Z" fill="#BEC8F7"/>
<path d="M22.8462 97.0257V105.188C24.3514 106.362 25.9188 107.459 27.5415 108.476H36.1328V95.3036H24.5685C23.6174 95.3034 22.8462 96.0744 22.8462 97.0257Z" fill="#38C674"/>
<path d="M36.1328 76.0722H24.5685C23.6174 76.0722 22.8462 76.8432 22.8462 77.7943V87.5224C22.8462 88.4735 23.6172 89.2445 24.5685 89.2445H36.1328V76.0722Z" fill="#FFDD40"/>
<path d="M36.1328 56.841H24.5685C23.6174 56.841 22.8462 57.612 22.8462 58.5631V68.2912C22.8462 69.2423 23.6172 70.0133 24.5685 70.0133H36.1328V56.841Z" fill="#FF4155"/>
<path d="M93.4597 41.0439C83.1155 41.0439 74.6997 32.6284 74.6997 22.2839C74.6997 11.9395 83.1155 3.52396 93.4597 3.52396C103.804 3.52396 112.219 11.9395 112.219 22.2839C112.219 32.6284 103.804 41.0439 93.4597 41.0439ZM93.4597 7.70945C85.4235 7.70945 78.8852 14.2475 78.8852 22.2837C78.8852 30.3199 85.4233 36.858 93.4597 36.858C101.496 36.858 108.034 30.3199 108.034 22.2837C108.034 14.2475 101.496 7.70945 93.4597 7.70945Z" fill="#FFB332"/>
<path d="M106.443 35.8066C106.311 35.6439 106.123 35.5269 105.906 35.4901C104.204 35.2033 103.825 34.0292 103.771 33.2321C103.758 33.0518 103.686 32.8901 103.578 32.7584C100.955 35.2936 97.3876 36.8582 93.4597 36.8582C85.4235 36.8582 78.8854 30.3202 78.8854 22.284C78.8854 16.4326 82.3534 11.3787 87.3403 9.06136C87.2569 8.90597 87.1291 8.77435 86.9603 8.69437C85.5624 8.0319 85.6298 6.66172 85.8424 5.79656C85.8951 5.58153 85.8629 5.36535 85.7674 5.18048C79.2497 8.12353 74.6997 14.6803 74.6997 22.2842C74.6997 32.6286 83.1155 41.0442 93.4597 41.0442C98.495 41.044 103.069 39.0463 106.443 35.8066Z" fill="#FF9100"/>
<path d="M93.4601 28.3344C90.1237 28.3344 87.4097 25.6203 87.4097 22.284C87.4097 18.9476 90.124 16.2336 93.4601 16.2336C96.7964 16.2336 99.5105 18.9476 99.5105 22.284C99.5105 25.6203 96.7962 28.3344 93.4601 28.3344ZM93.4601 20.4193C92.4318 20.4193 91.5952 21.2559 91.5952 22.284C91.5952 23.3121 92.4318 24.1486 93.4601 24.1486C94.4884 24.1486 95.3248 23.3121 95.3248 22.284C95.3248 21.2559 94.4882 20.4193 93.4601 20.4193Z" fill="#3C58A0"/>
<path d="M93.4599 20.4193C92.3041 20.4193 91.3672 19.4823 91.3672 18.3265V12.1234C91.3672 10.9676 92.3041 10.0307 93.4599 10.0307C94.6158 10.0307 95.5527 10.9676 95.5527 12.1234V18.3265C95.5527 19.4823 94.6158 20.4193 93.4599 20.4193Z" fill="#3C58A0"/>
</g>
<defs>
<clipPath id="clip0">
<rect width="117" height="117" fill="white"/>
</clipPath>
</defs>
</svg>
