<svg width="121" height="121" viewBox="0 0 121 121" fill="none" xmlns="http://www.w3.org/2000/svg">
<path d="M114.22 121H6.78025C3.0354 121 0 117.965 0 114.22V25.0345H121V114.22C121 117.965 117.965 121 114.22 121Z" fill="#ECF0F1"/>
<path d="M121 25.0345H0V6.78025C0 3.0354 3.0354 0 6.78025 0H114.22C117.965 0 121 3.0354 121 6.78025V25.0345Z" fill="#808080"/>
<path d="M16.69 8.34475H8.34521V16.6895H16.69V8.34475Z" fill="#E64C3C"/>
<path d="M33.3794 8.34475H25.0347V16.6895H33.3794V8.34475Z" fill="#F9DC0B"/>
<path d="M50.0689 8.34475H41.7241V16.6895H50.0689V8.34475Z" fill="#24AE5F"/>
<path d="M56.3281 81.3621H10.4315C9.27989 81.3621 8.34521 80.4274 8.34521 79.2758C8.34521 78.1242 9.27989 77.1895 10.4315 77.1895H56.3281C57.4797 77.1895 58.4144 78.1242 58.4144 79.2758C58.4144 80.4274 57.4797 81.3621 56.3281 81.3621Z" fill="#BDC3C7"/>
<path d="M56.3281 89.7068H10.4315C9.27989 89.7068 8.34521 88.7722 8.34521 87.6205C8.34521 86.4689 9.27989 85.5342 10.4315 85.5342H56.3281C57.4797 85.5342 58.4144 86.4689 58.4144 87.6205C58.4142 88.7722 57.4797 89.7068 56.3281 89.7068Z" fill="#BDC3C7"/>
<path d="M43.8107 73.0174H10.4315C9.27989 73.0174 8.34521 72.0827 8.34521 70.931C8.34521 69.7794 9.27989 68.8447 10.4315 68.8447H43.8107C44.9624 68.8447 45.897 69.7794 45.897 70.931C45.897 72.0827 44.9624 73.0174 43.8107 73.0174Z" fill="#BDC3C7"/>
<path d="M56.3281 98.0518H10.4315C9.27989 98.0518 8.34521 97.1172 8.34521 95.9655C8.34521 94.8139 9.27989 93.8792 10.4315 93.8792H56.3281C57.4797 93.8792 58.4144 94.8139 58.4144 95.9655C58.4144 97.1172 57.4797 98.0518 56.3281 98.0518Z" fill="#BDC3C7"/>
<path d="M56.3281 106.397H10.4315C9.27989 106.397 8.34521 105.462 8.34521 104.31C8.34521 103.159 9.27989 102.224 10.4315 102.224H56.3281C57.4797 102.224 58.4144 103.159 58.4144 104.31C58.4144 105.462 57.4797 106.397 56.3281 106.397Z" fill="#BDC3C7"/>
<path d="M56.3281 114.741H10.4315C9.27989 114.741 8.34521 113.807 8.34521 112.655C8.34521 111.503 9.27989 110.569 10.4315 110.569H56.3281C57.4797 110.569 58.4144 111.503 58.4144 112.655C58.4142 113.807 57.4797 114.741 56.3281 114.741Z" fill="#BDC3C7"/>
<path d="M110.569 70.9311H66.7583V112.655H110.569V70.9311Z" fill="#24AE5F"/>
<path d="M103.699 92.4043L95.3543 84.0596C94.5385 83.2437 93.2201 83.2437 92.4045 84.0596L86.5778 89.8862L84.9235 88.2319C84.1077 87.4161 82.7893 87.4161 81.9737 88.2319L73.6289 96.5767C72.8131 97.3925 72.8131 98.7109 73.6289 99.5265C74.0357 99.9332 74.5698 100.138 75.1039 100.138C75.638 100.138 76.1721 99.9332 76.5788 99.5265L83.4486 92.6567L90.3184 99.5265C90.7252 99.9332 91.2593 100.138 91.7934 100.138C92.3275 100.138 92.8616 99.9332 93.2683 99.5265C94.0841 98.7107 94.0841 97.3922 93.2683 96.5767L89.5277 92.8361L93.8794 88.4843L100.749 95.3541C101.156 95.7609 101.69 95.9653 102.224 95.9653C102.758 95.9653 103.292 95.7609 103.699 95.3541C104.515 94.5386 104.515 93.2201 103.699 92.4043Z" fill="white"/>
<path d="M110.569 33.3792H10.4312V62.5861H110.569V33.3792Z" fill="#4099FF"/>
<path d="M83.4482 45.8966H33.3793C32.2276 45.8966 31.293 44.9619 31.293 43.8103C31.293 42.6586 32.2276 41.724 33.3793 41.724H83.4482C84.5998 41.724 85.5345 42.6586 85.5345 43.8103C85.5345 44.9619 84.5998 45.8966 83.4482 45.8966Z" fill="white"/>
<path d="M93.8794 54.2413H27.121C25.9693 54.2413 25.0347 53.3066 25.0347 52.155C25.0347 51.0034 25.9693 50.0687 27.121 50.0687H93.8797C95.0313 50.0687 95.966 51.0034 95.966 52.155C95.9657 53.3066 95.0311 54.2413 93.8794 54.2413Z" fill="white"/>
</svg>
