<svg width="115" height="119" viewBox="0 0 115 119" fill="none" xmlns="http://www.w3.org/2000/svg">
<path d="M57.5005 5.11234C26.0512 5.11234 0.556641 30.6069 0.556641 62.0562C0.556641 91.7594 23.3003 116.146 52.3221 118.763L62.6819 118.763C91.7023 116.145 114.444 91.7583 114.444 62.0562C114.444 30.6069 88.9497 5.11234 57.5005 5.11234Z" fill="#73C3F9"/>
<path d="M57.5005 5.11234C47.5361 5.11234 38.1711 7.67455 30.0238 12.1717L7.61599 34.5797C3.11886 42.727 0.556641 52.0918 0.556641 62.0562C0.556641 64.2168 0.680521 66.3481 0.914803 68.4461L37.8873 105.419C40.999 108.531 42.7858 112.716 42.8981 117.104C45.947 117.911 49.0954 118.472 52.3221 118.763L62.6819 118.763C65.9086 118.472 69.057 117.91 72.1059 117.103C72.2184 112.716 74.005 108.531 77.1166 105.419L114.086 68.4496C114.32 66.3506 114.444 64.2179 114.444 62.0562C114.444 52.089 111.881 42.7217 107.381 34.5727L84.9844 12.1759C76.8354 7.67618 67.4679 5.11234 57.5005 5.11234Z" fill="#3AB0FA"/>
<path d="M52.3223 106.02V118.763C54.0282 118.917 55.7547 119 57.5006 119C59.2477 119 60.9751 118.917 62.682 118.763V106.02C59.6468 108.363 55.3577 108.363 52.3223 106.02Z" fill="#E9EFFF"/>
<path d="M57.5001 115.63C57.5001 114.096 58.7551 112.841 60.2891 112.841H62.68V106.023C59.6446 108.366 55.3555 108.366 52.3203 106.023V118.763C54.0268 118.917 55.7534 119 57.5001 119V115.63Z" fill="#BEC8F7"/>
<path d="M108.365 60.8587L63.4978 105.726C60.2005 109.023 54.8048 109.023 51.5072 105.726L6.64002 60.8587C3.34265 57.5614 3.34265 52.1657 6.64002 48.8683L51.5074 4.00092C54.8048 0.703551 60.2005 0.703551 63.4981 4.00092L108.365 48.8681C111.663 52.1657 111.663 57.5614 108.365 60.8587Z" fill="#E9EFFF"/>
<path d="M81.7508 84.2568C79.8612 83.9445 79.1979 82.7268 78.9738 81.7588C78.8216 81.1008 78.2066 80.6631 77.5326 80.7066C75.1231 80.8619 73.8857 79.6045 73.8857 79.6045C73.8857 79.6045 35.8266 42.1264 33.328 39.6279C31.7425 38.0423 31.5663 36.0142 31.6493 34.7436C31.6911 34.1032 31.2944 33.508 30.678 33.3304C28.82 32.7954 28.2366 31.4183 28.0558 30.5186C27.9635 30.0598 27.6335 29.677 27.1916 29.5224C26.8676 29.4092 26.6229 29.251 26.433 29.0741L6.63904 48.8681C3.34167 52.1654 3.34167 57.5611 6.63904 60.8585L51.5062 105.726C54.8036 109.023 60.1993 109.023 63.4969 105.726L83.2372 85.9854C83.0447 85.7592 82.9231 85.4905 82.8495 85.2346C82.7014 84.7208 82.2789 84.344 81.7508 84.2568Z" fill="#BEC8F7"/>
<path d="M50.4283 106.805L5.56112 61.9374C1.66062 58.0369 1.66062 51.6902 5.56112 47.7896L50.4283 2.92224C54.3249 -0.974317 60.6797 -0.974084 64.576 2.92224L109.443 47.7896C113.34 51.6862 113.34 58.0411 109.443 61.9374L64.576 106.805C60.6795 110.701 54.3246 110.701 50.4283 106.805ZM52.5854 5.07958L7.71823 49.9468C5.00726 52.6577 5.00726 57.0691 7.71823 59.7801L52.5854 104.647C55.2899 107.352 59.7147 107.351 62.4187 104.647L107.286 59.7801C109.99 57.0758 109.99 52.6508 107.286 49.9468L62.4189 5.07958C59.7145 2.37511 55.2894 2.37558 52.5854 5.07958Z" fill="#6C5475"/>
<path d="M83.9412 86.4447C83.2909 86.2522 82.9892 85.7179 82.85 85.2349C82.7784 84.9867 82.6417 84.7717 82.4614 84.6046L62.4185 104.647C59.7145 107.351 55.2896 107.352 52.5852 104.647L7.718 59.7801C5.00703 57.0689 5.00703 52.6577 7.718 49.9468L27.7567 29.908C27.6073 29.7349 27.4137 29.5999 27.1922 29.5222C26.4098 29.2487 26.07 28.7194 25.9241 28.2753C25.8576 28.0728 25.7491 27.8916 25.611 27.7393L5.56112 47.7892C1.66062 51.6897 1.66062 58.0364 5.56112 61.9369L50.4283 106.804C54.3246 110.701 60.6795 110.701 64.576 106.804L84.5676 86.8128C84.3961 86.6455 84.1832 86.5163 83.9412 86.4447Z" fill="#45304C"/>
<path d="M103.422 53.781L58.5847 8.94337C57.9948 8.35348 57.021 8.34186 56.4195 8.94337L11.5818 53.7808C10.9868 54.3758 10.9847 55.3489 11.5818 55.946L56.4195 100.784C57.0142 101.378 57.9878 101.381 58.5847 100.784L103.422 55.946C104.018 55.3501 104.018 54.3767 103.422 53.781Z" fill="#FFDD40"/>
<path d="M58.584 8.94337C57.9942 8.35348 57.0203 8.34186 56.4188 8.94337L53.147 12.2152C51.3625 13.9997 51.3625 16.8931 53.147 18.6779L76.2025 41.7334C78.2974 43.8283 81.6935 43.8283 83.7883 41.7334C85.8831 39.6386 85.8831 36.2425 83.7883 34.1477L58.584 8.94337Z" fill="#FFE87F"/>
<path d="M73.8862 79.6045C73.8862 79.6045 35.8271 42.1264 33.3286 39.6279C31.743 38.0423 31.5668 36.0142 31.6498 34.7436C31.6691 34.4461 31.5908 34.1604 31.443 33.9199L11.5818 53.7808C10.9868 54.3758 10.9847 55.3489 11.5818 55.946L56.4195 100.784C57.0142 101.378 57.9879 101.381 58.5847 100.784L78.418 80.9504C78.1663 80.778 77.8574 80.6857 77.5336 80.7066C75.1236 80.8619 73.8862 79.6045 73.8862 79.6045Z" fill="#FFB332"/>
<path d="M50.4278 2.92225L45.3452 8.00485C44.7425 8.60752 44.7507 9.58695 45.3631 10.1796C45.9614 10.7586 46.9136 10.7509 47.5023 10.1622L52.5849 5.07959C55.2889 2.37559 59.7138 2.37536 62.4182 5.07959L89.2025 31.8639C89.7954 32.4568 90.7558 32.46 91.3526 31.8709C91.9548 31.2763 91.9581 30.305 91.3596 29.7068L64.5753 2.92248C60.6848 -0.968262 54.3185 -0.968262 50.4278 2.92225Z" fill="#876D93"/>
<path d="M78.1077 18.5257C77.4714 19.1132 77.4514 20.1124 78.064 20.7248L89.2098 31.8709C89.8016 32.4626 90.7612 32.4626 91.353 31.8709C91.9526 31.2712 91.9526 30.2992 91.353 29.6996L80.2211 18.5677C79.6422 17.9888 78.7095 17.9702 78.1077 18.5257Z" fill="#997DA8"/>
</svg>
