<svg width="119" height="119" viewBox="0 0 119 119" fill="none" xmlns="http://www.w3.org/2000/svg">
<path d="M101.336 41.8359C101.336 51.9463 97.6404 61.7777 90.9469 69.3779C86.1357 74.8863 83.9045 82.1149 83.9045 87.623V91.1094L76.9318 98.082H42.0686L35.0959 91.1094V87.623C35.0959 82.1149 32.9344 74.8863 28.193 69.5869C19.2677 59.5462 15.549 46.089 18.408 32.7018C21.7549 17.0133 34.7473 4.25332 50.5057 0.906445C53.5037 0.278674 56.502 0 59.5002 0C69.0527 0 78.3963 3.27692 85.8571 9.34359C95.6883 17.3619 101.336 29.2154 101.336 41.8359Z" fill="#F9DC0B"/>
<path d="M101.336 41.8359C101.336 51.9463 97.6402 61.7777 90.9467 69.3779C86.1355 74.8863 83.9043 82.1149 83.9043 87.623V91.1094L76.9316 98.082H59.5V0C69.0525 0 78.3961 3.27692 85.8569 9.34359C95.6881 17.3619 101.336 29.2154 101.336 41.8359Z" fill="#FCBF29"/>
<path d="M10.459 48.8086H3.48633C1.55932 48.8086 0 47.2493 0 45.3223C0 43.3953 1.55932 41.8359 3.48633 41.8359H10.459C12.386 41.8359 13.9453 43.3953 13.9453 45.3223C13.9453 47.2493 12.386 48.8086 10.459 48.8086Z" fill="#FCBF29"/>
<path d="M6.9727 29.3342L2.0428 24.4043C0.681044 23.0426 0.681044 20.8362 2.0428 19.4744C3.40456 18.1127 5.61094 18.1127 6.9727 19.4744L11.9026 24.4043C13.2644 25.7661 13.2644 27.9725 11.9026 29.3342C10.5408 30.696 8.3347 30.696 6.9727 29.3342Z" fill="#FCBF29"/>
<path d="M2.0428 71.1701C0.681044 69.8084 0.681044 67.602 2.0428 66.2402L6.9727 61.3103C8.33446 59.9486 10.5408 59.9486 11.9026 61.3103C13.2644 62.6721 13.2644 64.8785 11.9026 66.2402L6.9727 71.1701C5.61094 72.5319 3.4048 72.5319 2.0428 71.1701Z" fill="#FCBF29"/>
<path d="M115.514 48.8086H108.541C106.614 48.8086 105.055 47.2493 105.055 45.3223C105.055 43.3953 106.614 41.8359 108.541 41.8359H115.514C117.441 41.8359 119 43.3953 119 45.3223C119 47.2493 117.441 48.8086 115.514 48.8086Z" fill="#FEA832"/>
<path d="M107.097 29.3342C105.736 27.9725 105.736 25.7661 107.097 24.4043L112.027 19.4744C113.389 18.1127 115.596 18.1127 116.957 19.4744C118.319 20.8362 118.319 23.0426 116.957 24.4043L112.027 29.3342C110.666 30.696 108.459 30.696 107.097 29.3342Z" fill="#FEA832"/>
<path d="M112.027 71.1702L107.097 66.2403C105.736 64.8785 105.736 62.6721 107.097 61.3104C108.459 59.9486 110.666 59.9486 112.027 61.3104L116.957 66.2403C118.319 67.602 118.319 69.8084 116.957 71.1702C115.596 72.5319 113.389 72.5319 112.027 71.1702Z" fill="#FEA832"/>
<path d="M73.4453 98.082H45.5547C43.6021 98.082 42.0684 99.6158 42.0684 101.568C42.0684 111.191 49.8777 119 59.5 119C69.1223 119 76.9316 111.191 76.9316 101.568C76.9316 99.6158 75.3979 98.082 73.4453 98.082Z" fill="#57555C"/>
<path d="M62.9863 59.2676V94.5957C62.9863 96.5483 61.4526 98.082 59.5 98.082C57.5474 98.082 56.0137 96.5483 56.0137 94.5957V59.2676C56.0137 57.315 57.5474 55.7812 59.5 55.7812C61.4526 55.7812 62.9863 57.315 62.9863 59.2676Z" fill="#B35C4B"/>
<path d="M62.9863 59.2676V94.5957C62.9863 96.5483 61.4526 98.082 59.5 98.082V55.7812C61.4526 55.7812 62.9863 57.315 62.9863 59.2676Z" fill="#8B432D"/>
<path d="M80.418 34.8633H73.4453C67.7277 34.8633 62.7077 37.6526 59.5 41.9756C56.2923 37.6526 51.2723 34.8633 45.5547 34.8633H38.582C36.6295 34.8633 35.0957 36.397 35.0957 38.3496V45.3223C35.0957 54.9445 42.9051 62.7539 52.5273 62.7539H66.4727C76.0949 62.7539 83.9043 54.9445 83.9043 45.3223V38.3496C83.9043 36.397 82.3705 34.8633 80.418 34.8633Z" fill="#98D400"/>
<path d="M83.9043 38.3496V45.3223C83.9043 54.9445 76.0949 62.7539 66.4727 62.7539H59.5V41.9756C62.7077 37.6526 67.7277 34.8633 73.4453 34.8633H80.418C82.3705 34.8633 83.9043 36.397 83.9043 38.3496Z" fill="#7FBF00"/>
<path d="M76.9316 101.568C76.9316 111.191 69.1223 119 59.5 119V98.082H73.4453C75.3979 98.082 76.9316 99.6158 76.9316 101.568Z" fill="#3C3A41"/>
<path d="M83.9043 91.1094V94.5957C83.9043 100.383 79.2328 105.055 73.4453 105.055H45.5547C39.7672 105.055 35.0957 100.383 35.0957 94.5957V91.1094H83.9043Z" fill="#F7F7F7"/>
<path d="M83.9043 91.1094V94.5957C83.9043 100.383 79.2328 105.055 73.4453 105.055H59.5V91.1094H83.9043Z" fill="#F7F7F7"/>
</svg>
