<svg width="20" height="20" viewBox="0 0 20 20" fill="none" xmlns="http://www.w3.org/2000/svg">
<path d="M10 0C4.47768 0 0 4.47768 0 10C0 15.5223 4.47768 20 10 20C15.5223 20 20 15.5223 20 10C20 4.47768 15.5223 0 10 0ZM10 18.3036C5.41518 18.3036 1.69643 14.5848 1.69643 10C1.69643 5.41518 5.41518 1.69643 10 1.69643C14.5848 1.69643 18.3036 5.41518 18.3036 10C18.3036 14.5848 14.5848 18.3036 10 18.3036Z" fill="#F9DC0B"/>
<path d="M13.8995 12.8259L10.7164 10.5245V4.99998C10.7164 4.90177 10.6361 4.82141 10.5379 4.82141H9.46422C9.366 4.82141 9.28564 4.90177 9.28564 4.99998V11.1473C9.28564 11.2053 9.31243 11.2589 9.3593 11.2924L13.0513 13.9844C13.1316 14.0424 13.2432 14.0245 13.3013 13.9464L13.9397 13.0759C13.9977 12.9933 13.9798 12.8817 13.8995 12.8259Z" fill="#F9DC0B"/>
</svg>
