<svg width="17" height="19" viewBox="0 0 17 19" fill="none" xmlns="http://www.w3.org/2000/svg">
<path d="M5 6.875C5.16576 6.875 5.32473 6.94085 5.44194 7.05806C5.55915 7.17527 5.625 7.33424 5.625 7.5V15C5.625 15.1658 5.55915 15.3247 5.44194 15.4419C5.32473 15.5592 5.16576 15.625 5 15.625C4.83424 15.625 4.67527 15.5592 4.55806 15.4419C4.44085 15.3247 4.375 15.1658 4.375 15V7.5C4.375 7.33424 4.44085 7.17527 4.55806 7.05806C4.67527 6.94085 4.83424 6.875 5 6.875ZM8.125 6.875C8.29076 6.875 8.44973 6.94085 8.56694 7.05806C8.68415 7.17527 8.75 7.33424 8.75 7.5V15C8.75 15.1658 8.68415 15.3247 8.56694 15.4419C8.44973 15.5592 8.29076 15.625 8.125 15.625C7.95924 15.625 7.80027 15.5592 7.68306 15.4419C7.56585 15.3247 7.5 15.1658 7.5 15V7.5C7.5 7.33424 7.56585 7.17527 7.68306 7.05806C7.80027 6.94085 7.95924 6.875 8.125 6.875ZM11.875 7.5C11.875 7.33424 11.8092 7.17527 11.6919 7.05806C11.5747 6.94085 11.4158 6.875 11.25 6.875C11.0842 6.875 10.9253 6.94085 10.8081 7.05806C10.6908 7.17527 10.625 7.33424 10.625 7.5V15C10.625 15.1658 10.6908 15.3247 10.8081 15.4419C10.9253 15.5592 11.0842 15.625 11.25 15.625C11.4158 15.625 11.5747 15.5592 11.6919 15.4419C11.8092 15.3247 11.875 15.1658 11.875 15V7.5Z" fill="black"/>
<path fill-rule="evenodd" clip-rule="evenodd" d="M16.25 3.75C16.25 4.08152 16.1183 4.39946 15.8839 4.63388C15.6495 4.8683 15.3315 5 15 5H14.375V16.25C14.375 16.913 14.1116 17.5489 13.6428 18.0178C13.1739 18.4866 12.538 18.75 11.875 18.75H4.375C3.71196 18.75 3.07607 18.4866 2.60723 18.0178C2.13839 17.5489 1.875 16.913 1.875 16.25V5H1.25C0.918479 5 0.600537 4.8683 0.366116 4.63388C0.131696 4.39946 0 4.08152 0 3.75V2.5C0 2.16848 0.131696 1.85054 0.366116 1.61612C0.600537 1.3817 0.918479 1.25 1.25 1.25H5.625C5.625 0.918479 5.7567 0.600537 5.99112 0.366117C6.22554 0.131696 6.54348 0 6.875 0L9.375 0C9.70652 0 10.0245 0.131696 10.2589 0.366117C10.4933 0.600537 10.625 0.918479 10.625 1.25H15C15.3315 1.25 15.6495 1.3817 15.8839 1.61612C16.1183 1.85054 16.25 2.16848 16.25 2.5V3.75ZM3.2725 5L3.125 5.07375V16.25C3.125 16.5815 3.2567 16.8995 3.49112 17.1339C3.72554 17.3683 4.04348 17.5 4.375 17.5H11.875C12.2065 17.5 12.5245 17.3683 12.7589 17.1339C12.9933 16.8995 13.125 16.5815 13.125 16.25V5.07375L12.9775 5H3.2725ZM1.25 3.75V2.5H15V3.75H1.25Z" fill="black"/>
</svg>
