<svg width="20" height="20" viewBox="0 0 20 20" fill="none" xmlns="http://www.w3.org/2000/svg">
<path d="M10 0C4.486 0 0 4.486 0 10C0 15.514 4.486 20 10 20C15.514 20 20 15.514 20 10C20 4.486 15.514 0 10 0ZM10 18C5.589 18 2 14.411 2 10C2 5.589 5.589 2 10 2C14.411 2 18 5.589 18 10C18 14.411 14.411 18 10 18Z" fill="#4099FF"/>
<path d="M5.71777 6.96094C5.71777 6.36393 5.9069 5.87174 6.28516 5.48438C6.66797 5.09701 7.15788 4.90332 7.75488 4.90332C8.361 4.90332 8.85091 5.09928 9.22461 5.49121C9.60286 5.87858 9.79199 6.38216 9.79199 7.00195V7.4873C9.79199 8.08887 9.60059 8.58105 9.21777 8.96387C8.83952 9.34212 8.35645 9.53125 7.76855 9.53125C7.17611 9.53125 6.6862 9.34212 6.29883 8.96387C5.91146 8.58105 5.71777 8.07292 5.71777 7.43945V6.96094ZM6.66113 7.4873C6.66113 7.84277 6.76139 8.13672 6.96191 8.36914C7.16243 8.59701 7.43132 8.71094 7.76855 8.71094C8.09212 8.71094 8.35189 8.59928 8.54785 8.37598C8.74837 8.15267 8.84863 7.84733 8.84863 7.45996V6.96094C8.84863 6.60547 8.75065 6.31152 8.55469 6.0791C8.35872 5.84668 8.09212 5.73047 7.75488 5.73047C7.41764 5.73047 7.15104 5.84668 6.95508 6.0791C6.75911 6.31152 6.66113 6.61458 6.66113 6.98828V7.4873ZM10.5645 12.5596C10.5645 11.9626 10.7536 11.4727 11.1318 11.0898C11.5146 10.7025 12.0046 10.5088 12.6016 10.5088C13.1986 10.5088 13.6885 10.7002 14.0713 11.083C14.4541 11.4658 14.6455 11.974 14.6455 12.6074V13.0928C14.6455 13.6898 14.4541 14.182 14.0713 14.5693C13.693 14.9521 13.2077 15.1436 12.6152 15.1436C12.0228 15.1436 11.5329 14.9544 11.1455 14.5762C10.7581 14.1934 10.5645 13.6852 10.5645 13.0518V12.5596ZM11.5078 13.0928C11.5078 13.4528 11.6081 13.749 11.8086 13.9814C12.0091 14.2093 12.278 14.3232 12.6152 14.3232C12.9434 14.3232 13.2054 14.2116 13.4014 13.9883C13.5973 13.7604 13.6953 13.4528 13.6953 13.0654V12.5596C13.6953 12.1995 13.5951 11.9056 13.3945 11.6777C13.1986 11.4499 12.9342 11.3359 12.6016 11.3359C12.278 11.3359 12.0137 11.4499 11.8086 11.6777C11.6081 11.901 11.5078 12.2041 11.5078 12.5869V13.0928ZM8.05566 14.248L7.33789 13.7969L12.1982 6.01758L12.916 6.46875L8.05566 14.248Z" fill="#4099FF"/>
</svg>
