<svg width="18" height="18" viewBox="0 0 18 18" fill="none" xmlns="http://www.w3.org/2000/svg">
<path d="M9.25 0.46582C4.41797 0.46582 0.5 4.38379 0.5 9.21582C0.5 14.0479 4.41797 17.9658 9.25 17.9658C14.082 17.9658 18 14.0479 18 9.21582C18 4.38379 14.082 0.46582 9.25 0.46582ZM9.25 16.4814C5.23828 16.4814 1.98438 13.2275 1.98438 9.21582C1.98438 7.47754 2.5957 5.87988 3.61523 4.62988L13.8359 14.8506C12.5859 15.8701 10.9883 16.4814 9.25 16.4814ZM14.8848 13.8018L4.66406 3.58105C5.91406 2.56152 7.51172 1.9502 9.25 1.9502C13.2617 1.9502 16.5156 5.2041 16.5156 9.21582C16.5156 10.9541 15.9043 12.5518 14.8848 13.8018Z" fill="#EC4C47"/>
</svg>
