<svg width="18" height="18" viewBox="0 0 18 18" fill="none" xmlns="http://www.w3.org/2000/svg">
<path d="M8.75 0C3.875 0 0 3.875 0 8.75C0 13.625 3.875 17.5 8.75 17.5C13.625 17.5 17.5 13.625 17.5 8.75C17.5 3.875 13.625 0 8.75 0ZM8.75 16.25C4.625 16.25 1.25 12.875 1.25 8.75C1.25 4.625 4.625 1.25 8.75 1.25C12.875 1.25 16.25 4.625 16.25 8.75C16.25 12.875 12.875 16.25 8.75 16.25Z" fill="#EC4C47"/>
<path d="M12.5 13.5L9.125 10.125L5.75 13.5L4.75 12.5L8.125 9.125L4.75 5.75L5.75 4.75L9.125 8.125L12.5 4.75L13.5 5.75L10.125 9.125L13.5 12.5L12.5 13.5Z" fill="#EC4C47"/>
</svg>
